<?xml version="1.0" encoding="utf-8"?>
<!-- Generator: Adobe Illustrator 25.4.1, SVG Export Plug-In . SVG Version: 6.00 Build 0)  -->
<svg version="1.1" id="Capa_1" xmlns="http://www.w3.org/2000/svg" xmlns:xlink="http://www.w3.org/1999/xlink" x="0px" y="0px"
	 viewBox="0 0 1090.6 965.7" style="enable-background:new 0 0 1090.6 965.7;" xml:space="preserve">
<style type="text/css">
	.st0{opacity:0.15;}
	.st1{fill:#3A3A5B;}
	.st2{fill:#A0A603;}
	.st3{fill:#FED677;}
	.st4{fill:#FCBA64;}
	.st5{fill:#4C4B73;}
	.st6{fill:#2C2C2C;}
	.st7{fill:url(#Trazado_119744_00000083054937639203288800000014862046562390286513_);}
	.st8{fill:#ECF1F9;}
	.st9{fill:#CED1EC;}
	.st10{fill:#6F7302;}
	.st11{fill:#6BB7BF;}
	.st12{fill:#E5DEC1;}
	.st13{fill:#E2D393;}
	.st14{fill:#FFCCBE;}
	.st15{fill:#9B5265;}
	.st16{fill:#E98C94;}
	.st17{fill:#80B4FF;}
	.st18{fill:#7398E6;}
	.st19{fill:#A9453D;}
	.st20{fill:#FF2948;}
	.st21{fill:#FF4D67;}
</style>
<g id="Grupo_57211" transform="translate(-516.482 -2097.895)">
	<g id="Grupo_57148">
		<g class="st0">
			<path class="st1" d="M1054.9,2449.7l-69.7,0l2,13.6l0,0c0,0,0,0,0,0l0.5,3.3l0,0.1l0.5,3.3c0,0,0,0,0,0l1.8,12.6c0,0,0,0,0,0
				l0.5,3.2v0l0,0.1v0l0.5,3.3c0,0,0,0,0,0l0,0l0.8,5.3c0.4,2.5,1.6,4.8,3.5,6.6c0,0,0,0,0,0c0.9,0.8,1.8,1.6,2.9,2.2
				c0.1,0.1,0.2,0.2,0.3,0.2l0.1,0.1c1.5,0.9,3.2,1.6,4.9,2.1h0c2.1,0.6,4.2,0.8,6.4,0.8h3.8c0.4,2.1,9.4,45-7.7,95.3
				c-0.2,0.6-0.4,1.3-0.6,1.9c0,0,0,0,0,0c-3.3-11.4-10.7-20-18.3-24.4c0.3-4.5,0.6-21.1-8.8-28.7c-11-8.9-31-2.4-31-2.4
				s-2.2,21,8.7,29.9c8.9,7.2,23.7,4.3,29.1,3c15.3,12.7,13.6,47.5,13.6,47.9c-8.6,41.6-3.7,74.8-3.4,76.4h24.6
				c4.9,0-18.1-42.9-5.8-95.7c4.4-18.7,7.3-35.8,9.1-50.5c2.3-9.7,8.8-31.8,21.7-34.9c-6.3,0.8-14,4.8-19.3,11.9
				c1.4-17.5,1.1-28.3,0.9-29.7h4.5c9.4,0,17.3-5.3,18.2-12.1l0.3-2l0.5-3.6l0,0l0.5-3.6l1.8-13.6l0.5-3.6v0v0l0.5-3.6l1.8-13.6
				c0,0,0,0,0,0L1054.9,2449.7L1054.9,2449.7L1054.9,2449.7z"/>
			<path class="st1" d="M956.1,2470.3c0,0-17.8-25.1-38-32.5c0,0,7.6,58.9-3.5,59.6s-3.7-66.2-3.7-66.2s-52.6-29.2-74-28.4
				c0,0,30.3,58.9,19.4,56.8s-45.2-61.8-45.2-61.8s-54.9-13.5-65.8,18.8s2.6,49.7,10.7,52.2s60.9,4.9,59.2,11.7s-38.1,15.7-57.6,8.3
				c0,0,18.8,55.4,47.7,54.4s38.9-18.4,56.8-18.7s30.6,5.2,21.5,9.5s-39.2-0.7-54.3,10.7s-27.2,18.3-0.8,25.3s66.3-0.9,85.2-13.5
				c0.1,0,15.5-1.3,27.6,70.2c4.7,27.5,1.1,68.4,1.1,68.4l9.8-1.5c5.4-80.1-23.5-146.7-23.5-146.7S977.8,2510.7,956.1,2470.3z"/>
			<path class="st1" d="M1303.9,2435.4c-13.7-34.5-72.4-16.6-72.4-16.6s-33.7,66.9-45.4,69.7s17.7-62.8,17.7-62.8
				c-23.2,0.4-78.6,35.2-78.6,35.2s11.9,72.2-0.1,72s-7.3-64.5-7.3-64.5c-21.5,9.2-39.3,37.5-39.3,37.5c-21.2,45.2,37.9,70,37.9,70
				s3.6,25.1-8.7,55.8l1.3,11.1c0,0,12-39.6,20.3-45.8c0,0-0.8-0.9-1.6-2.7l1.6,2.7c12.9,21.1,65.2,18.9,93.4,9.7
				s14.7-15.9-2.3-27.4s-49.3-4.3-59.5-8.4s3.3-10.9,22.7-11.6s31.2,17.5,62.7,16.9s48.5-61.8,48.5-61.8
				c-20.7,9.1-60.6,1.6-62.9-5.6s54.8-13,63.4-16.2S1317.6,2469.9,1303.9,2435.4z"/>
			<path class="st1" d="M902.8,2384c0,0,12.6-51.2-11.6-77c-24.2-25.8-76.1-16.4-76.1-16.4s-12.6,51.2,11.6,77
				S902.8,2384,902.8,2384z"/>
			<path class="st1" d="M1133.2,2357.3c-12.6,14.6-4.6,42.3-4.6,42.3s28.6,3.9,41.2-10.7c0.4-0.5,0.8-0.9,1.1-1.4
				c11-14.9,3.5-40.9,3.5-40.9s0,0,0,0c0,0,0,0,0,0l0,0C1174.2,2346.5,1145.8,2342.7,1133.2,2357.3z"/>
			<path class="st1" d="M1095.3,2409.4v-34.9c0.1-24.2,8.6-47.6,24-66.2c43.7-53.3,35.8-131.9-17.5-175.6
				c-28.3-23.2-65.4-32.8-101.4-26.2c-1.6,0.3-3.2,0.6-4.8,1c-54.3,12.1-93.6,58.6-97.2,113.4c0,0.1,0,0.2,0,0.4
				c-0.2,2.7-0.3,5.3-0.3,8c0,28.9,10,56.9,28.4,79.2c15.4,18.6,23.8,42,23.9,66.1v34.8c0.1,22.2,18,40.2,40.2,40.2h9.9h54.5
				C1077.3,2449.6,1095.3,2431.6,1095.3,2409.4z"/>
		</g>
		<g id="Grupo_57142">
			<g id="Grupo_57141">
				<path id="Trazado_119727" class="st1" d="M968.7,2362.5c2.1,2.2,7.5,5.8,9.8,7.3c5.1,3.4,14.6,5.5,16.5,30
					c-0.1,21.7,0,76.2,0,76.8l2.4,0c0-0.6-0.1-52.8,0-75.3h0c0,0,0-0.6,0-1.5c0-2.4,0-4.4,0-5.9c0.2-14,15.5-23.8,15.7-23.9l0,0
					c10.1-6.2,21.2-17.9,21.2-32.7c0-21.1-17.1-38.1-38.1-38.1s-38.1,17.1-38.1,38.1C958.1,2347.1,962,2355.4,968.7,2362.5z
					 M970.3,2361.9c-6.3-6.6-9.8-15.4-9.8-24.5c0-19.7,16-34.3,35.7-34.3s35.7,14.6,35.7,34.3c0,14-9.7,26.1-19.4,31.8
					c-3,1.8-5.8,3.8-8.3,6.2c-4.5,4.3-7.4,9-8.6,13.8c-2.1-7.2-5.2-14.7-15.8-20.2C976.4,2367.1,973.1,2364.7,970.3,2361.9
					L970.3,2361.9z"/>
			</g>
		</g>
	</g>
	<g id="Grupo_57163">
		<g id="Grupo_57157">
			<path id="Trazado_119735" class="st2" d="M1001.9,2622.1c0-0.4,2-41.1-17.7-50.5l1.4-1.3c9,3.1,19,12.9,23,26.6
				c3,10.2,0.7,12.5,0.7,12.8L1001.9,2622.1z"/>
		</g>
		<g id="Grupo_57162">
			<g id="Grupo_57161">
				<path id="Trazado_119745" class="st2" d="M1025.5,2556.8c0.1-0.3,6.2-35.4,22.7-39.4l0,0c-7.4,1-16.7,6.2-22,16.1
					c-3.9,7.3-2.5,9.4-2.6,9.7L1025.5,2556.8z"/>
			</g>
			<g id="Grupo_57159">
				<path id="Trazado_119736" class="st3" d="M901.7,2222.6c0,28.9,10,56.9,28.4,79.2c15.4,18.6,23.8,42,23.9,66.1v34.8
					c0.1,22.2,18,40.2,40.2,40.2h64.4c22.2-0.1,40.2-18,40.2-40.2v-34.9c0.1-24.2,8.6-47.6,24-66.2c43.7-53.3,35.8-131.9-17.5-175.6
					c-28.3-23.2-65.4-32.8-101.4-26.2c-1.6,0.3-3.2,0.6-4.8,1C942.2,2113.6,901.7,2164.2,901.7,2222.6z"/>
				<path id="Trazado_119737" class="st4" d="M901.7,2222.6c0,28.9,10,56.9,28.4,79.2c15.4,18.6,23.8,42,23.9,66.1v34.8
					c0.1,22.2,18,40.2,40.2,40.2h9.9c22.2-0.1,40.2-18,40.2-40.2v-34.9c0.1-24.2,8.6-47.6,24-66.2c43.7-53.3,35.9-131.9-17.4-175.6
					c-15-12.3-32.8-21-51.8-25.3C942.2,2113.6,901.7,2164.2,901.7,2222.6z"/>
				<path id="Trazado_119738" class="st5" d="M998.7,2332.5c2.1,2.2,7.5,5.8,9.8,7.3c5.1,3.4,14.6,5.5,16.5,30
					c-0.1,21.7,0,76.2,0,76.8l2.4,0c0-0.6-0.1-52.8,0-75.3h0c0,0,0-0.6,0-1.5c0-2.4,0-4.4,0-5.9c0.2-14,15.5-23.8,15.7-23.9l0,0
					c10.1-6.2,21.2-17.9,21.2-32.7c0-21.1-17.1-38.1-38.1-38.1c-21.1,0-38.1,17.1-38.1,38.1C988.1,2317.1,992,2325.4,998.7,2332.5z
					 M1000.3,2331.9c-6.3-6.6-9.8-15.4-9.8-24.5c0-19.7,16-34.3,35.7-34.3s35.7,14.6,35.7,34.3c0,14-9.7,26.1-19.4,31.8
					c-3,1.8-5.8,3.8-8.3,6.2c-4.5,4.3-7.4,9-8.6,13.8c-2.1-7.2-5.2-14.7-15.8-20.2C1006.4,2337.1,1003.1,2334.7,1000.3,2331.9
					L1000.3,2331.9z"/>
				<path id="Trazado_119739" class="st5" d="M1058.3,2443l-0.1,1.1l-1.8,13.6l-0.5,3.6v0l-0.5,3.6l-1.8,13.6l-0.5,3.6l0,0l-0.5,3.6
					l-0.3,2c-0.9,6.9-8.8,12.1-18.2,12.1h-21.2c-2.2,0-4.3-0.3-6.4-0.8h0c-1.7-0.5-3.4-1.2-4.9-2.1l-0.1-0.1
					c-1.2-0.7-2.2-1.5-3.2-2.4c-1.9-1.8-3.1-4.1-3.5-6.6l-0.8-5.3l-0.5-3.3v0l0-0.1v0l-0.5-3.2l-1.8-12.6l-0.5-3.3l0-0.1l-0.5-3.3
					l-2-13.6L1058.3,2443z"/>
				<g id="Grupo_57158">
					<path id="Trazado_119740" class="st6" d="M1049.9,2443h-12c-19.3,5.6-38.5,11.1-47.4,13.6l0.5,3.3l0,0.1l0.5,3.3
						c7.2-2,24.5-6.9,66.7-19.2l0.1-1.1L1049.9,2443z"/>
					<path id="Trazado_119741" class="st6" d="M993.8,2479L993.8,2479L993.8,2479L993.8,2479l0.5,3.4c8.3-2.3,25.5-7.3,61.2-17.6
						l0.5-3.6v0l0.5-3.6c-22.6,6.5-49.9,14.4-63.1,18.2L993.8,2479z"/>
					<path id="Trazado_119742" class="st6" d="M1001.7,2496.7l0.1,0.1c1.5,0.9,3.2,1.6,4.9,2.1h0c9.8-2.8,24.3-7,46-13.3l0.5-3.6
						l0,0l0.5-3.6c-19.3,5.6-41.5,12-55.2,15.9C999.5,2495.2,1000.6,2496,1001.7,2496.7z"/>
				</g>
			</g>
			<path id="Trazado_119743" class="st2" d="M950.5,2541.3c0,0-2.2,21,8.7,29.9s31,2.4,31,2.4s2.2-21-8.7-29.9
				S950.5,2541.3,950.5,2541.3z"/>
			<g id="Grupo_57160">
				
					<linearGradient id="Trazado_119744_00000003069368571597741850000000957267847898618526_" gradientUnits="userSpaceOnUse" x1="1017.398" y1="2499.6533" x2="1012.598" y2="2624.4534">
					<stop  offset="0" style="stop-color:#000000"/>
					<stop  offset="1" style="stop-color:#A0A603"/>
				</linearGradient>
				<path id="Trazado_119744" style="fill:url(#Trazado_119744_00000003069368571597741850000000957267847898618526_);" d="
					M998.6,2698.5c-0.4-2.1-7.5-50,10.7-103.5c17.5-51.4,7.8-95,7.7-95.4h12.8c0.3,1.9,1.2,44.6-12.5,103.2
					c-12.3,52.7,10.7,95.7,5.8,95.7H998.6z"/>
			</g>
		</g>
	</g>
	<g id="Grupo_57169">
		<path id="Rectángulo_16941" class="st4" d="M524.4,2818H703c4.4,0,7.9,3.6,7.9,7.9c0,0,0,0,0,0v8.4c0,4.4-3.6,7.9-7.9,7.9H524.4
			c-4.4,0-7.9-3.6-7.9-7.9v-8.4C516.5,2821.6,520,2818,524.4,2818C524.4,2818,524.4,2818,524.4,2818z"/>
		<g id="Grupo_57168">
			<g id="Grupo_57165">
				<g id="Grupo_57164">
					<path id="Trazado_119746" class="st8" d="M563.6,2842.3l-2.3,14.2l-33.4,205.6c-0.2,0.8-0.9,1.3-1.7,1.3
						c-1.7,0-3.1-1.2-2.9-2.6l26.5-210.6l1-8L563.6,2842.3z"/>
				</g>
				<path id="Trazado_119747" class="st9" d="M563.6,2842.3l-2.3,14.2c-1.6-5.7-11.5-6.2-11.5-6.2l1-8L563.6,2842.3z"/>
			</g>
			<g id="Grupo_57167">
				<g id="Grupo_57166">
					<path id="Trazado_119748" class="st8" d="M701.4,3063.4c-0.8,0.1-1.6-0.5-1.7-1.3l-33.4-205.6l-1.4-8.9l-0.9-5.3h12.8l1,8
						l0.8,6.2l25.7,204.3C704.4,3062.2,703.1,3063.4,701.4,3063.4z"/>
				</g>
				<path id="Trazado_119749" class="st9" d="M678.5,2856.5c-3.3-6.8-13.8-8.8-13.8-8.8v0l-0.9-5.3h12.8l1,8L678.5,2856.5z"/>
			</g>
		</g>
	</g>
	<g id="Grupo_57188">
		<path id="Trazado_119753" class="st1" d="M1081.2,2655c0,0-19.9,39.2-1.2,82l6-2.4c0,0-11.5-48.2-1.8-74.2
			S1081.2,2655,1081.2,2655z"/>
		<path id="Trazado_119758" class="st2" d="M959.5,2463.6c0,0-17.8-25.1-38-32.5c0,0,7.6,58.9-3.5,59.6s-3.7-66.2-3.7-66.2
			s-52.6-29.2-74-28.4c0,0,30.3,58.9,19.4,56.8s-45.2-61.8-45.2-61.8s-54.9-13.5-65.8,18.8s2.6,49.7,10.7,52.2s60.9,4.9,59.2,11.7
			s-38.1,15.7-57.6,8.3c0,0,18.8,55.4,47.7,54.4s38.9-18.4,56.8-18.7s30.6,5.2,21.5,9.5s-39.2-0.7-54.3,10.7s-27.2,18.3-0.8,25.3
			s66.3-0.9,85.2-13.5c0.1,0,15.5-1.3,27.6,70.2c4.7,27.5,1.1,68.4,1.1,68.4l9.8-1.5c5.4-80.1-23.5-146.7-23.5-146.7
			S981.3,2504,959.5,2463.6z"/>
		<g id="Grupo_57184">
			<path id="Trazado_119759" class="st2" d="M1119.9,2569.3c0,0-59.1-24.8-37.9-70c0,0,17.8-28.3,39.3-37.5c0,0-4.7,64.3,7.3,64.5
				s0.1-72,0.1-72s55.3-34.8,78.6-35.2c0,0-29.3,65.6-17.7,62.8s45.4-69.7,45.4-69.7s58.8-17.9,72.4,16.6s0.1,54-8.5,57.2
				s-65.8,8.9-63.4,16.2s42.2,14.7,62.9,5.6c0,0-17.1,61.2-48.5,61.8s-43.3-17.6-62.7-16.9s-32.9,7.5-22.7,11.6s42.4-3.1,59.5,8.4
				s30.6,18.2,2.3,27.4s-80.5,11.4-93.4-9.7L1119.9,2569.3z"/>
			<g id="Grupo_57183">
				<path id="Trazado_119760" class="st10" d="M1281.2,2442.9c0,0-149.9,68-161.3,126.3c0,0,3.6,25.1-8.7,55.8l1.3,11.1
					c0,0,12-39.6,20.3-45.8C1132.8,2590.3,1092.5,2545.4,1281.2,2442.9z"/>
				<path id="Trazado_119761" class="st11" d="M1111.2,2625c0,0-19.9,39.2-1.2,82l6-2.4c0,0-11.5-48.2-1.8-74.2
					S1111.2,2625,1111.2,2625z"/>
			</g>
		</g>
		<g id="Grupo_57185">
			<path id="Trazado_119762" class="st10" d="M894.6,2300.3c24.2,25.8,11.6,77,11.6,77s-51.9,9.4-76.1-16.4s-11.6-77-11.6-77
				S870.4,2274.5,894.6,2300.3z"/>
			<path id="Trazado_119763" class="st2" d="M894.6,2300.3c24.2,25.8,11.6,77,11.6,77l-87.7-93.3
				C818.6,2283.9,870.4,2274.5,894.6,2300.3z"/>
		</g>
		<g id="Grupo_57186">
			<path id="Trazado_119764" class="st10" d="M1173.3,2382.2c-12.6,14.6-41.2,10.7-41.2,10.7s-8.1-27.7,4.6-42.3
				s41.2-10.7,41.2-10.7S1186,2367.5,1173.3,2382.2z"/>
			<path id="Trazado_119765" class="st2" d="M1173.3,2382.2c-12.6,14.6-41.2,10.7-41.2,10.7l45.8-53
				C1177.9,2339.8,1186,2367.5,1173.3,2382.2z"/>
		</g>
		<g id="Grupo_57187">
			<path id="Trazado_119766" class="st12" d="M1249.1,2631.1l0,0.2l-5.7,88l-21.3,326.6H824.6l-23.4-322.2l-6.5-88.8l-0.3-3.9
				L1249.1,2631.1z"/>
			<path id="Trazado_119767" class="st13" d="M1249.1,2631.3l-5.7,88c-29.9-10.4-113.2-35.5-221.6-35.5c-136.9,0-220.6,40-220.6,40
				l-6.4-88.8L1249.1,2631.3z"/>
			<path id="Trazado_119768" class="st12" d="M1262.9,2677.6H780.1l-5.5-56.1h494.5L1262.9,2677.6z"/>
			<path id="Trazado_119769" class="st13" d="M1228.2,3063.4H816.1l-4.7-19.6h422.1L1228.2,3063.4z"/>
		</g>
	</g>
	<g id="Grupo_57190">
		<path id="Trazado_119770" class="st14" d="M1025.8,3055.9l0-3.4c0,0-15.6-17.3-20.4-26.2l-13.2-24.4l-17.3,4.3l21.9,31.1
			L1025.8,3055.9z"/>
		<path id="Trazado_119771" class="st15" d="M929.5,2609c3-12.4-1.4-18.2-5.3-21.3c-1.9-4.6-4-7.9-6.2-9.1c-4-2.3-8.8-2.5-12.1-2.3
			c0.7-0.6,1.6-1,2.6-1.2c-2.1-0.3-6.7,1.7-6.7,1.7c-28.8-11.1-33.3,31.3-32.7,41.2s0.5,21.4-14.5,29.2
			c-28.6,14.8,9.5,70.6,9.5,70.6c-0.7-8,36-50,55.2-62.5c4.7-6.9,6.3-19,6.4-20c-0.8,9.6-2.5,15-3.9,18.1
			C930.5,2645.3,931.8,2626,929.5,2609z"/>
		<path id="Trazado_119772" class="st14" d="M918.1,2655.9c0.1,0-9.3,4.9-16.3,3c-6.6-1.8-10.9-10.4-10.8-10.4
			c2.8-0.6,3.6-4.4,3.5-20.9l1.3,0.2l21.3,4.2c0,0-0.5,6.7-0.5,13C916.5,2650.3,916.9,2655.3,918.1,2655.9z"/>
		<path id="Trazado_119773" class="st16" d="M917.1,2632c0,0-0.5,6.7-0.5,13c-11.9-0.3-18.2-11.2-20.8-17.2L917.1,2632z"/>
		<path id="Trazado_119774" class="st5" d="M1001.9,3017.8l-11.3,0.3l-12.2,0.4c0,0-28.2-31.4-44-81.8c-0.4-1.2-0.8-2.4-1.2-3.6
			c-8.7-25.3-26.6-57-36.1-85.6c-1.5-4.6-2.9-8.9-4.1-12.9c-0.4-1.3-0.8-2.6-1.1-3.8c-7-24.2-9-40.1-10.9-57.1l68.3,0.5
			C949.4,2774.2,960.4,2890.2,1001.9,3017.8z"/>
		<path id="Trazado_119775" class="st8" d="M939.8,2734.9c-0.2,32.5,4.8,46.5,4.8,46.5s-29.3,14.9-64,3.9c-0.4-0.1-26.1-6-26.1-6
			c0.6-1.3,6.5-23.9,7.1-25.1c7.3-15.8,9.5-22.6,10.4-27.5c1.5-9,1.8-18.2,0.8-27.2c-1.4-14.5-4.2-28.8-8.4-42.8
			c9.5-2.2,18.3-5.9,28.2-9.6c2.3,2.8,9.2,5.8,15.2,5.6c6.9-0.2,9.2-3.1,8.8-6.4c7.4,4.1,13.3,8,13.3,8c6.3,10.9,19,21.5,19.9,38.2
			C950,2696.7,939.8,2734,939.8,2734.9z"/>
		<path id="Trazado_119776" class="st14" d="M921,2637.9c0,0-28.2,0.5-28.2-17.1s-3.7-29.3,14.3-30.4s21.5,5.7,22.9,11.5
			S928.4,2637.4,921,2637.9z"/>
		<path id="Trazado_119777" class="st15" d="M920,2590.1c0,0-7.7,20.6-19.6,23.6s-17-0.1-17-0.1c5.8-5.1,9.7-12.1,11-19.8
			C894.4,2593.8,914.2,2580.3,920,2590.1z"/>
		<path id="Trazado_119778" class="st15" d="M918.1,2591.7c0,0,5.8,4.6,7.2,9.1s2,13.7,4.7,13.4c0,0,5.8-14-0.7-21.9
			C922.3,2583.8,918.1,2591.7,918.1,2591.7z"/>
		<path id="Trazado_119779" class="st14" d="M899.9,3051.6c-1-5.3-2.8-14.4-2.8-14.4l0.4-32.4h-19.7l7.4,31
			c0.4,4.4-0.1,8.8-1.5,12.9c0,0-1.9,8.6,6.6,8.8S900.9,3056.9,899.9,3051.6z"/>
		<path id="Trazado_119780" class="st6" d="M883.7,3048.8c0,0-1.6,10.3-0.6,14.6c0,0,2.5,0.2,8.7,0.2c5.8,0,9-0.2,9-0.2
			s0.2-11.1-1.4-14.8C899.3,3048.6,893.3,3057.6,883.7,3048.8z"/>
		<path id="Trazado_119781" class="st14" d="M965.4,2757.5l13.3,40.6l-7.6,3l-22-35.9L965.4,2757.5z"/>
		<path id="Trazado_119782" class="st6" d="M1035.9,3063.4c0,0-17,0.3-19.9,0s-5.1-5.5-8.2-11.8c-1.3-2.6-4.1-4-7.1-4.7l0.1,16.5
			h-4.3L992,3046c-2.8-5.1-0.7-9.7,1.3-13.7c2.3,0,8.8,1.5,20.3,14.5c3.8,4.3,8,5.8,12.1,5.7c0.1,0,0.1,0.1,0.2,0.1
			C1035.6,3056.9,1035.9,3063.4,1035.9,3063.4z"/>
		<path id="Trazado_119783" class="st17" d="M968.7,2761.4c0,0-2.1-5.3-4.8-12s-9.6-71.8-14.2-81.5s-20.2-15.9-20.2-15.9l-13-5.6
			c0,0,16.3,40.3,16.8,48.4s1.9,133.3,1.9,133.3s-1,5.8,10.1,3.4s13.9-4.8,13.9-4.8s-4-29.3-6.4-58.1
			C960.8,2768.1,968.7,2761.4,968.7,2761.4z"/>
		<path id="Trazado_119784" class="st1" d="M990.6,3018.2l-12.2,0.4c0,0-28.2-31.4-44-81.8c-0.4-1.2-0.8-2.4-1.2-3.6
			c-8.7-25.3-26.6-57-36.1-85.6c-1.5-4.6-2.9-8.9-4.1-12.9c-0.4-1.3-0.8-2.6-1.1-3.8l10.1-7.6c0,0,30.2,48.9,39.6,95
			C949.7,2958.1,982.2,3006.2,990.6,3018.2z"/>
		<path id="Trazado_119785" class="st5" d="M903,2922.4c0.2,22.4-1,73.9-3.9,95.2h-10.8c-6,0-9-0.1-9-0.1
			c-7.3-37-12.5-67.7-16.3-94.1c-3.1-21.7-5.9-40.3-8-56.3c-2.1-16.1-3.6-29.6-4.2-41c-0.1-1.8-0.1-3.5-0.2-5.2s0-3.4,0-5l59-5.8
			C909,2849.4,902.9,2909.4,903,2922.4z"/>
		<path id="Trazado_119786" class="st1" d="M888.3,3017.5c-6,0-9-0.1-9-0.1c-7.3-37-12.5-67.7-16.3-94.1c-3.1-21.7-5.9-40.3-8-56.3
			c-2.1-16.1-3.6-29.6-4.2-41l21.7,12.7c0,0-13.8,4.9-8.6,41.8S881,3012.3,888.3,3017.5z"/>
		<path id="Trazado_119787" class="st17" d="M891.1,2825.7c0,0-4.2,15-18.5,13.1s-34.8-10.6-34.8-10.6s6.1-19.4,13.8-45
			c9.3-30.9,20.7-70.7,26.1-95.9c1.3-5.7,2.3-11.4,2.9-17.1l11.9-23.2c0,0,17.8,39.9,18.8,50S891.1,2825.7,891.1,2825.7z"/>
		<path id="Trazado_119788" class="st14" d="M876.8,2695.7l15.8-48.5c0,0-19.9,5.9-29.9,11c0,0-6.2,8-10.1,26.6c0,0-4.1,44.6,5,60.9
			c0,0,28.8,5.8,74.8-10.1V2725c0,0-50.4,2.6-60.7,3.8L876.8,2695.7z"/>
		<path id="Trazado_119789" class="st18" d="M890.5,2718.3c-0.6,16.3-4.5,48-38.7,64.9c-0.1,0-0.2,0.1-0.3,0.1
			c9.3-30.9,20.7-70.7,26.1-95.9C883.9,2696.9,890.8,2709.3,890.5,2718.3z"/>
		<path id="Trazado_119790" class="st17" d="M892.5,2647.2c0,0-29.2,2.1-36.2,17.7s-9.3,67.8-0.3,83.1c0,0,12.3,3.5,34.1-0.6
			c0.3,0,0.5-0.1,0.8-0.2c0,0,7-17,0.7-20.4c0,0-18.4,1-16.5-5.1S892.5,2647.2,892.5,2647.2z"/>
		<g id="Grupo_57189">
			<path id="Trazado_119791" class="st6" d="M965.7,2731.5l-0.9,2.8l-47.9-14.9c-0.4-0.5-0.5-1.1-0.3-1.7c0.1-0.6,0.6-1,1.2-1.1
				L965.7,2731.5z"/>
			<path id="Trazado_119792" class="st19" d="M969.2,2734.1l-3.5-2.6l-0.9,2.8L969.2,2734.1z"/>
		</g>
		<path id="Trazado_119793" class="st14" d="M976.8,2797c0,0,12.2,6.7,13.8,11.8s0.5,15.8-1.4,15.7s-4.8-11.5-6.4-12.3
			s-3.8-3.2-3.8-1.4s1.6,5,0.8,5.4s-3.4-4.5-5.1-5.4s-2.5-8.9-4.2-11S976.8,2797,976.8,2797z"/>
		<path id="Trazado_119794" class="st14" d="M932.4,2725c0,0,10.9-6.7,15.4-5.7s16.2,9.4,10.6,11.3s-10.1-0.1-12.3,1.2
			s-3.7,3.7-13.8,3.7S932.4,2725,932.4,2725z"/>
	</g>
	<g id="Grupo_57191">
		<path id="Trazado_119795" class="st16" d="M1403.9,2754.2c0,0-13.8,7.9-17.7,7.9s-19.1-2.9-23.3-0.8s-11.9,10.9-13.4,13.7
			c-2.6,5.1,10.4,2.9,16.6-1.5c0.9-0.6,2-0.9,3.1-0.6c3.2,0.7,9.8,1.9,13,0.7c4.3-1.6,26.9-3.4,26.9-3.4L1403.9,2754.2z"/>
		<path id="Trazado_119796" class="st20" d="M1509.3,2646.9c0,0-14.4,102.1-38.1,111.2c-11.7,4.5-63.6,14.7-78.9,15.8
			c0,0-3.8-3-2.8-15.5c0,0,54.3-19.9,62-30.8c11.5-16.1-7.1-65.9,7.3-81.1S1497.4,2624.8,1509.3,2646.9z"/>
		<path id="Trazado_119797" class="st6" d="M1504.4,2861.9c-4.2,7-8.9,13.7-14,20.1c-15.4,19.5-32.2,35.5-35.2,50.7
			c-0.7,3.3-1.6,6.6-2.7,9.7c-1.2,3.5-2.7,7.1-4.5,10.9c-6.5,14.2-16.3,30.2-26.1,44.7c-16.9,25-32.8,45.9-32.8,45.9l-29.1-1.2
			c1.2-2.9,13.9-37.5,30.9-79.8c6.9-17.2,14.2-35.4,21.3-53c0.9-2.4,1.9-4.7,2.8-7c2.2-5.4,4.3-10.7,6.4-15.9
			c16-39.7,28.7-71.3,28.7-71.3s63.8-24.2,70.5-8.5C1526,2820.2,1521.6,2832.8,1504.4,2861.9z"/>
		<path id="Trazado_119798" class="st6" d="M1388.2,3038.6c0,0-1.5,24.1-6.1,24.4c-0.6,0-23.6,0-23.6,0l-29.3-0.2
			c0,0,0.2-7.1,8.8-8.6s22.9-7.5,28.1-18.9C1371.5,3023.6,1388.2,3038.6,1388.2,3038.6z"/>
		<path id="Trazado_119799" class="st6" d="M1420,2972.3c0,0,20.3,13,18.3,17.3c-0.3,0.6-11.5,20.6-11.5,20.6l-14.5,25.5
			c0,0-6.1-3.6-3.2-11.8s4.6-23.7-2.8-33.7C1398.7,2979.5,1420,2972.3,1420,2972.3z"/>
		<path id="Trazado_119800" class="st5" d="M1404.8,2996.3c0,0,17.2,1.7,22.2-19.3c0,0-18.4-66.2-29.8-80.2
			c-0.5-0.6-0.4-1.4,0.3-2.1c8.6-9.6,103.5-29.2,116-48.6c3.7-5.7,6.4-11.9,8-18.5c2.8-11.8,0.6-19.9,0.6-19.9l-94.9-2.7
			c0,0-78.8,49.2-87.9,82.7C1333.8,2907.7,1404.8,2996.3,1404.8,2996.3z"/>
		<path id="Trazado_119801" class="st1" d="M1397.5,2894.7c8.6-9.6,103.5-29.2,116-48.6c3.7-5.7,6.4-11.9,8-18.5v-12l-40.3-6.3
			c0,0-11.4,35.2-45.3,48.4C1404.1,2870.1,1398.1,2892,1397.5,2894.7z"/>
		<path id="Trazado_119802" class="st14" d="M1453.2,2640.5c19.2,5,51-12.8,51-12.8s-12.4-8.3-16.9-26.5c-0.2-0.9-0.4-1.9-0.6-2.8
			c-2-0.4-5.8-1.2-9.9-2.1l-14.7,13.1c0.4,5,1.2,9.9,2.2,14.8c0.3,1.6,0.7,3.4,1.1,5.3C1460.6,2632.3,1456.5,2636.1,1453.2,2640.5z"
			/>
		<path id="Trazado_119803" class="st21" d="M1524.5,2720c-2.7,37,0.9,93.2-2.2,102.9c-2.7,8.4-33.4,3.4-45.6,0.6
			c-4.5-1-10-2.5-15.7-4.3c-15.8-4.9-33-11.9-34.9-17.1c-0.1-0.2-0.1-0.4-0.2-0.6c-0.2-0.7-0.1-1.5,0-2.2c0.6-2.6,3-5.5,3.3-12.1
			c0.3-7.3,0.3-15.9,0.5-25.2c0-1,0-2.2,0.1-3.2l0-0.4c0-0.2,0-0.4,0-0.6c0.3-10.3,0.8-21.2,1.4-32c0.4-6.8,0.9-13.5,1.4-19.9
			c1.4-16.6,3.2-31.3,5.7-40.6c4-15.2,12.9-25.1,20.9-32.3l5.8-5c7.2,1.4,14.6,0.4,21.2-2.8c7.5-3.6,10.1-6.1,11.4-5.2
			C1515.2,2633.7,1527.7,2674.8,1524.5,2720z"/>
		<path id="Trazado_119804" class="st20" d="M1460.9,2819.3c-15.8-4.9-33-11.9-34.9-17.1c-0.1-0.2-0.1-0.4-0.2-0.6
			c0-0.7,0-1.5,0-2.2c0.6-2.6,3-5.5,3.3-12.1c0.3-7.3,0.3-15.9,0.5-25.2c0-1,0-2.2,0.1-3.2l0-0.4c0-0.2,0-0.4,0-0.6l63.9-81.4
			C1493.8,2676.6,1536.8,2766.1,1460.9,2819.3z"/>
		<path id="Trazado_119805" class="st16" d="M1462.1,2609.3c0.4,5,1.2,9.9,2.2,14.8c14.3-4.6,20.8-17.6,23-23
			c-0.2-0.9-0.4-1.9-0.6-2.8c-2-0.4-5.8-1.2-9.9-2.1L1462.1,2609.3z"/>
		<path id="Trazado_119806" class="st14" d="M1460.2,2617.6c0,0,31.2-5.2,27.7-24.6s-1.9-33.1-22-30.6s-22.6,10.6-23,17.4
			S1451.9,2618.4,1460.2,2617.6z"/>
		<path id="Trazado_119807" class="st6" d="M1413.9,2778l-77.9,1.7l-21.7-66.8c-0.2-0.8-1.1-1.2-1.8-0.9c0,0,0,0,0,0l0,0
			c-0.8,0.2-1.2,1.1-0.9,1.8c0,0,0,0,0,0l22.6,69.4c0.2,0.8,1,1.3,1.7,1.2l78.2-1.7L1413.9,2778z"/>
		<path id="Trazado_119808" class="st14" d="M1412.4,2786.5c0,0-25.6,6.7-35.1,6s-17.6-5.3-18.8-7.6s-3.7-6.6,2.8-5.8
			s15.4,2.2,15.7,0.9s-5.3-1.1-5.3-1.1s-1.7-2.5,0.4-2.5s8.3-1.8,10.6-0.6s4.4,5.4,6.1,5.2s21.4-8.9,21.4-8.9L1412.4,2786.5z"/>
		<path id="Trazado_119809" class="st21" d="M1502.9,2651.1c0,0-3,103-25.6,114.7c-11.2,5.8-61.6,21.7-76.7,24.4c0,0-4.1-2.6-4.5-15
			c0,0,51.8-25.8,58.3-37.4c9.6-17.3-14.4-64.8-1.7-81.4S1488.7,2630.5,1502.9,2651.1z"/>
		<path id="Trazado_119810" class="st6" d="M1487.2,2601.1c0,0,0.4-6.7-3.7-10.5c0,0,1.4-6.7-1.2-7.8s-3.2,4.5-4.4,3.6
			s-6.6-5.1-8.9-11.2s-23.4,1.3-25.9,2.4s-10.4-3-11.9-6.3c2.3-1.8,4.5-3.9,6.4-6.2c2-2.6,15.8-20.5,35.2-15.4s22,14.3,20.9,22.2
			S1495.2,2598.5,1487.2,2601.1z"/>
	</g>
	<g id="Grupo_57197">
		<path id="Rectángulo_16942" class="st4" d="M1446.3,2852h139c5.1,0,9.3,4.2,9.3,9.3v22.6c0,5.1-4.2,9.3-9.3,9.3l0,0h-139
			c-5.1,0-9.3-4.2-9.3-9.3v-22.6C1437,2856.2,1441.1,2852,1446.3,2852C1446.3,2852,1446.3,2852,1446.3,2852z"/>
		<g id="Grupo_57196">
			<g id="Grupo_57193">
				<g id="Grupo_57192">
					<path id="Trazado_119811" class="st8" d="M1466.4,2893.3l-2.3,10.9l-33.4,158c-0.1,0.6-0.8,1-1.7,1c-1.7,0-3.1-0.9-2.9-2
						l26.5-161.8l1-6.1H1466.4z"/>
				</g>
				<path id="Trazado_119812" class="st9" d="M1466.4,2893.3l-2.3,10.9c-1.6-4.3-11.5-4.8-11.5-4.8l1-6.1L1466.4,2893.3z"/>
			</g>
			<g id="Grupo_57195">
				<g id="Grupo_57194">
					<path id="Trazado_119813" class="st8" d="M1604.2,3063.1c-0.9,0-1.7-0.4-1.7-1l-33.4-158l-1.4-6.8l-0.9-4.1h12.8l1,6.1l0.8,4.8
						l25.7,157C1607.2,3062.2,1605.9,3063.1,1604.2,3063.1z"/>
				</g>
				<path id="Trazado_119814" class="st9" d="M1581.3,2904.2c-3.3-5.2-13.8-6.8-13.8-6.8h0l-0.9-4.1h12.8l1,6.1L1581.3,2904.2z"/>
			</g>
		</g>
	</g>
	<g id="Grupo_57209">
		<g id="Grupo_57199">
			<g id="Grupo_57198">
				<path id="Trazado_119815" class="st8" d="M1297.2,3063c-1.4,0.4-2.9-0.5-3.2-1.9c0,0,0,0,0,0l-32-128.8l-6.2-24.9l-12.1-48.9
					l-18.5-74.5l17.4-1.1l10.2,50.5l14.7,72.6l7.4,36.6l23.9,118.1C1299,3061.7,1298.3,3062.8,1297.2,3063z"/>
			</g>
		</g>
		<path id="Trazado_119816" class="st9" d="M1252.8,2833.3c-0.2,0.5-0.2,0.7-0.2,0.7s-8.5,12.4-8.9,24.4l-18.5-74.5l17.4-1.1
			L1252.8,2833.3z"/>
		<g id="Grupo_57201">
			<g id="Grupo_57200">
				<path id="Trazado_119817" class="st8" d="M1237.6,2783.9l-30.6,123.4l-6.2,24.9l-32,128.8c-0.4,1.4-1.8,2.3-3.2,1.9c0,0,0,0,0,0
					c-1.1-0.3-1.8-1.4-1.6-2.5l23.9-118.1l7.4-36.6l24.9-123.1L1237.6,2783.9z"/>
			</g>
			<path id="Trazado_119818" class="st9" d="M1206.9,2907.4l-6.2,24.9c-7.3,0.5-12.9,10.2-12.9,10.2l7.4-36.6l11.6-1.2
				C1206.9,2904.7,1206.9,2905.7,1206.9,2907.4z"/>
		</g>
		<g id="Grupo_57203">
			<g id="Grupo_57202">
				<path id="Trazado_119819" class="st8" d="M1135.1,2783.9l-30.6,123.5l-6.2,24.9l-32,128.8c-0.4,1.4-1.8,2.3-3.2,1.9c0,0,0,0,0,0
					c-1.1-0.3-1.8-1.4-1.6-2.5l23.9-118.1l7.4-36.6l24.9-123.1L1135.1,2783.9z"/>
			</g>
			<path id="Trazado_119820" class="st9" d="M1104.5,2907.4l-6.2,24.9c-7.3,0.5-12.9,10.2-12.9,10.2l7.4-36.6l11.6-1.2
				C1104.4,2904.7,1104.4,2905.7,1104.5,2907.4z"/>
		</g>
		<path id="Trazado_119821" class="st9" d="M1213.4,2925.9h-147.5l52.3-193H1262L1213.4,2925.9z"/>
		<path id="Trazado_119822" class="st8" d="M1209,2925.9h-147.5l52.2-193h143.9L1209,2925.9z"/>
		<g id="Grupo_57205">
			<path id="Trazado_119823" class="st3" d="M1212,2802.3c-3.3,10.9-10.2,20.9-19,28.7c-7.6,6.7-13.3,15.2-15.9,23.9l-3.8,12.6
				c-2.4,8-11,14.5-19,14.5h-23.3c-8,0-12.5-6.5-10.1-14.5l3.9-12.6c2.7-8.7,2.1-17.2-1.4-23.9c-4-7.8-4.8-17.9-1.4-28.9
				c7.8-24.9,33.9-44.8,58.8-44.8c2.6,0,5.3,0.2,7.9,0.7c0.6,0.1,1.1,0.2,1.6,0.4C1209,2762.8,1218.6,2780.8,1212,2802.3z"/>
			<path id="Trazado_119824" class="st4" d="M1212,2802.3c-3.3,10.9-10.2,20.9-19,28.7c-7.6,6.7-13.3,15.2-15.9,23.9l-3.8,12.6
				c-2.4,8-11,14.5-19,14.5h-3.6c-8,0-12.5-6.5-10.1-14.5l3.9-12.6c2.7-8.7,2.1-17.2-1.4-23.9c-4-7.8-4.8-17.9-1.4-28.9
				c6.7-21.5,27.1-39.3,48.6-43.7C1209,2762.8,1218.6,2780.8,1212,2802.3z"/>
			<path id="Trazado_119825" class="st5" d="M1171.3,2833c2.3-7.6-2-13.8-9.6-13.8s-15.7,6.2-18,13.8c-1.3,4.4,0.3,9.2,4.1,11.8l0,0
				c0.1,0,4.5,3.6,3,8.6c-0.2,0.5-0.4,1.3-0.6,2.1c-0.1,0.3-0.2,0.5-0.2,0.5h0c-2.5,8.2-8.3,27-8.3,27.2h0.9
				c0.1-0.2,6.2-19.9,8.5-27.8c3.4-8.8,7.1-9.6,9.3-10.8c1.5-0.8,3-1.7,4.4-2.6C1167.8,2839.8,1170.1,2836.6,1171.3,2833z
				 M1160,2844.4c-3.4,1.5-6.2,4-7.9,7.3c0.1-1.8-0.5-3.6-1.6-5c-0.7-0.9-1.4-1.6-2.3-2.3c-3.5-2.7-4.9-7.3-3.5-11.5
				c2.4-7.2,9.1-12.1,16.7-12.4c7.1,0,11.3,5.3,9.1,12.4c-1.2,3.5-3.3,6.6-6.2,8.9C1162.9,2842.8,1161.5,2843.7,1160,2844.4
				L1160,2844.4z"/>
			<path id="Trazado_119826" class="st5" d="M1154.1,2882l-0.2,0.4l-2.1,4.9l-0.6,1.3v0l-0.6,1.3l-2.1,4.9l-0.6,1.3l0,0l-0.6,1.3
				l-0.3,0.7c-1.1,2.5-4.5,4.4-7.9,4.4h-7.7c-0.7,0-1.5-0.1-2.2-0.3l0,0c-0.6-0.2-1.1-0.4-1.6-0.7l0,0c-0.3-0.2-0.6-0.5-0.9-0.9
				c-0.5-0.7-0.7-1.6-0.5-2.4l0.3-1.9l0.2-1.2l0,0l0,0l0,0l0.2-1.2l0.7-4.5l0.2-1.2v0l0.2-1.2l0.8-4.9L1154.1,2882z"/>
			<g id="Grupo_57204">
				<path id="Trazado_119827" class="st6" d="M1151,2882h-4.3c-7.6,2-15.1,4-18.6,4.9l-0.2,1.2v0l-0.2,1.2c2.8-0.7,9.6-2.5,26.2-6.9
					l0.2-0.4L1151,2882z"/>
				<path id="Trazado_119828" class="st6" d="M1126.8,2895L1126.8,2895L1126.8,2895L1126.8,2895l-0.2,1.2c3.3-0.8,10-2.6,24.1-6.4
					l0.6-1.3v0l0.6-1.3c-8.9,2.4-19.6,5.2-24.8,6.6L1126.8,2895z"/>
				<path id="Trazado_119829" class="st6" d="M1127.7,2901.4L1127.7,2901.4c0.5,0.4,1,0.6,1.6,0.8l0,0c3.9-1,9.6-2.5,18.1-4.8
					l0.6-1.3l0,0l0.6-1.3c-7.6,2-16.3,4.3-21.7,5.8C1127,2900.9,1127.3,2901.2,1127.7,2901.4z"/>
			</g>
		</g>
		<g id="Grupo_57206">
			<path id="Trazado_119830" class="st6" d="M1205.7,2895.1h-1c-0.2,0-0.3-0.1-0.3-0.3c0-0.2,0.1-0.3,0.3-0.3h1
				c0.2,0,0.3,0.1,0.3,0.3C1206,2895,1205.8,2895.1,1205.7,2895.1z M1201.7,2895.1h-2.9c-0.2,0-0.3-0.1-0.3-0.3
				c0-0.2,0.1-0.3,0.3-0.3h2.9c0.2,0,0.3,0.1,0.3,0.3C1202,2895,1201.9,2895.1,1201.7,2895.1z M1195.8,2895.1h-2.9
				c-0.2,0-0.3-0.1-0.3-0.3c0-0.2,0.1-0.3,0.3-0.3h2.9c0.2,0,0.3,0.1,0.3,0.3C1196.1,2895,1196,2895.1,1195.8,2895.1L1195.8,2895.1z
				 M1190,2895.1h-2.9c-0.2,0-0.3-0.1-0.3-0.3c0-0.2,0.1-0.3,0.3-0.3l0,0h2.9c0.2,0,0.3,0.1,0.3,0.3
				C1190.2,2895,1190.1,2895.1,1190,2895.1z M1184.1,2895.1h-2.9c-0.2,0-0.3-0.1-0.3-0.3c0-0.2,0.1-0.3,0.3-0.3h2.9
				c0.2,0,0.3,0.1,0.3,0.3C1184.4,2895,1184.2,2895.1,1184.1,2895.1z M1178.2,2895.1h-2.9c-0.2,0-0.3-0.1-0.3-0.3
				c0-0.2,0.1-0.3,0.3-0.3h2.9c0.2,0,0.3,0.1,0.3,0.3C1178.5,2895,1178.3,2895.1,1178.2,2895.1z M1172.3,2895.1h-2.9
				c-0.2,0-0.3-0.1-0.3-0.3c0-0.2,0.1-0.3,0.3-0.3h2.9c0.2,0,0.3,0.1,0.3,0.3C1172.6,2895,1172.5,2895.1,1172.3,2895.1z
				 M1166.4,2895.1h-2.9c-0.2,0-0.3-0.1-0.3-0.3c0-0.2,0.1-0.3,0.3-0.3h2.9c0.2,0,0.3,0.1,0.3,0.3
				C1166.7,2895,1166.6,2895.1,1166.4,2895.1L1166.4,2895.1z M1160.5,2895.1h-2.9c-0.2,0-0.3-0.1-0.3-0.3c0-0.2,0.1-0.3,0.3-0.3l0,0
				h2.9c0.2,0,0.3,0.1,0.3,0.3C1160.8,2895,1160.7,2895.1,1160.5,2895.1z"/>
		</g>
		<g id="Grupo_57207">
			<path id="Trazado_119831" class="st6" d="M1197.4,2754.2c-0.2,0-0.3-0.1-0.3-0.3c0-0.1,0-0.1,0.1-0.2l2.1-2.1
				c0.1-0.1,0.3-0.1,0.4,0c0,0,0,0,0,0c0.1,0.1,0.1,0.3,0,0.4l-2.1,2.1C1197.5,2754.1,1197.5,2754.2,1197.4,2754.2z M1201.6,2750
				c-0.1,0-0.2,0-0.2-0.1c-0.1-0.1-0.1-0.3,0-0.4c0,0,0,0,0,0l2.1-2.1c0.1-0.1,0.3-0.1,0.4,0s0.1,0.3,0,0.4l0,0l-2.1,2.1
				C1201.7,2750,1201.6,2750,1201.6,2750z M1205.7,2745.8c-0.1,0-0.2,0-0.2-0.1c-0.1-0.1-0.1-0.3,0-0.4l0.3-0.3
				c0.1-0.1,0.1-0.1,0.2-0.1h2.5c0.2,0,0.3,0.1,0.3,0.3c0,0.2-0.1,0.3-0.3,0.3c0,0,0,0,0,0h-2.3l-0.3,0.3
				C1205.9,2745.8,1205.8,2745.8,1205.7,2745.8L1205.7,2745.8z M1241.5,2745.5h-0.6c-0.2,0-0.3-0.1-0.3-0.3c0-0.2,0.1-0.3,0.3-0.3
				h0.6c0.2,0,0.3,0.1,0.3,0.3C1241.8,2745.4,1241.6,2745.5,1241.5,2745.5z M1237.9,2745.5h-2.9c-0.2,0-0.3-0.1-0.3-0.3
				c0-0.2,0.1-0.3,0.3-0.3h2.9c0.2,0,0.3,0.1,0.3,0.3C1238.2,2745.4,1238.1,2745.5,1237.9,2745.5
				C1237.9,2745.5,1237.9,2745.5,1237.9,2745.5L1237.9,2745.5z M1232.1,2745.5h-2.9c-0.2,0-0.3-0.1-0.3-0.3c0-0.2,0.1-0.3,0.3-0.3
				h2.9c0.2,0,0.3,0.1,0.3,0.3C1232.4,2745.4,1232.2,2745.5,1232.1,2745.5C1232.1,2745.5,1232.1,2745.5,1232.1,2745.5z
				 M1226.2,2745.5h-2.9c-0.2,0-0.3-0.1-0.3-0.3c0-0.2,0.1-0.3,0.3-0.3h2.9c0.2,0,0.3,0.1,0.3,0.3
				C1226.5,2745.4,1226.3,2745.5,1226.2,2745.5C1226.2,2745.5,1226.2,2745.5,1226.2,2745.5z M1220.3,2745.5h-2.9
				c-0.2,0-0.3-0.1-0.3-0.3c0-0.2,0.1-0.3,0.3-0.3h2.9c0.2,0,0.3,0.1,0.3,0.3C1220.6,2745.4,1220.4,2745.5,1220.3,2745.5z
				 M1214.4,2745.5h-2.9c-0.2,0-0.3-0.1-0.3-0.3c0-0.2,0.1-0.3,0.3-0.3c0,0,0,0,0,0h2.9c0.2,0,0.3,0.1,0.3,0.3
				C1214.7,2745.4,1214.6,2745.5,1214.4,2745.5C1214.4,2745.5,1214.4,2745.5,1214.4,2745.5z"/>
		</g>
		<path id="Trazado_119832" class="st6" d="M1237.7,2752.1h-24.1c-0.7,0-1.3-0.6-1.3-1.3l0,0c0-0.7,0.6-1.3,1.3-1.3h24.1
			c0.7,0,1.3,0.6,1.3,1.3l0,0C1239,2751.5,1238.4,2752.1,1237.7,2752.1z"/>
		<path id="Trazado_119833" class="st6" d="M1202.2,2903.5H1178c-0.7,0-1.3-0.6-1.3-1.3l0,0c0-0.7,0.6-1.3,1.3-1.3h24.1
			c0.7,0,1.3,0.6,1.3,1.3l0,0C1203.4,2902.9,1202.9,2903.5,1202.2,2903.5z"/>
		<path id="Rectángulo_16943" class="st6" d="M1092.4,2842.2h18.3c0.7,0,1.3,0.6,1.3,1.3c0,0,0,0,0,0v0.1c0,0.7-0.6,1.3-1.3,1.3
			c0,0,0,0,0,0h-18.3c-0.7,0-1.3-0.6-1.3-1.3v-0.1C1091.1,2842.8,1091.7,2842.2,1092.4,2842.2
			C1092.4,2842.2,1092.4,2842.2,1092.4,2842.2z"/>
		<g id="Grupo_57208">
			<path id="Trazado_119834" class="st6" d="M1118.6,2848.8c-0.1,0-0.2-0.1-0.2-0.1l-1.6-2.5c-0.1-0.1,0-0.3,0.1-0.4
				c0.1-0.1,0.3,0,0.4,0.1l1.6,2.5c0.1,0.1,0,0.3-0.1,0.4C1118.7,2848.8,1118.6,2848.8,1118.6,2848.8L1118.6,2848.8z M1115.4,2843.9
				c-0.1,0-0.2-0.1-0.2-0.1l-1.6-2.5c-0.1-0.1,0-0.3,0.1-0.4c0.1-0.1,0.3,0,0.4,0.1l1.6,2.5c0.1,0.1,0,0.3-0.1,0.4
				C1115.5,2843.9,1115.4,2843.9,1115.4,2843.9L1115.4,2843.9z M1112.2,2838.9c-0.1,0-0.2,0-0.2-0.1h-2.6c-0.2,0-0.3-0.1-0.3-0.3
				c0-0.2,0.1-0.3,0.3-0.3h2.8c0.1,0,0.2,0.1,0.2,0.1l0.1,0.1c0.1,0.1,0.1,0.3-0.1,0.4c0,0,0,0,0,0
				C1112.3,2838.9,1112.3,2838.9,1112.2,2838.9L1112.2,2838.9z M1106.4,2838.8h-2.9c-0.2,0-0.3-0.1-0.3-0.3c0-0.2,0.1-0.3,0.3-0.3
				h2.9c0.2,0,0.3,0.1,0.3,0.3C1106.7,2838.7,1106.5,2838.8,1106.4,2838.8z M1100.5,2838.8h-2.9c-0.2,0-0.3-0.1-0.3-0.3
				c0-0.2,0.1-0.3,0.3-0.3h2.9c0.2,0,0.3,0.1,0.3,0.3C1100.8,2838.7,1100.6,2838.8,1100.5,2838.8z"/>
		</g>
	</g>
	<g id="Grupo_57210">
		<path id="Trazado_119835" class="st6" d="M645.6,2340.4c0-1.2-0.9-13.8-20.1-14.4c0,0,9.4,1.1,11.1,5.3c0,0-6.4-5.1-11.7-3.5
			s-8.3,10.8-8.3,13.8s2.9,12.7,6.2,13.6c1.3,0.3,2.7,0.3,4,0c-0.9,1.5-1.8,3-2.6,4.6c-7.7,15.7,0.2,31.1,6.7,29.4
			c4.2-1.1,5.3,6,5.3,6l40.4-32.7C676.6,2362.5,661.8,2331.8,645.6,2340.4z"/>
		<path id="Trazado_119836" class="st16" d="M744.7,2520.6c0,0,8-1.6,9.8,0s10.5,10.4,8.7,13.3s-10.8-2.4-12.6-2.9s-7-2.5-7-2.5
			L744.7,2520.6z"/>
		<path id="Trazado_119837" class="st5" d="M659.7,2803.6l-8.6,3.2c0,0-37.3-51.7-41.9-97.2c-0.9-7.8-0.5-15.6,1.2-23.3
			c0,0-0.4-2.1-1-5.8c-0.3-1.7-0.7-3.8-1.1-6.2c-1.2-6.9-2.9-16.4-4.8-27.3c-4.4-24.9-10.1-56.7-14.5-80.1l2.3-0.7l25-8.1l5.2-16.4
			l18.6-4.9c0,0,4.2,8.1,7.9,46.6c0.7,5,1.3,10.6,1.8,16.6c1.7,22.5,1.1,45-1.8,67.4c-0.9,6.7-1.9,13.6-3.3,20.7
			c-1,5.2-1.1,12.3-0.7,20.4C646,2745.8,659.7,2803.6,659.7,2803.6z"/>
		<path id="Trazado_119838" class="st1" d="M649.9,2600.2l-40.5,80.4c-0.3-1.7-0.7-3.8-1.1-6.2c-1.2-6.9-2.9-16.4-4.8-27.3
			c-4.4-24.9-10.1-56.7-14.5-80.1l2.3-0.7l25-8.1l5.2-16.4l18.6-4.9c0,0,4.2,8.1,7.9,46.6C648.8,2588.6,649.4,2594.2,649.9,2600.2z"
			/>
		<path id="Trazado_119839" class="st5" d="M632.1,2547.3l-0.9-8c-15.7,4.2-57.6-11.6-57.6-11.6s-15.2,13.4-13.2,45.4
			c1,15.6,2.8,82.1,4.6,101.7c0.7,7.1,1.3,12.2,1.5,14.2c0,0,0,0,0,0c0,0.6-0.1,1.2-0.5,1.7c-2.7,4.6-5,9.4-6.9,14.4
			c-18.2,48.6,2.8,108.5,2.8,108.5l5.5-2.2c0,0,12-66.6,21.7-96c1.2-3.9,2.7-7.7,4.7-11.3c4.2-6.8,8.2-18,11.7-31.3
			c6.7-25.1,12.2-57.7,15.8-82.9C621.8,2589.9,632.1,2547.3,632.1,2547.3z"/>
		<path id="Trazado_119840" class="st16" d="M744.7,2520.6l-1.2,7.9c0,0-0.5,0-1.4-0.1c-2.9-0.2-9.8-0.6-17.7-1.4
			c-11.8-1.2-25.8-3.2-31.4-6.7c-8.5-5.2-22.5-21.1-31.6-37c-0.2-0.4-0.5-0.8-0.7-1.2c-4.7-8.4-8.1-16.8-8.3-23.5
			c-0.2-3.6,0.2-7.2,1.1-10.7c0.9-3.5,2.6-6.8,4.8-9.6c0.2-0.4,0.6-0.8,0.9-1.1c1.7-2.1,3.8-3.9,6.2-5.3c1.6-0.6,3.2,0.1,5,2v0.1
			c1.8,2,3.3,4.2,4.5,6.6c0.1,0.1,0.1,0.1,0.1,0.2c0.3,0.6,0.7,1.2,1,1.9c0.1,0.1,0.2,0.3,0.3,0.5c0.7,1.5,1.4,3.1,2.1,4.7
			c8,17.4,16.5,43.8,23.6,51.6c3.1,3.4,17,10,28.1,14.9C738.2,2518,744.7,2520.6,744.7,2520.6z"/>
		<path id="Trazado_119841" class="st14" d="M662.1,2449.9c-5.7,2.6-11.8,4-18.1,4.2c-27,1.5-33.1-22.2-34.2-37.9
			c3-1,6.1-1.4,9.3-1.2c1.9,0.1,3.9,0.3,5.6,0.5c3.3-1.7,9.2-10.1,12.7-24.1l1.2,0.5l19.5,9.1c0,0-2.1,6.3-3.6,12.4
			c-1.2,4.7-2,9.3-1.3,10.6c1.5,0.6,2.5,1,2.5,1c0,0,0,0,0,0C658.4,2433.2,660.6,2441.5,662.1,2449.9z"/>
		<path id="Trazado_119842" class="st16" d="M657.9,2401.2c0,0-2.1,6.3-3.6,12.4c-11.4-3.2-14.8-15.1-15.9-21.5L657.9,2401.2z"/>
		<path id="Trazado_119843" class="st14" d="M660.3,2407.9c0,0-27.2-6.3-23-23.2s3.5-29.1,21-25.8s19.3,10.6,19.3,16.6
			S667.5,2409.1,660.3,2407.9z"/>
		<path id="Trazado_119844" class="st6" d="M679.1,2365.9c-2.9-6.1-6.4-5.8-8.5-4.7c-12.8-11.8-25.3-2.2-25.3-2.2
			c-3,7.1-8.4,12.9-15.3,16.4c0,0,4.2,4.3,16.3,4.2c3.7,0,7.4-1.7,10.8-4.1c-4.2,4.2-9,7.7-14.2,10.6c15.2-2.9,25.3-20.5,26.4-22.3
			c1.3,1.9,3.7,5.9,4,9.3c0.3,4.6-1.3,13.6,1.3,14C674.6,2387.1,683.5,2375.1,679.1,2365.9z"/>
		<path id="Trazado_119845" class="st21" d="M678.6,2447.9c-1-2.9-7.5-14.4-7.5-14.4h0c0,0-4.2-3.8-15.7-8.3c0,0,0,0,0,0
			c0.2,0.7,5.1,18.5,3.3,22.3c-1.8,3.9-36.3-8.6-38.2-11.4c-1.5-2.3-1.5-14.4-1.5-19.1c0-1.2,0-1.9,0-1.9s-12.9-1.7-20.1,1.2
			c1.8,4.2,3.1,8.6,3.9,13.1c0.1,0.7,0.2,1.3,0.2,2c0.1,1.4,0.2,2.7,0.1,4.1c-0.2,1.9-1.1,3.6-2.5,4.9c-1.6,1.6-3.3,3-5.2,4.3
			c-1.3,1-2.8,2-4.3,3.1l0,0c-0.1,8.1,0.4,21.3-1.1,35.5c-0.4,3.6-1.6,7-3.4,10.1c-0.7,1.2-1.6,2.4-2.5,3.4
			c-7.6,8.5-21.1,25.5-18.1,36.1c0.2,10,84.4,23.1,82.6,12.1c0,0,12.6-60.9,19.5-75.7c0.2-0.5,0.5-1.1,0.7-1.6
			c2.2-5.8,1.8-11.8,1.1-17.1C672.5,2448.8,675.5,2447.9,678.6,2447.9z"/>
		<path id="Trazado_119846" class="st20" d="M626,2524.3c-16.6-0.2-30.7-17.4-39.2-31.2c1.9-3.1,3.1-6.5,3.4-10.1
			c1.5-14.1,0.9-27.4,1.1-35.5l0,0c1.5-1.1,2.9-2.1,4.3-3.1c1.9-1.3,3.6-2.7,5.2-4.3C614.3,2463.2,648.5,2524.6,626,2524.3z"/>
		<path id="Trazado_119847" class="st14" d="M688.7,2533.4l-2.3,8.3c0,0-2.9-0.5-7.4-1.4c-1.4-0.3-2.1-0.5-2.1-0.5
			c-3.6-0.7-8-1.7-12.7-2.7h-0.1c-8.1-1.9-17.2-4.3-24.9-6.9c-4.6-1.5-9.1-3.5-13.2-5.9c-0.3-0.2-0.6-0.4-0.9-0.6
			c-7.6-5.5-16.6-21.8-23.6-39.2c-1-2.4-1.9-4.8-2.8-7.1c-3.1-8-5.5-16.3-7.4-24.7c-0.9-3.9-1.5-7.8-1.8-11.8
			c-0.1-1.1-0.1-2.2-0.1-3.3c0.1-18.8,9.5-21.4,9.5-21.4c0.2-0.1,0.4-0.1,0.6-0.2c1.6-0.3,3.3,0.8,5.1,3c2.2,2.7,4.5,7,6.9,12.3
			c3.7,8.4,7.6,19.2,11.2,30c2,5.9,4,11.8,5.9,17.3c1.1,3.3,2.2,6.4,3.2,9.3c1.5,4.4,3.3,8.6,5.5,12.7c1,1.8,4,4.4,8,7.2
			c8.3,5.8,16.9,11.1,25.7,16c3.6,2.1,7.1,4,9.9,5.5C685.7,2531.8,688.7,2533.4,688.7,2533.4z"/>
		<path id="Trazado_119848" class="st21" d="M611.6,2431.3c-12.5-3.4-22.1,6.3-22.1,6.3c0.2-18.8,9.5-21.4,9.5-21.4
			C602.7,2414.7,607.1,2421.2,611.6,2431.3z"/>
		<path id="Trazado_119849" class="st6" d="M593.7,2818h-43.2c0,0-1-6.6,1.2-11.6c2.2-4.8,5.6-7,4.7-12.8c2.7,2.8,7.2,6,13.5,5.2
			c0.8,1.2,4.9,7.9,7.5,9.7C580.2,2810.6,592.8,2809.8,593.7,2818z"/>
		<path id="Trazado_119850" class="st6" d="M686.5,2818h-43.2c0,0-1.6-6.9,1.2-11.6c2.5-4.2,1.5-6.5-0.3-9.9c2.3,1,4.8,1.5,7.3,1.4
			c2.3-0.3,4.5-1,6.4-2.3c1.9,2.1,9.8,11.1,12.3,12.9C673,2810.6,685.6,2809.8,686.5,2818z"/>
		<path id="Trazado_119851" class="st3" d="M702.2,2597.8l6,2.4l28.7,11.8c11.4,4.6,24.4-0.8,29.1-12.2l2.8-6.9
			c1.8-1.2,3.7-2.5,5.6-3.8c31.3-22.5,65.2-0.6,65.2-0.6c0.3-0.7,0.5-1.6,0.4-2.4c0-1.3-0.5-2.6-1.4-3.6
			c-21.1-14.7-51.2-16.4-64.4-16.4c-4.2,0-6.7,0.2-6.7,0.2l-0.8-0.3c5.4-18.1-1.2-36.6-15.8-42.6c-3.1-1.3-6.3-1.9-9.7-1.9
			c-6.5,0.1-12.8,2.2-18.1,6c-5.6,3.9-10.2,9.2-13.4,15.2c-3.4-0.9-6.9,0.8-8.3,4l-10.3,25.1C687.2,2582.1,692,2593.7,702.2,2597.8z
			 M743.8,2544.1l-1.6-0.7c-2.9-1.2-6.3,0.2-7.5,3.2l-11.7-4.8c-3.1-1.3-6.7-0.1-8.5,2.9l-1.7-0.7c3.2-6,7.8-11,13.5-14.7
			c5.3-3.5,11.6-5,17.9-4.3c1.9,0.2,3.8,0.7,5.6,1.5c13,5.3,18.8,22,14.1,38.5l-1.3-0.5c0.8-3.3-0.9-6.7-4-8l-11.7-4.8
			C748.1,2548.6,746.7,2545.3,743.8,2544.1L743.8,2544.1z"/>
		<path id="Trazado_119852" class="st4" d="M768.8,2593c1.8-1.2,3.7-2.5,5.6-3.8c31.3-22.5,65.2-0.6,65.2-0.6
			c0.3-0.7,0.5-1.6,0.4-2.4c-4.7-3.1-22.5-13.5-44.5-10C769.7,2580.4,765,2584,768.8,2593z"/>
		<path id="Trazado_119853" class="st4" d="M702.2,2597.8l6,2.4c-9-4.9,2.1-25.6,8.6-39.2s16.3-7.4,16.3-7.4
			c1.3-2.7,4.1-4.4,7.1-4.3c0.3-4.4,3.6-5.3,3.6-5.3l-1.6-0.7c-2.9-1.2-6.3,0.2-7.5,3.2l-11.7-4.8c-3.1-1.3-6.7-0.1-8.5,2.9
			l-1.7-0.7c3.2-6,7.8-11,13.5-14.7c5.3-3.5,11.6-5,17.9-4.3c-1.1-0.9-2.1-2-2.9-3.3c-6.5,0.1-12.8,2.2-18.1,6
			c-5.6,3.9-10.2,9.2-13.4,15.2c-3.4-0.9-6.9,0.8-8.3,4l-10.3,25.1C687.2,2582.1,692,2593.7,702.2,2597.8z"/>
		<path id="Trazado_119854" class="st14" d="M715.6,2541.4c-4.2,1.8-10,7.9-19.4,4.2c-5.6-2.1-11.4-3.9-17.2-5.3
			c-1.4-0.3-2.1-0.5-2.1-0.5l3.7-10.8c0.1,0.1,0.3,0.1,0.5,0.1c2.4,0.5,14.6,3.1,20.3,1.8c6.4-1.5,17.2,6.2,17.2,6.2
			S719.8,2539.7,715.6,2541.4z"/>
		<path id="Trazado_119855" class="st17" d="M833,2606.6c0-3.9,7.1-15.9,7.1-15.9s7.1,12,7.1,15.9c0,3.9-3.2,7.1-7.1,7.1
			S833,2610.5,833,2606.6L833,2606.6z"/>
	</g>
</g>
</svg>
