<?xml version="1.0" encoding="utf-8"?>
<!-- Generator: Adobe Illustrator 25.4.1, SVG Export Plug-In . SVG Version: 6.00 Build 0)  -->
<svg version="1.1" id="Capa_1" xmlns="http://www.w3.org/2000/svg" xmlns:xlink="http://www.w3.org/1999/xlink" x="0px" y="0px"
	 viewBox="0 0 1076 355.2" style="enable-background:new 0 0 1076 355.2;" xml:space="preserve">
<style type="text/css">
	.st0{fill:#F1F8AD;}
	.st1{opacity:0.2;fill:#529AD9;enable-background:new    ;}
	.st2{opacity:0.2;}
	.st3{clip-path:url(#SVGID_00000029038683865172646880000010537826024701664657_);}
	.st4{fill:#FFE736;}
	.st5{clip-path:url(#SVGID_00000109029178836056911350000004350037578420055708_);}
	.st6{fill:#FFF782;}
	.st7{fill:#FFC13B;}
	.st8{fill:#FFFFFF;}
	.st9{fill:#1D4505;}
	.st10{fill:#337809;}
	.st11{fill:#065C45;}
	.st12{fill:#043D2E;}
	.st13{fill:#0A916D;}
	.st14{fill:#0EC49A;}
	.st15{fill:#326E0E;}
	.st16{fill:#40960B;}
	.st17{fill:#84D10F;}
	.st18{fill:#BAFF8F;}
	.st19{fill:#097280;}
	.st20{fill:#D9EDBB;}
	.st21{opacity:0.29;}
	.st22{clip-path:url(#SVGID_00000064313099842198793690000003820114299191025078_);}
	.st23{clip-path:url(#SVGID_00000123413229900414969800000002563482622792277436_);}
	.st24{fill:#5F960B;}
	.st25{clip-path:url(#SVGID_00000026159360189360995090000007599004470763947650_);}
	.st26{clip-path:url(#SVGID_00000035509432505038404070000003348843031759657372_);}
	.st27{clip-path:url(#SVGID_00000031912831641021440280000001483726074017467523_);}
	.st28{fill:#10DBAC;}
	.st29{clip-path:url(#SVGID_00000093178099668783363560000007374408333051342265_);}
	.st30{clip-path:url(#SVGID_00000101821935974596946090000007141687905137578940_);}
	.st31{clip-path:url(#SVGID_00000148623409340640105260000006948386230063101621_);}
	.st32{opacity:0.17;}
	.st33{clip-path:url(#SVGID_00000114033964196846083660000017280285735287720327_);}
	.st34{fill:#153004;}
	.st35{clip-path:url(#SVGID_00000001655879000478216850000004299719030305859742_);}
	.st36{clip-path:url(#SVGID_00000008828459502444315970000014569856107513037497_);}
	.st37{opacity:0.16;}
	.st38{clip-path:url(#SVGID_00000144312349460199055130000008277334843687692479_);}
	.st39{fill:#07453F;}
	.st40{clip-path:url(#SVGID_00000075848337510825222200000017287791662625659266_);}
	.st41{clip-path:url(#SVGID_00000135651816849997192160000014891359014715311039_);}
	.st42{clip-path:url(#SVGID_00000029026070584422204640000014813752326946738329_);}
	.st43{clip-path:url(#SVGID_00000162354591252053521400000005693027728140196257_);}
	.st44{clip-path:url(#SVGID_00000173139740488025588450000011746609729047012756_);}
	.st45{fill:#529AD9;}
</style>
<g id="Grupo_57139" transform="translate(-422 -1480)">
	<path id="Rectángulo_16945" class="st0" d="M559,1480h939l0,0v167c0,11-9,20-20,20H559c-11,0-20-9-20-20v-147
		C539,1489,548,1480,559,1480z"/>
	<path id="Rectángulo_16941" class="st1" d="M438,1765h1044c8.8,0,16,7.2,16,16v55l0,0H422l0,0v-55C422,1772.2,429.2,1765,438,1765
		z"/>
	<g id="Grupo_57138" transform="translate(114.781 305.193)">
		<g id="Grupo_57137" transform="translate(562.375 1218.807)">
			<g id="Grupo_55537" transform="translate(196.408)" class="st2">
				<g id="Grupo_55536">
					<g>
						<defs>
							<rect id="SVGID_1_" x="0" y="0" width="184.3" height="184.3"/>
						</defs>
						<clipPath id="SVGID_00000108310470852615680380000005909525269471768463_">
							<use xlink:href="#SVGID_1_"  style="overflow:visible;"/>
						</clipPath>
						<g id="Grupo_55535" style="clip-path:url(#SVGID_00000108310470852615680380000005909525269471768463_);">
							<path id="Trazado_109449" class="st4" d="M92.1,184.3C41.3,184.3,0,143,0,92.1C0,41.3,41.3,0,92.1,0
								c50.9,0,92.1,41.3,92.1,92.1C184.2,143,143,184.2,92.1,184.3"/>
						</g>
					</g>
				</g>
			</g>
			<g id="Grupo_55540" transform="translate(214.201 17.794)" class="st2">
				<g id="Grupo_55539">
					<g>
						<defs>
							<rect id="SVGID_00000127736766753402914920000013750065039369010073_" x="0" y="0" width="148.7" height="148.7"/>
						</defs>
						<clipPath id="SVGID_00000088829539406812723090000017260041648851412613_">
							<use xlink:href="#SVGID_00000127736766753402914920000013750065039369010073_"  style="overflow:visible;"/>
						</clipPath>
						<g id="Grupo_55538" style="clip-path:url(#SVGID_00000088829539406812723090000017260041648851412613_);">
							<path id="Trazado_109450" class="st4" d="M74.4,148.7C33.3,148.7,0,115.4,0,74.3S33.3,0,74.4,0s74.4,33.3,74.4,74.4
								c0,0,0,0,0,0C148.7,115.4,115.4,148.7,74.4,148.7"/>
						</g>
					</g>
				</g>
			</g>
			<path id="Trazado_109451" class="st6" d="M345.2,92.1c0,31.3-25.4,56.7-56.7,56.7s-56.7-25.4-56.7-56.7s25.4-56.7,56.7-56.7l0,0
				C319.8,35.5,345.2,60.9,345.2,92.1"/>
			<path id="Trazado_109452" class="st4" d="M349.1,92.1c0,31.3-25.4,56.7-56.7,56.7s-56.7-25.4-56.7-56.7
				c0-31.3,25.4-56.7,56.7-56.7C323.8,35.5,349.1,60.9,349.1,92.1"/>
			<path id="Trazado_109453" class="st7" d="M349.1,92.1c0,31.3-25.4,56.7-56.7,56.7c-15,0-29.4-6-40-16.6
				c26.1,17.3,61.2,10.1,78.5-15.9c14.9-22.5,11.9-52.3-7.2-71.4C339.6,55.4,349.1,73.1,349.1,92.1"/>
			<path id="Trazado_109454" class="st8" d="M119.1,57h85.3c0,0-9.5-0.5-12.4-3.3s-6.4-4.4-13.6-5.4c-4.6-0.7-5.5-10.9-10.6-13.9
				s-10.8-0.9-17.2,8.3s-14.1,6.6-17.2,6.6C124.8,49.3,119.1,57,119.1,57"/>
			<path id="Trazado_109456" class="st9" d="M233.5,129.2v32.7h13.4v122.9h-13.4l0,0h-15.7V129.2H233.5z"/>
			<rect id="Rectángulo_14857" x="297.9" y="126.9" class="st10" width="40.4" height="157.9"/>
			<rect id="Rectángulo_14858" x="292.5" y="166" class="st9" width="32.6" height="118.8"/>
			<path id="Trazado_109457" class="st11" d="M409.4,156.8v-45.3h14.4v45.3h10.6v128h-35.6v-128L409.4,156.8z"/>
			<rect id="Rectángulo_14859" x="392" y="173.4" class="st12" width="27.8" height="111.4"/>
			<rect id="Rectángulo_14860" x="270.9" y="95.8" class="st13" width="35.3" height="189"/>
			<rect id="Rectángulo_14861" x="254.3" y="95.8" class="st14" width="35.3" height="189"/>
			<rect id="Rectángulo_14862" x="258.1" y="106.5" class="st8" width="25.6" height="3.6"/>
			<rect id="Rectángulo_14863" x="258.1" y="119.2" class="st8" width="25.6" height="3.6"/>
			<rect id="Rectángulo_14864" x="258.1" y="131.9" class="st8" width="25.6" height="3.6"/>
			<rect id="Rectángulo_14865" x="258.1" y="144.5" class="st8" width="25.6" height="3.6"/>
			<rect id="Rectángulo_14866" x="258.1" y="157.2" class="st8" width="25.6" height="3.6"/>
			<rect id="Rectángulo_14867" x="258.1" y="169.8" class="st8" width="25.6" height="3.6"/>
			<rect id="Rectángulo_14868" x="258.1" y="182.5" class="st8" width="25.6" height="3.6"/>
			<rect id="Rectángulo_14869" x="258.1" y="195.2" class="st8" width="25.6" height="3.6"/>
			<rect id="Rectángulo_14870" x="258.1" y="207.8" class="st8" width="25.6" height="3.6"/>
			<rect id="Rectángulo_14871" x="258.1" y="220.5" class="st8" width="25.6" height="3.6"/>
			<rect id="Rectángulo_14872" x="258.1" y="233.1" class="st8" width="25.6" height="3.6"/>
			<rect id="Rectángulo_14873" x="258.1" y="245.8" class="st8" width="25.6" height="3.6"/>
			<rect id="Rectángulo_14874" x="258.1" y="258.5" class="st8" width="25.6" height="3.6"/>
			<rect id="Rectángulo_14875" x="258.1" y="271.1" class="st8" width="25.6" height="3.6"/>
			<rect id="Rectángulo_14876" x="353.8" y="141.3" class="st15" width="42.7" height="143.4"/>
			<rect id="Rectángulo_14877" x="333.8" y="141.3" class="st16" width="42.7" height="143.4"/>
			<rect id="Rectángulo_14878" x="338.3" y="149.5" class="st8" width="31" height="2.7"/>
			<rect id="Rectángulo_14879" x="338.3" y="159.1" class="st8" width="31" height="2.7"/>
			<rect id="Rectángulo_14880" x="338.3" y="168.7" class="st8" width="31" height="2.7"/>
			<rect id="Rectángulo_14881" x="338.3" y="178.3" class="st8" width="31" height="2.7"/>
			<rect id="Rectángulo_14882" x="338.3" y="187.9" class="st8" width="31" height="2.7"/>
			<rect id="Rectángulo_14883" x="338.3" y="197.5" class="st8" width="31" height="2.7"/>
			<rect id="Rectángulo_14884" x="338.3" y="207.1" class="st8" width="31" height="2.7"/>
			<rect id="Rectángulo_14885" x="338.3" y="216.8" class="st8" width="31" height="2.7"/>
			<rect id="Rectángulo_14886" x="338.3" y="226.4" class="st8" width="31" height="2.7"/>
			<rect id="Rectángulo_14887" x="338.3" y="236" class="st8" width="31" height="2.7"/>
			<rect id="Rectángulo_14888" x="338.3" y="245.6" class="st8" width="31" height="2.7"/>
			<rect id="Rectángulo_14889" x="338.3" y="255.2" class="st8" width="31" height="2.7"/>
			<rect id="Rectángulo_14890" x="338.3" y="264.8" class="st8" width="31" height="2.7"/>
			<rect id="Rectángulo_14891" x="338.3" y="274.4" class="st8" width="31" height="2.7"/>
			<rect id="Rectángulo_14892" x="358.2" y="54.1" class="st15" width="25.9" height="87.2"/>
			<rect id="Rectángulo_14893" x="346" y="54.1" class="st16" width="25.9" height="87.2"/>
			<rect id="Rectángulo_14894" x="348.8" y="59.1" class="st8" width="18.8" height="1.7"/>
			<rect id="Rectángulo_14895" x="348.8" y="64.9" class="st8" width="18.8" height="1.7"/>
			<rect id="Rectángulo_14896" x="348.8" y="70.7" class="st8" width="18.8" height="1.7"/>
			<rect id="Rectángulo_14897" x="348.8" y="76.6" class="st8" width="18.8" height="1.7"/>
			<rect id="Rectángulo_14898" x="348.8" y="82.4" class="st8" width="18.8" height="1.7"/>
			<rect id="Rectángulo_14899" x="348.8" y="88.3" class="st8" width="18.8" height="1.7"/>
			<rect id="Rectángulo_14900" x="348.8" y="94.1" class="st8" width="18.8" height="1.7"/>
			<rect id="Rectángulo_14901" x="348.8" y="100" class="st8" width="18.8" height="1.7"/>
			<rect id="Rectángulo_14902" x="348.8" y="105.8" class="st8" width="18.8" height="1.7"/>
			<rect id="Rectángulo_14903" x="348.8" y="111.7" class="st8" width="18.8" height="1.7"/>
			<rect id="Rectángulo_14904" x="348.8" y="117.5" class="st8" width="18.8" height="1.7"/>
			<rect id="Rectángulo_14905" x="348.8" y="123.3" class="st8" width="18.8" height="1.7"/>
			<rect id="Rectángulo_14906" x="348.8" y="129.2" class="st8" width="18.8" height="1.7"/>
			<rect id="Rectángulo_14907" x="348.8" y="135" class="st8" width="18.8" height="1.7"/>
			<path id="Trazado_109458" class="st10" d="M157,119.4l61.6,24.1v141.4H157V137h-9.2v-17.7H157z"/>
			<path id="Trazado_109459" class="st17" d="M147.8,284.8h61.6V143.4l-61.6-24.1V284.8z"/>
			<rect id="Rectángulo_14908" x="199.5" y="156.4" class="st8" width="4.9" height="9.6"/>
			<rect id="Rectángulo_14909" x="199.5" y="230.8" class="st8" width="4.9" height="9.6"/>
			<rect id="Rectángulo_14910" x="199.5" y="243.2" class="st8" width="4.9" height="9.6"/>
			<rect id="Rectángulo_14911" x="199.5" y="193.6" class="st8" width="4.9" height="9.6"/>
			<rect id="Rectángulo_14912" x="199.5" y="218.4" class="st8" width="4.9" height="9.6"/>
			<rect id="Rectángulo_14913" x="199.5" y="255.6" class="st8" width="4.9" height="9.6"/>
			<rect id="Rectángulo_14914" x="199.5" y="181.2" class="st8" width="4.9" height="9.6"/>
			<rect id="Rectángulo_14915" x="199.5" y="168.8" class="st8" width="4.9" height="9.6"/>
			<rect id="Rectángulo_14916" x="199.5" y="206" class="st8" width="4.9" height="9.6"/>
			<rect id="Rectángulo_14917" x="187.9" y="218.4" class="st8" width="4.9" height="9.6"/>
			<rect id="Rectángulo_14918" x="187.9" y="243.2" class="st8" width="4.9" height="9.6"/>
			<rect id="Rectángulo_14919" x="187.9" y="156.4" class="st8" width="4.9" height="9.6"/>
			<rect id="Rectángulo_14920" x="187.9" y="255.6" class="st8" width="4.9" height="9.6"/>
			<rect id="Rectángulo_14921" x="187.9" y="230.8" class="st8" width="4.9" height="9.6"/>
			<rect id="Rectángulo_14922" x="187.9" y="206" class="st8" width="4.9" height="9.6"/>
			<rect id="Rectángulo_14923" x="187.9" y="181.2" class="st8" width="4.9" height="9.6"/>
			<rect id="Rectángulo_14924" x="187.9" y="168.8" class="st8" width="4.9" height="9.6"/>
			<rect id="Rectángulo_14925" x="187.9" y="193.6" class="st8" width="4.9" height="9.6"/>
			<rect id="Rectángulo_14926" x="176.2" y="206" class="st8" width="4.9" height="9.6"/>
			<rect id="Rectángulo_14927" x="176.2" y="255.6" class="st8" width="4.9" height="9.6"/>
			<rect id="Rectángulo_14928" x="176.2" y="156.4" class="st8" width="4.9" height="9.6"/>
			<rect id="Rectángulo_14929" x="176.2" y="193.6" class="st8" width="4.9" height="9.6"/>
			<rect id="Rectángulo_14930" x="176.2" y="181.2" class="st8" width="4.9" height="9.6"/>
			<rect id="Rectángulo_14931" x="176.2" y="243.2" class="st8" width="4.9" height="9.6"/>
			<rect id="Rectángulo_14932" x="176.2" y="168.8" class="st8" width="4.9" height="9.6"/>
			<rect id="Rectángulo_14933" x="176.2" y="218.4" class="st8" width="4.9" height="9.6"/>
			<rect id="Rectángulo_14934" x="176.2" y="230.8" class="st8" width="4.9" height="9.6"/>
			<rect id="Rectángulo_14935" x="164.5" y="230.8" class="st8" width="4.9" height="9.6"/>
			<rect id="Rectángulo_14936" x="164.5" y="193.6" class="st8" width="4.9" height="9.6"/>
			<rect id="Rectángulo_14937" x="164.5" y="243.2" class="st8" width="4.9" height="9.6"/>
			<rect id="Rectángulo_14938" x="164.5" y="181.2" class="st8" width="4.9" height="9.6"/>
			<rect id="Rectángulo_14939" x="164.5" y="168.8" class="st8" width="4.9" height="9.6"/>
			<rect id="Rectángulo_14940" x="164.5" y="156.4" class="st8" width="4.9" height="9.6"/>
			<rect id="Rectángulo_14941" x="164.5" y="255.6" class="st8" width="4.9" height="9.6"/>
			<rect id="Rectángulo_14942" x="164.5" y="206" class="st8" width="4.9" height="9.6"/>
			<rect id="Rectángulo_14943" x="164.5" y="218.4" class="st8" width="4.9" height="9.6"/>
			<rect id="Rectángulo_14944" x="152.8" y="168.8" class="st8" width="4.9" height="9.6"/>
			<rect id="Rectángulo_14945" x="152.8" y="193.6" class="st8" width="4.9" height="9.6"/>
			<rect id="Rectángulo_14946" x="152.8" y="206" class="st8" width="4.9" height="9.6"/>
			<rect id="Rectángulo_14947" x="152.8" y="156.4" class="st8" width="4.9" height="9.6"/>
			<rect id="Rectángulo_14948" x="152.8" y="181.2" class="st8" width="4.9" height="9.6"/>
			<rect id="Rectángulo_14949" x="152.8" y="255.6" class="st8" width="4.9" height="9.6"/>
			<rect id="Rectángulo_14950" x="152.8" y="218.4" class="st8" width="4.9" height="9.6"/>
			<rect id="Rectángulo_14951" x="152.8" y="243.2" class="st8" width="4.9" height="9.6"/>
			<rect id="Rectángulo_14952" x="152.8" y="230.8" class="st8" width="4.9" height="9.6"/>
			<path id="Trazado_109460" class="st17" d="M436.9,284.8h49.9V114.7l-49.9,30.1V284.8z"/>
			<rect id="Rectángulo_14953" x="486.8" y="114.7" class="st10" width="17.3" height="170.1"/>
			<path id="Trazado_109461" class="st8" d="M475.7,129.5v148.1h4.9v-151L475.7,129.5z"/>
			<path id="Trazado_109462" class="st8" d="M467.6,134.5v143.1h4.9V131.5L467.6,134.5z"/>
			<path id="Trazado_109463" class="st8" d="M459.4,139.4v138.2h4.9V136.4L459.4,139.4z"/>
			<path id="Trazado_109464" class="st8" d="M451.3,144.3v133.3h4.9V141.3L451.3,144.3z"/>
			<path id="Trazado_109465" class="st8" d="M443.2,149.2v128.4h4.9V146.2L443.2,149.2z"/>
			<path id="Trazado_109466" class="st18" d="M63.8,284.8h44.1V134.5l-44.1,26.6V284.8z"/>
			<rect id="Rectángulo_14954" x="107.9" y="134.5" class="st16" width="15.3" height="150.3"/>
			<path id="Trazado_109467" class="st19" d="M98.1,147.6v130.9h4.3V145L98.1,147.6z"/>
			<path id="Trazado_109468" class="st19" d="M90.9,151.9v126.5h4.3V149.3L90.9,151.9z"/>
			<path id="Trazado_109469" class="st19" d="M83.7,156.2v122.2H88V153.6L83.7,156.2z"/>
			<path id="Trazado_109470" class="st19" d="M76.5,160.6v117.9h4.3V158L76.5,160.6z"/>
			<path id="Trazado_109471" class="st19" d="M69.3,164.9v113.5h4.3V162.3L69.3,164.9z"/>
			<path id="Trazado_109472" class="st16" d="M256.3,196.6v-6.8h10.8l36.2,22.6v72.4h-72.4v-72.4L256.3,196.6z"/>
			<rect id="Rectángulo_14955" x="292.5" y="212.4" class="st10" width="10.8" height="72.4"/>
			<path id="Trazado_109473" class="st18" d="M256.3,189.8l36.2,22.6v72.4h-72.4v-72.4L256.3,189.8z"/>
			<rect id="Rectángulo_14956" x="274.6" y="222.4" class="st19" width="11.2" height="4.3"/>
			<rect id="Rectángulo_14957" x="258.7" y="222.4" class="st19" width="11.2" height="4.3"/>
			<rect id="Rectángulo_14958" x="242.7" y="222.4" class="st19" width="11.2" height="4.3"/>
			<rect id="Rectángulo_14959" x="226.7" y="222.4" class="st19" width="11.2" height="4.3"/>
			<rect id="Rectángulo_14960" x="274.6" y="231" class="st19" width="11.2" height="4.3"/>
			<rect id="Rectángulo_14961" x="258.7" y="231" class="st19" width="11.2" height="4.3"/>
			<rect id="Rectángulo_14962" x="242.7" y="231" class="st19" width="11.2" height="4.3"/>
			<rect id="Rectángulo_14963" x="226.7" y="231" class="st19" width="11.2" height="4.3"/>
			<rect id="Rectángulo_14964" x="274.6" y="239.5" class="st19" width="11.2" height="4.3"/>
			<rect id="Rectángulo_14965" x="258.7" y="239.5" class="st19" width="11.2" height="4.3"/>
			<rect id="Rectángulo_14966" x="242.7" y="239.5" class="st19" width="11.2" height="4.3"/>
			<rect id="Rectángulo_14967" x="226.7" y="239.5" class="st19" width="11.2" height="4.3"/>
			<rect id="Rectángulo_14968" x="274.6" y="248.1" class="st19" width="11.2" height="4.3"/>
			<rect id="Rectángulo_14969" x="258.7" y="248.1" class="st19" width="11.2" height="4.3"/>
			<rect id="Rectángulo_14970" x="242.7" y="248.1" class="st19" width="11.2" height="4.3"/>
			<rect id="Rectángulo_14971" x="226.7" y="248.1" class="st19" width="11.2" height="4.3"/>
			<rect id="Rectángulo_14972" x="274.6" y="256.7" class="st19" width="11.2" height="4.3"/>
			<rect id="Rectángulo_14973" x="258.7" y="256.7" class="st19" width="11.2" height="4.3"/>
			<rect id="Rectángulo_14974" x="242.7" y="256.7" class="st19" width="11.2" height="4.3"/>
			<rect id="Rectángulo_14975" x="226.7" y="256.7" class="st19" width="11.2" height="4.3"/>
			<rect id="Rectángulo_14976" x="274.6" y="265.3" class="st19" width="11.2" height="4.3"/>
			<rect id="Rectángulo_14977" x="258.7" y="265.3" class="st19" width="11.2" height="4.3"/>
			<rect id="Rectángulo_14978" x="242.7" y="265.3" class="st19" width="11.2" height="4.3"/>
			<rect id="Rectángulo_14979" x="226.7" y="265.3" class="st19" width="11.2" height="4.3"/>
			<rect id="Rectángulo_14980" x="274.6" y="273.9" class="st19" width="11.2" height="4.3"/>
			<rect id="Rectángulo_14981" x="258.7" y="273.9" class="st19" width="11.2" height="4.3"/>
			<rect id="Rectángulo_14982" x="242.7" y="273.9" class="st19" width="11.2" height="4.3"/>
			<rect id="Rectángulo_14983" x="226.7" y="273.9" class="st19" width="11.2" height="4.3"/>
			<path id="Trazado_109474" class="st8" d="M303.5,208.7h123.3V185H319.6L303.5,208.7z"/>
			<path id="Trazado_109475" class="st13" d="M426.7,185l16.2,23.7v76h-32.3v-76L426.7,185z"/>
			<rect id="Rectángulo_14984" x="303.5" y="208.7" class="st20" width="107.1" height="76"/>
			<rect id="Rectángulo_14985" x="392" y="216.5" class="st13" width="9" height="18.4"/>
			<rect id="Rectángulo_14986" x="372.3" y="216.5" class="st13" width="9" height="18.4"/>
			<rect id="Rectángulo_14987" x="352.5" y="216.5" class="st13" width="9" height="18.4"/>
			<rect id="Rectángulo_14988" x="332.8" y="216.5" class="st13" width="9" height="18.4"/>
			<rect id="Rectángulo_14989" x="313.1" y="216.5" class="st13" width="9" height="18.4"/>
			<rect id="Rectángulo_14990" x="344.9" y="254.2" class="st11" width="24.3" height="30.6"/>
			<rect id="Rectángulo_14991" x="317.7" y="259.3" class="st13" width="14.8" height="18.3"/>
			<rect id="Rectángulo_14992" x="380.2" y="259.3" class="st13" width="14.8" height="18.3"/>
			<path id="Trazado_109476" class="st14" d="M89.1,197.8v0.1h130v-0.1l-19-24.2h-90.4L89.1,197.8z"/>
			<rect id="Rectángulo_14993" x="130.2" y="197.9" class="st13" width="89" height="86.8"/>
			<path id="Trazado_109477" class="st8" d="M89.1,197.8v87h41.1v-87l-20.5-24.2L89.1,197.8z"/>
			<rect id="Rectángulo_14994" x="97.1" y="244.3" class="st19" width="22.7" height="40.5"/>
			<rect id="Rectángulo_14995" x="109.4" y="228.4" class="st19" width="10.4" height="8.4"/>
			<rect id="Rectángulo_14996" x="97.1" y="228.4" class="st19" width="10.4" height="8.4"/>
			<rect id="Rectángulo_14997" x="194.1" y="222.8" class="st14" width="16.6" height="13.3"/>
			<rect id="Rectángulo_14998" x="168.8" y="222.8" class="st14" width="16.6" height="13.3"/>
			<rect id="Rectángulo_14999" x="143.5" y="222.8" class="st14" width="16.6" height="13.3"/>
			<rect id="Rectángulo_15000" x="194.1" y="244.3" class="st14" width="16.6" height="13.3"/>
			<rect id="Rectángulo_15001" x="168.8" y="244.3" class="st14" width="16.6" height="13.3"/>
			<rect id="Rectángulo_15002" x="143.5" y="244.3" class="st14" width="16.6" height="13.3"/>
			<rect id="Rectángulo_15003" x="194.1" y="265.8" class="st14" width="16.6" height="13.3"/>
			<rect id="Rectángulo_15004" x="168.8" y="265.8" class="st14" width="16.6" height="13.3"/>
			<rect id="Rectángulo_15005" x="143.5" y="265.8" class="st14" width="16.6" height="13.3"/>
			<rect id="Rectángulo_15006" x="221.1" y="263.6" class="st17" width="2.8" height="21.2"/>
			<path id="Trazado_109478" class="st17" d="M214.2,246.9c-1-4.6,1.9-9.1,6.5-10.1c4.6-1,9.1,1.9,10.1,6.5c0.2,1.1,0.2,2.3,0,3.5
				c-0.5,2.5,0.1,5.1,1.7,7.1c4.3,5.5,3.3,13.5-2.2,17.8s-13.5,3.3-17.8-2.2c-3.6-4.6-3.6-11.1,0-15.7
				C214.1,252,214.8,249.4,214.2,246.9"/>
			<g id="Grupo_55543" transform="translate(213.041 237.077)" class="st21">
				<g id="Grupo_55542">
					<g>
						<defs>
							<rect id="SVGID_00000132789024239933753230000010338005271164924856_" x="0" y="0" width="22.2" height="37.4"/>
						</defs>
						<clipPath id="SVGID_00000121243906285921521560000011693567371838828938_">
							<use xlink:href="#SVGID_00000132789024239933753230000010338005271164924856_"  style="overflow:visible;"/>
						</clipPath>
						<g id="Grupo_55541" style="clip-path:url(#SVGID_00000121243906285921521560000011693567371838828938_);">
							<path id="Trazado_109479" class="st12" d="M0,33.1c4.6,5.3,12.7,5.8,17.9,1.1c5-4.4,5.7-12.1,1.6-17.4
								c-1.6-2-2.2-4.6-1.7-7.1C17.9,9.2,18,8.6,18,8.1c0-3.7-2.4-6.9-5.9-8.1c1,1.4,1.6,3.1,1.6,4.9c0,0.6-0.1,1.1-0.2,1.7
								c-0.5,2.5,0.1,5.1,1.7,7.1c1.7,2.2,2.7,4.9,2.7,7.7c0,6.9-5.5,12.6-12.4,12.8C3.6,34.3,1.7,33.9,0,33.1"/>
						</g>
					</g>
				</g>
			</g>
			<rect id="Rectángulo_15008" x="390.1" y="271" class="st14" width="1.8" height="13.7"/>
			<path id="Trazado_109480" class="st14" d="M385.6,260.2c-0.6-3,1.3-5.9,4.2-6.5c0.4-0.1,0.8-0.1,1.2-0.1c3,0.1,5.5,2.6,5.4,5.6
				c0,0.3,0,0.7-0.1,1c-0.3,1.6,0.1,3.3,1.1,4.6c2.8,3.6,2.2,8.8-1.4,11.5s-8.8,2.2-11.5-1.4c-2.3-3-2.3-7.2,0-10.2
				C385.6,263.5,386,261.9,385.6,260.2"/>
			<g id="Grupo_55546" transform="translate(384.866 253.872)" class="st21">
				<g id="Grupo_55545">
					<g>
						<defs>
							<rect id="SVGID_00000039824116030739136130000014993256534454794632_" x="0" y="0" width="14.4" height="24.2"/>
						</defs>
						<clipPath id="SVGID_00000125572152341183400840000009447238509744072350_">
							<use xlink:href="#SVGID_00000039824116030739136130000014993256534454794632_"  style="overflow:visible;"/>
						</clipPath>
						<g id="Grupo_55544" style="clip-path:url(#SVGID_00000125572152341183400840000009447238509744072350_);">
							<path id="Trazado_109481" class="st12" d="M0,21.5c3,3.4,8.2,3.7,11.6,0.7c3.3-2.9,3.7-7.8,1-11.2c-1-1.3-1.4-3-1.1-4.6
								c0.1-0.4,0.1-0.7,0.1-1.1c0-2.4-1.5-4.5-3.8-5.2c0.7,0.9,1,2,1,3.2c0,0.4,0,0.7-0.1,1.1C8.4,5.9,8.8,7.6,9.9,8.9
								c1.1,1.4,1.7,3.2,1.7,5c0,4.5-3.5,8.2-8,8.3C2.3,22.2,1.1,22,0,21.5"/>
						</g>
					</g>
				</g>
			</g>
			<rect id="Rectángulo_15010" x="243.6" y="271.7" class="st24" width="1.7" height="13"/>
			<path id="Trazado_109482" class="st24" d="M239.4,261.5c-0.1-0.4-0.1-0.8-0.1-1.2c0.1-2.9,2.5-5.1,5.4-5.1s5.1,2.5,5.1,5.4
				c0,0.3,0,0.6-0.1,0.9c-0.3,1.5,0.1,3.2,1,4.4c2.7,3.4,2,8.3-1.3,11c-3.4,2.7-8.3,2-11-1.3c-2.2-2.8-2.2-6.8,0-9.6
				C239.3,264.6,239.7,263,239.4,261.5"/>
			<g id="Grupo_55549" transform="translate(238.642 255.45)" class="st21">
				<g id="Grupo_55548">
					<g>
						<defs>
							<rect id="SVGID_00000036936518372734482090000010903817767272425663_" x="0" y="0" width="13.7" height="23"/>
						</defs>
						<clipPath id="SVGID_00000004506342060332756760000001919288320442639498_">
							<use xlink:href="#SVGID_00000036936518372734482090000010903817767272425663_"  style="overflow:visible;"/>
						</clipPath>
						<g id="Grupo_55547" style="clip-path:url(#SVGID_00000004506342060332756760000001919288320442639498_);">
							<path id="Trazado_109483" class="st12" d="M0,20.4c2.8,3.3,7.7,3.8,11,1c3.3-2.8,3.8-7.7,1-11l0,0c-1-1.2-1.4-2.8-1-4.4
								c0.1-0.3,0.1-0.7,0.1-1c0-2.3-1.5-4.3-3.6-5c0.6,0.9,1,1.9,1,3c0,0.4,0,0.7-0.1,1C8,5.6,8.4,7.2,9.4,8.4
								c1.1,1.4,1.6,3,1.6,4.8c0,4.3-3.4,7.7-7.6,7.9C2.2,21.1,1.1,20.8,0,20.4"/>
						</g>
					</g>
				</g>
			</g>
			<rect id="Rectángulo_15012" x="296.5" y="270.5" class="st17" width="3.6" height="14.3"/>
			<path id="Trazado_109484" class="st17" d="M287.5,260.7c0,9.7,4.8,17.5,10.8,17.5s10.8-7.8,10.8-17.5s-4.8-17.5-10.8-17.5
				S287.5,251,287.5,260.7"/>
			<g id="Grupo_55552" transform="translate(289.03 248.069)" class="st21">
				<g id="Grupo_55551">
					<g>
						<defs>
							<rect id="SVGID_00000147942133627839244200000005715799289160971426_" x="0" y="0" width="20.1" height="30.1"/>
						</defs>
						<clipPath id="SVGID_00000133503638972227593120000014454296592097041552_">
							<use xlink:href="#SVGID_00000147942133627839244200000005715799289160971426_"  style="overflow:visible;"/>
						</clipPath>
						<g id="Grupo_55550" style="clip-path:url(#SVGID_00000133503638972227593120000014454296592097041552_);">
							<path id="Trazado_109485" class="st12" d="M0,21.6c1.9,5.1,5.3,8.5,9.3,8.5c6,0,10.8-7.8,10.8-17.5C20.2,8.2,19,3.8,16.7,0
								c1,2.9,1.6,5.9,1.5,9c0,9.7-4.8,17.5-10.8,17.5C4.6,26.5,1.9,24.7,0,21.6"/>
						</g>
					</g>
				</g>
			</g>
			<rect id="Rectángulo_15014" x="363.4" y="270.5" class="st14" width="3.6" height="14.3"/>
			<path id="Trazado_109486" class="st14" d="M354.4,260.7c0,9.7,4.8,17.5,10.8,17.5s10.8-7.8,10.8-17.5s-4.8-17.5-10.8-17.5
				S354.4,251,354.4,260.7"/>
			<g id="Grupo_55555" transform="translate(355.901 248.069)" class="st21">
				<g id="Grupo_55554">
					<g>
						<defs>
							<rect id="SVGID_00000092418519358110956530000001077907663002237321_" x="0" y="0" width="20.1" height="30.1"/>
						</defs>
						<clipPath id="SVGID_00000134235598091739154420000002610495709965141910_">
							<use xlink:href="#SVGID_00000092418519358110956530000001077907663002237321_"  style="overflow:visible;"/>
						</clipPath>
						<g id="Grupo_55553" style="clip-path:url(#SVGID_00000134235598091739154420000002610495709965141910_);">
							<path id="Trazado_109487" class="st12" d="M0,21.6c1.9,5.1,5.3,8.5,9.3,8.5c6,0,10.8-7.8,10.8-17.5C20.1,8.2,19,3.8,16.7,0
								c1,2.9,1.6,5.9,1.5,9c0,9.7-4.8,17.5-10.8,17.5C4.6,26.5,1.9,24.7,0,21.6"/>
						</g>
					</g>
				</g>
			</g>
			<rect id="Rectángulo_15016" x="150" y="270.5" class="st28" width="3.6" height="14.3"/>
			<path id="Trazado_109488" class="st28" d="M141,260.7c0,9.7,4.8,17.5,10.8,17.5s10.8-7.8,10.8-17.5s-4.8-17.5-10.8-17.5
				S141,251,141,260.7"/>
			<g id="Grupo_55558" transform="translate(142.529 248.069)" class="st21">
				<g id="Grupo_55557">
					<g>
						<defs>
							<rect id="SVGID_00000094616800981953248810000004320566287176545925_" x="0" y="0" width="20.1" height="30.1"/>
						</defs>
						<clipPath id="SVGID_00000055682937034371324950000001659031479587218055_">
							<use xlink:href="#SVGID_00000094616800981953248810000004320566287176545925_"  style="overflow:visible;"/>
						</clipPath>
						<g id="Grupo_55556" style="clip-path:url(#SVGID_00000055682937034371324950000001659031479587218055_);">
							<path id="Trazado_109489" class="st12" d="M0,21.6c1.9,5.1,5.3,8.5,9.3,8.5c6,0,10.8-7.8,10.8-17.5C20.2,8.2,19,3.8,16.7,0
								c1,2.9,1.6,5.9,1.5,9c0,9.7-4.8,17.5-10.8,17.5C4.6,26.5,1.9,24.7,0,21.6"/>
						</g>
					</g>
				</g>
			</g>
			<rect id="Rectángulo_15018" x="129.3" y="274.7" class="st28" width="2.5" height="10.1"/>
			<path id="Trazado_109490" class="st28" d="M123,267.9c0,6.8,3.4,12.3,7.6,12.3s7.6-5.5,7.6-12.3s-3.4-12.3-7.6-12.3
				S123,261.1,123,267.9"/>
			<g id="Grupo_55561" transform="translate(124.034 259.007)" class="st21">
				<g id="Grupo_55560">
					<g>
						<defs>
							<rect id="SVGID_00000019637785187980921170000005929191456465083018_" x="0" y="0" width="14.1" height="21.2"/>
						</defs>
						<clipPath id="SVGID_00000018223719801735481130000009203482453587680169_">
							<use xlink:href="#SVGID_00000019637785187980921170000005929191456465083018_"  style="overflow:visible;"/>
						</clipPath>
						<g id="Grupo_55559" style="clip-path:url(#SVGID_00000018223719801735481130000009203482453587680169_);">
							<path id="Trazado_109491" class="st12" d="M0,15.2c1.3,3.6,3.7,6,6.5,6c4.2,0,7.6-5.5,7.6-12.3c0.1-3.1-0.7-6.2-2.3-8.9
								c0.7,2,1.1,4.2,1.1,6.3c0,6.8-3.4,12.3-7.6,12.3C3.2,18.6,1.4,17.3,0,15.2"/>
						</g>
					</g>
				</g>
			</g>
			<rect id="Rectángulo_15020" x="317" y="275.5" class="st24" width="2.3" height="9.2"/>
			<path id="Trazado_109492" class="st24" d="M311.1,269.2c0,6.2,3.1,11.3,7,11.3s7-5.1,7-11.3s-3.1-11.3-7-11.3
				S311.1,263,311.1,269.2"/>
			<g id="Grupo_55564" transform="translate(312.137 261.079)" class="st21">
				<g id="Grupo_55563">
					<g>
						<defs>
							<rect id="SVGID_00000128445473472538668870000017851763557548762023_" x="0" y="0" width="12.9" height="19.5"/>
						</defs>
						<clipPath id="SVGID_00000090274254621233508710000004841461548342281867_">
							<use xlink:href="#SVGID_00000128445473472538668870000017851763557548762023_"  style="overflow:visible;"/>
						</clipPath>
						<g id="Grupo_55562" style="clip-path:url(#SVGID_00000090274254621233508710000004841461548342281867_);">
							<path id="Trazado_109493" class="st12" d="M0,14c1.2,3.3,3.4,5.5,6,5.5c3.9,0,7-5.1,7-11.3C13,5.3,12.3,2.5,10.8,0
								c0.7,1.9,1,3.8,1,5.8c0,6.2-3.1,11.3-7,11.3C3,17.1,1.2,15.9,0,14"/>
						</g>
					</g>
				</g>
			</g>
			<path id="Trazado_109494" class="st17" d="M69.5,278.7v6.1H47.4v-6.1h6l2.8-193.4h4.6l2.7,193.4H69.5z"/>
			<g id="Grupo_55567" transform="translate(58.487 85.275)" class="st32">
				<g id="Grupo_55566">
					<g>
						<defs>
							<rect id="SVGID_00000027584105426835756970000003142152255788401292_" x="0" y="0" width="11" height="199.5"/>
						</defs>
						<clipPath id="SVGID_00000067916393680090490470000012636689268993025725_">
							<use xlink:href="#SVGID_00000027584105426835756970000003142152255788401292_"  style="overflow:visible;"/>
						</clipPath>
						<g id="Grupo_55565" style="clip-path:url(#SVGID_00000067916393680090490470000012636689268993025725_);">
							<path id="Trazado_109495" class="st34" d="M11,193.4v6.1H0V0h2.3L5,193.4L11,193.4z"/>
						</g>
					</g>
				</g>
			</g>
			<path id="Trazado_109496" class="st16" d="M70.3,93.6H59V81.8h11.3c3.2,0,5.9,2.6,5.9,5.9C76.2,91,73.6,93.6,70.3,93.6"/>
			<path id="Trazado_109497" class="st8" d="M60.9,21.3v68.6l-1.6-1.6l-1.2-1.2l-1.6-1.7l-0.8-0.8L48.3,77l8.5-55.7
				c0.9-0.1,1.7-0.1,2.6-0.1C59.9,21.3,60.4,21.3,60.9,21.3L60.9,21.3z"/>
			<path id="Trazado_109498" class="st20" d="M60.9,21.3v68.6l-1.6-1.6l-1.2-1.2l-1.6-1.7l-0.8-0.8l3.6-63.3
				C59.9,21.3,60.4,21.3,60.9,21.3L60.9,21.3z"/>
			<path id="Trazado_109499" class="st8" d="M58.5,85.8l-1.2,3.6l-0.7,2.2l-0.7,1.9l-0.3,0.8l-2.4,7L16.7,117
				c-0.1-0.6-0.3-1.2-0.4-1.8c-0.1-0.5-0.2-1.1-0.3-1.6l38.6-25.3l1.4-0.9l0.7-0.5L58.5,85.8z"/>
			<path id="Trazado_109500" class="st20" d="M58.5,85.8l-1.2,3.6l-0.7,2.2l-0.7,1.9l-0.2,0.1l-39.3,21.6c-0.1-0.5-0.2-1.1-0.3-1.6
				l38.6-25.3l1.4-0.9l0.7-0.5L58.5,85.8z"/>
			<path id="Trazado_109501" class="st8" d="M106.1,116.3c-0.1,0.8-0.2,1.6-0.3,2.3c-0.1,0.6-0.2,1.1-0.3,1.7L62.7,92.1L61.1,91
				l-0.8-0.5l-1.9-1.2l1.4-1l0.9-0.6l1.4-0.9l1-0.6l5.6-3.7L106.1,116.3z"/>
			<path id="Trazado_109502" class="st20" d="M105.8,118.7c-0.1,0.6-0.2,1.1-0.3,1.7L62.7,92.1L61.1,91l-0.8-0.5l-1.9-1.2l1.4-1
				l0.9-0.6l1.4-0.9l1-0.6L105.8,118.7z"/>
			<path id="Trazado_109503" class="st17" d="M65.1,87.7c0,4-2.8,7.2-6.3,7.2s-6.3-3.2-6.3-7.2s2.8-7.2,6.3-7.2S65.1,83.7,65.1,87.7
				"/>
			<path id="Trazado_109504" class="st16" d="M64.1,87.7c0,4-2.8,7.2-6.3,7.2s-6.3-3.2-6.3-7.2s2.8-7.2,6.3-7.2S64.1,83.7,64.1,87.7
				"/>
			<path id="Trazado_109505" class="st17" d="M61.8,87.7c0,2.5-1.8,4.5-3.9,4.5s-3.9-2-3.9-4.5s1.8-4.5,3.9-4.5S61.8,85.2,61.8,87.7
				"/>
			<path id="Trazado_109506" class="st17" d="M36.9,280.6v4.2H21.6v-4.2h4.1l1.9-133.2h3.1l1.9,133.2H36.9z"/>
			<g id="Grupo_55570" transform="translate(29.254 147.353)" class="st32">
				<g id="Grupo_55569">
					<g>
						<defs>
							<rect id="SVGID_00000096760109907648351450000002666036038646579587_" x="0" y="0" width="7.6" height="137.4"/>
						</defs>
						<clipPath id="SVGID_00000100365575623757324620000004988229051220685757_">
							<use xlink:href="#SVGID_00000096760109907648351450000002666036038646579587_"  style="overflow:visible;"/>
						</clipPath>
						<g id="Grupo_55568" style="clip-path:url(#SVGID_00000100365575623757324620000004988229051220685757_);">
							<path id="Trazado_109507" class="st34" d="M7.6,133.2v4.2H0V0h1.6l1.9,133.2L7.6,133.2z"/>
						</g>
					</g>
				</g>
			</g>
			<path id="Trazado_109508" class="st16" d="M37.4,153.1h-7.8V145h7.8c2.2,0.1,4,1.9,3.9,4.2C41.3,151.3,39.6,153,37.4,153.1"/>
			<path id="Trazado_109509" class="st8" d="M30.9,103.3v47.2l-1.1-1.1l-0.8-0.8l-1.1-1.2l-0.5-0.6l-5.1-5.2l5.8-38.3
				c0.6,0,1.2-0.1,1.8-0.1C30.2,103.3,30.6,103.3,30.9,103.3L30.9,103.3z"/>
			<path id="Trazado_109510" class="st20" d="M30.9,103.3v47.2l-1.1-1.1l-0.8-0.8l-1.1-1.2l-0.5-0.6l2.5-43.6
				C30.2,103.3,30.6,103.3,30.9,103.3L30.9,103.3z"/>
			<path id="Trazado_109511" class="st8" d="M29.3,147.7l-0.9,2.5l-0.5,1.5l-0.5,1.3l-0.2,0.6l-1.7,4.8L0.5,169.2
				c-0.1-0.4-0.2-0.8-0.3-1.3c-0.1-0.4-0.1-0.7-0.2-1.1l26.6-17.4l1-0.7l0.5-0.3L29.3,147.7z"/>
			<path id="Trazado_109512" class="st20" d="M29.3,147.7l-0.9,2.5l-0.5,1.5l-0.5,1.3l-0.1,0.1L0.2,168c-0.1-0.4-0.1-0.7-0.2-1.1
				l26.6-17.4l1-0.7l0.5-0.3L29.3,147.7z"/>
			<path id="Trazado_109513" class="st8" d="M62.1,168.7c-0.1,0.5-0.1,1.1-0.2,1.6c-0.1,0.4-0.1,0.8-0.2,1.2L32.2,152l-1.1-0.7
				l-0.6-0.4l-1.3-0.8l1-0.7l0.6-0.4l1-0.6l0.7-0.4l3.8-2.5L62.1,168.7z"/>
			<path id="Trazado_109514" class="st20" d="M61.9,170.3c-0.1,0.4-0.1,0.8-0.2,1.2L32.2,152l-1.1-0.7l-0.6-0.4l-1.3-0.8l1-0.7
				l0.6-0.4l1-0.6l0.7-0.4L61.9,170.3z"/>
			<path id="Trazado_109515" class="st17" d="M33.8,149c0,2.8-1.9,5-4.3,5s-4.3-2.2-4.3-5s1.9-5,4.3-5S33.8,146.3,33.8,149"/>
			<path id="Trazado_109516" class="st16" d="M33.1,149c0,2.8-1.9,5-4.3,5s-4.3-2.2-4.3-5s1.9-5,4.3-5S33.1,146.3,33.1,149"/>
			<path id="Trazado_109517" class="st17" d="M31.5,149c0.1,1.6-1.1,3-2.7,3.1c-1.7-0.2-2.9-1.8-2.7-3.5c0.2-1.4,1.3-2.5,2.7-2.7
				C30.4,146,31.6,147.4,31.5,149"/>
			<path id="Trazado_109518" class="st17" d="M540.8,280.6v4.2h-15.2v-4.2h4.1l1.9-133.2h3.2l1.9,133.2H540.8z"/>
			<g id="Grupo_55573" transform="translate(533.157 147.353)" class="st32">
				<g id="Grupo_55572">
					<g>
						<defs>
							<rect id="SVGID_00000007414013374304392110000016303281673126227381_" x="0" y="0" width="7.6" height="137.4"/>
						</defs>
						<clipPath id="SVGID_00000101823444740760935690000013613222484872404628_">
							<use xlink:href="#SVGID_00000007414013374304392110000016303281673126227381_"  style="overflow:visible;"/>
						</clipPath>
						<g id="Grupo_55571" style="clip-path:url(#SVGID_00000101823444740760935690000013613222484872404628_);">
							<path id="Trazado_109519" class="st34" d="M7.6,133.2v4.2H0V0h1.6l1.9,133.2L7.6,133.2z"/>
						</g>
					</g>
				</g>
			</g>
			<path id="Trazado_109520" class="st16" d="M541.3,153.1h-7.8V145h7.8c2.2,0.1,4,1.9,3.9,4.2C545.2,151.3,543.5,153,541.3,153.1"
				/>
			<path id="Trazado_109521" class="st8" d="M534.8,103.3v47.2l-1.1-1.1l-0.8-0.8l-1.1-1.2l-0.5-0.6l-5.2-5.2l5.8-38.3
				c0.6,0,1.2-0.1,1.8-0.1C534.1,103.3,534.5,103.3,534.8,103.3L534.8,103.3z"/>
			<path id="Trazado_109522" class="st20" d="M534.8,103.3v47.2l-1.1-1.1l-0.8-0.8l-1.1-1.2l-0.5-0.6l2.5-43.6
				C534.1,103.3,534.5,103.3,534.8,103.3L534.8,103.3z"/>
			<path id="Trazado_109523" class="st8" d="M533.2,147.7l-0.9,2.5l-0.5,1.5l-0.5,1.3l-0.2,0.6l-1.7,4.8l-25.1,10.8
				c-0.1-0.4-0.2-0.8-0.3-1.3c-0.1-0.4-0.1-0.7-0.2-1.1l26.6-17.4l1-0.7l0.5-0.3L533.2,147.7z"/>
			<path id="Trazado_109524" class="st20" d="M533.2,147.7l-0.9,2.5l-0.5,1.5l-0.5,1.3l-0.1,0.1L504.1,168c-0.1-0.4-0.1-0.7-0.2-1.1
				l26.6-17.4l1-0.7l0.5-0.3L533.2,147.7z"/>
			<path id="Trazado_109525" class="st8" d="M566,168.7c-0.1,0.5-0.1,1.1-0.2,1.6c-0.1,0.4-0.1,0.8-0.2,1.2L536.1,152l-1.1-0.7
				l-0.6-0.4l-1.3-0.8l1-0.7l0.6-0.4l1-0.6l0.7-0.4l3.8-2.5L566,168.7z"/>
			<path id="Trazado_109526" class="st20" d="M565.8,170.3c-0.1,0.4-0.1,0.8-0.2,1.2L536.1,152l-1.1-0.7l-0.6-0.4l-1.3-0.8l1-0.7
				l0.6-0.4l1-0.6l0.7-0.4L565.8,170.3z"/>
			<path id="Trazado_109527" class="st17" d="M537.7,149c0,2.8-1.9,5-4.3,5s-4.3-2.2-4.3-5s1.9-5,4.3-5S537.7,146.3,537.7,149"/>
			<path id="Trazado_109528" class="st16" d="M537,149c0,2.8-1.9,5-4.3,5s-4.3-2.2-4.3-5s1.9-5,4.3-5S537,146.3,537,149"/>
			<path id="Trazado_109529" class="st17" d="M535.4,149c-0.2,1.5-1.6,2.5-3.1,2.3c-1.5-0.2-2.5-1.6-2.3-3.1
				c0.2-1.3,1.3-2.3,2.7-2.3C534.3,146,535.5,147.4,535.4,149"/>
			<path id="Trazado_109530" class="st8" d="M435.5,284.2L435.5,284.2c0,0.3-0.3,0.6-0.6,0.6c0,0,0,0,0,0h-4.3
				c-0.3,0-0.6-0.3-0.6-0.6c0-0.3,0.3-0.6,0.6-0.6c0,0,0,0,0,0h1.2v-14.7h1.8v14.7h1.2C435.3,283.6,435.5,283.9,435.5,284.2
				C435.5,284.2,435.5,284.2,435.5,284.2"/>
			<g id="Grupo_55576" transform="translate(432.802 268.925)" class="st37">
				<g id="Grupo_55575">
					<g>
						<defs>
							<rect id="SVGID_00000164509183812640413760000017375476682647443841_" x="0" y="0" width="2.7" height="15.9"/>
						</defs>
						<clipPath id="SVGID_00000085965981488154201170000006091070972314974598_">
							<use xlink:href="#SVGID_00000164509183812640413760000017375476682647443841_"  style="overflow:visible;"/>
						</clipPath>
						<g id="Grupo_55574" style="clip-path:url(#SVGID_00000085965981488154201170000006091070972314974598_);">
							<path id="Trazado_109531" class="st39" d="M2.7,15.3L2.7,15.3c0,0.3-0.3,0.6-0.6,0.6c0,0,0,0,0,0H0V0h0.9v14.7h1.2
								C2.5,14.7,2.7,15,2.7,15.3C2.7,15.3,2.7,15.3,2.7,15.3"/>
						</g>
					</g>
				</g>
			</g>
			<path id="Trazado_109532" class="st8" d="M462.9,284.2L462.9,284.2c0,0.3-0.3,0.6-0.6,0.6c0,0,0,0,0,0H458
				c-0.3,0-0.6-0.3-0.6-0.6c0-0.3,0.3-0.6,0.6-0.6c0,0,0,0,0,0h1.2v-14.7h1.8v14.7h1.2C462.6,283.6,462.8,283.9,462.9,284.2
				C462.9,284.2,462.9,284.2,462.9,284.2"/>
			<g id="Grupo_55579" transform="translate(460.137 268.925)" class="st37">
				<g id="Grupo_55578">
					<g>
						<defs>
							<rect id="SVGID_00000054966152596863841950000017253375217436200596_" x="0" y="0" width="2.7" height="15.9"/>
						</defs>
						<clipPath id="SVGID_00000008854213900889566590000007452347814025724313_">
							<use xlink:href="#SVGID_00000054966152596863841950000017253375217436200596_"  style="overflow:visible;"/>
						</clipPath>
						<g id="Grupo_55577" style="clip-path:url(#SVGID_00000008854213900889566590000007452347814025724313_);">
							<path id="Trazado_109533" class="st39" d="M2.7,15.3L2.7,15.3c0,0.3-0.3,0.6-0.6,0.6c0,0,0,0,0,0H0V0h0.9v14.7h1.2
								C2.5,14.7,2.7,15,2.7,15.3C2.7,15.3,2.7,15.3,2.7,15.3"/>
						</g>
					</g>
				</g>
			</g>
			<rect id="Rectángulo_15027" x="430.1" y="268.9" class="st17" width="5.3" height="1.7"/>
			<rect id="Rectángulo_15028" x="457.5" y="268.9" class="st17" width="5.3" height="1.7"/>
			<path id="Trazado_109534" class="st8" d="M471,268.3h-46.9l7.7-22.3h46.9L471,268.3z"/>
			<path id="Trazado_109535" class="st17" d="M469.6,268.3h-46.9l7.7-22.3h46.9L469.6,268.3z"/>
			<path id="Trazado_109536" class="st19" d="M444.8,247.6l-2.9,8.3h-13.2l2.9-8.3H444.8z"/>
			<path id="Trazado_109537" class="st19" d="M440,266.6l2.9-8.3H456l-2.9,8.3H440z"/>
			<path id="Trazado_109538" class="st19" d="M441,258.3l-2.9,8.3H425l2.9-8.3H441z"/>
			<path id="Trazado_109539" class="st19" d="M443.7,255.8l2.9-8.3h13.2l-2.9,8.3H443.7z"/>
			<path id="Trazado_109540" class="st19" d="M454.8,266.6l2.9-8.3h13.2l-2.9,8.3H454.8z"/>
			<path id="Trazado_109541" class="st19" d="M458.6,255.8l2.9-8.3h13.2l-2.9,8.3H458.6z"/>
			<path id="Trazado_109542" class="st8" d="M470.6,269.6h-47.9v-1.3H471L470.6,269.6z"/>
			<path id="Trazado_109543" class="st8" d="M485.6,284L485.6,284c0,0.4-0.4,0.8-0.8,0.8c0,0,0,0,0,0h-6c-0.4,0-0.8-0.4-0.8-0.8
				c0-0.4,0.4-0.8,0.8-0.8h1.7v-20.5h2.6v20.5h1.7C485.2,283.2,485.6,283.5,485.6,284C485.6,284,485.6,284,485.6,284"/>
			<g id="Grupo_55582" transform="translate(481.755 262.623)" class="st37">
				<g id="Grupo_55581">
					<g>
						<defs>
							<rect id="SVGID_00000145761846728009419070000016890607435886650498_" x="0" y="0" width="3.8" height="22.2"/>
						</defs>
						<clipPath id="SVGID_00000142868044096154627050000003758844041702532777_">
							<use xlink:href="#SVGID_00000145761846728009419070000016890607435886650498_"  style="overflow:visible;"/>
						</clipPath>
						<g id="Grupo_55580" style="clip-path:url(#SVGID_00000142868044096154627050000003758844041702532777_);">
							<path id="Trazado_109544" class="st39" d="M3.8,21.4L3.8,21.4c0,0.4-0.4,0.8-0.8,0.8c0,0,0,0,0,0H0V0h1.3v20.5H3
								C3.4,20.5,3.8,20.9,3.8,21.4C3.8,21.4,3.8,21.4,3.8,21.4"/>
						</g>
					</g>
				</g>
			</g>
			<path id="Trazado_109545" class="st8" d="M523.7,284L523.7,284c0,0.4-0.4,0.8-0.8,0.8l0,0h-6c-0.4,0-0.8-0.4-0.8-0.8
				c0-0.4,0.4-0.8,0.8-0.8h1.7v-20.5h2.6v20.5h1.7C523.4,283.2,523.7,283.5,523.7,284C523.7,284,523.7,284,523.7,284"/>
			<g id="Grupo_55585" transform="translate(519.951 262.623)" class="st37">
				<g id="Grupo_55584">
					<g>
						<defs>
							<rect id="SVGID_00000030460859353475440020000011122491427745321350_" x="0" y="0" width="3.8" height="22.2"/>
						</defs>
						<clipPath id="SVGID_00000044145930293098083620000011404388857139566514_">
							<use xlink:href="#SVGID_00000030460859353475440020000011122491427745321350_"  style="overflow:visible;"/>
						</clipPath>
						<g id="Grupo_55583" style="clip-path:url(#SVGID_00000044145930293098083620000011404388857139566514_);">
							<path id="Trazado_109546" class="st39" d="M3.8,21.4L3.8,21.4c0,0.4-0.4,0.8-0.8,0.8l0,0H0V0h1.3v20.5H3
								C3.4,20.5,3.8,20.9,3.8,21.4C3.8,21.4,3.8,21.4,3.8,21.4"/>
						</g>
					</g>
				</g>
			</g>
			<rect id="Rectángulo_15031" x="478" y="262.6" class="st17" width="7.5" height="2.4"/>
			<rect id="Rectángulo_15032" x="516.2" y="262.6" class="st17" width="7.5" height="2.4"/>
			<path id="Trazado_109547" class="st8" d="M535.2,261.7h-65.5l10.8-31.2H546L535.2,261.7z"/>
			<path id="Trazado_109548" class="st17" d="M533.2,261.7h-65.5l10.8-31.2h65.5L533.2,261.7z"/>
			<path id="Trazado_109549" class="st19" d="M498.5,232.8l-4,11.6h-18.4l4-11.6H498.5z"/>
			<path id="Trazado_109550" class="st19" d="M491.8,259.4l4-11.6h18.4l-4,11.6H491.8z"/>
			<path id="Trazado_109551" class="st19" d="M493.3,247.8l-4,11.6h-18.4l4-11.6H493.3z"/>
			<path id="Trazado_109552" class="st19" d="M497,244.4l4-11.6h18.4l-4,11.6H497z"/>
			<path id="Trazado_109553" class="st19" d="M512.6,259.4l4-11.6h18.4l-4,11.6H512.6z"/>
			<path id="Trazado_109554" class="st19" d="M517.7,244.4l4-11.6h18.4l-4,11.6H517.7z"/>
			<path id="Trazado_109555" class="st8" d="M534.6,263.6h-67v-1.9h67.5L534.6,263.6z"/>
			<path id="Trazado_109556" class="st8" d="M43.9,284L43.9,284c0,0.4-0.4,0.8-0.8,0.8c0,0,0,0,0,0h-6c-0.4,0-0.8-0.4-0.8-0.8
				c0-0.4,0.4-0.8,0.8-0.8h1.7v-20.5h2.6v20.5h1.7C43.5,283.2,43.9,283.5,43.9,284C43.9,284,43.9,284,43.9,284"/>
			<g id="Grupo_55588" transform="translate(40.057 262.623)" class="st37">
				<g id="Grupo_55587">
					<g>
						<defs>
							<rect id="SVGID_00000131329548720579301120000013982984393153411727_" x="0" y="0" width="3.8" height="22.2"/>
						</defs>
						<clipPath id="SVGID_00000150076611312872739390000014707424956230951069_">
							<use xlink:href="#SVGID_00000131329548720579301120000013982984393153411727_"  style="overflow:visible;"/>
						</clipPath>
						<g id="Grupo_55586" style="clip-path:url(#SVGID_00000150076611312872739390000014707424956230951069_);">
							<path id="Trazado_109557" class="st39" d="M3.8,21.4L3.8,21.4c0,0.4-0.4,0.8-0.8,0.8c0,0,0,0,0,0H0V0h1.3v20.5H3
								C3.4,20.5,3.8,20.9,3.8,21.4C3.8,21.4,3.8,21.4,3.8,21.4"/>
						</g>
					</g>
				</g>
			</g>
			<path id="Trazado_109558" class="st8" d="M82,284L82,284c0,0.4-0.4,0.8-0.8,0.8h-6c-0.4,0-0.8-0.4-0.8-0.8c0-0.4,0.4-0.8,0.8-0.8
				H77v-20.5h2.6v20.5h1.7C81.7,283.2,82,283.5,82,284C82,284,82,284,82,284"/>
			<g id="Grupo_55591" transform="translate(78.253 262.623)" class="st37">
				<g id="Grupo_55590">
					<g>
						<defs>
							<rect id="SVGID_00000063630059022116284250000001928433862257355195_" x="0" y="0" width="3.8" height="22.2"/>
						</defs>
						<clipPath id="SVGID_00000006674761324309698950000017530849365752744374_">
							<use xlink:href="#SVGID_00000063630059022116284250000001928433862257355195_"  style="overflow:visible;"/>
						</clipPath>
						<g id="Grupo_55589" style="clip-path:url(#SVGID_00000006674761324309698950000017530849365752744374_);">
							<path id="Trazado_109559" class="st39" d="M3.8,21.4L3.8,21.4c0,0.4-0.4,0.8-0.8,0.8H0V0h1.3v20.5H3
								C3.4,20.5,3.8,20.9,3.8,21.4C3.8,21.4,3.8,21.4,3.8,21.4"/>
						</g>
					</g>
				</g>
			</g>
			<rect id="Rectángulo_15035" x="36.3" y="262.6" class="st17" width="7.5" height="2.4"/>
			<rect id="Rectángulo_15036" x="74.5" y="262.6" class="st17" width="7.5" height="2.4"/>
			<path id="Trazado_109560" class="st8" d="M93.5,261.7H28l10.8-31.2h65.5L93.5,261.7z"/>
			<path id="Trazado_109561" class="st17" d="M91.4,261.7H25.9l10.8-31.2h65.5L91.4,261.7z"/>
			<path id="Trazado_109562" class="st19" d="M56.8,232.8l-4,11.6H34.4l4-11.6H56.8z"/>
			<path id="Trazado_109563" class="st19" d="M50.1,259.4l4-11.6h18.4l-4,11.6H50.1z"/>
			<path id="Trazado_109564" class="st19" d="M51.6,247.8l-4,11.6H29.2l4-11.6H51.6z"/>
			<path id="Trazado_109565" class="st19" d="M55.3,244.4l4-11.6h18.4l-4,11.6H55.3z"/>
			<path id="Trazado_109566" class="st19" d="M70.9,259.4l4-11.6h18.4l-4,11.6H70.9z"/>
			<path id="Trazado_109567" class="st19" d="M76.1,244.4l4-11.6h18.4l-4,11.6H76.1z"/>
			<path id="Trazado_109568" class="st8" d="M92.9,263.6h-67v-1.9h67.5L92.9,263.6z"/>
			<path id="Trazado_109569" class="st8" d="M356.1,127.3h-68.6c0,0,7.7-0.4,10-2.6s5.2-3.5,10.9-4.4c3.7-0.5,4.5-8.8,8.5-11.2
				s8.7-0.8,13.8,6.7s11.3,5.3,13.8,5.3C351.5,121.1,356.1,127.3,356.1,127.3"/>
		</g>
		<path id="Rectángulo_16943" class="st45" d="M527.2,1503h637c3.3,0,6,2.7,6,6v15c0,3.3-2.7,6-6,6h-637c-3.3,0-6-2.7-6-6v-15
			C521.2,1505.7,523.9,1503,527.2,1503z"/>
	</g>
</g>
</svg>
