<svg xmlns="http://www.w3.org/2000/svg" width="152.443" height="152.443" viewBox="0 0 152.443 152.443">
  <g id="Grupo_62259" data-name="Grupo 62259" transform="translate(-517.563 -4711.172)">
    <path id="Trazado_89811" data-name="Trazado 89811" d="M1947.738,6466.172q3.745,0,7.471.367t7.4,1.1q3.673.729,7.256,1.817t7.043,2.52q3.459,1.433,6.762,3.2t6.416,3.845q3.113,2.08,6.008,4.456t5.542,5.024q2.648,2.648,5.023,5.542t4.456,6.008q2.08,3.113,3.846,6.416t3.2,6.762q1.433,3.458,2.52,7.042t1.817,7.256q.731,3.674,1.1,7.4t.367,7.471q0,3.746-.367,7.471t-1.1,7.4q-.73,3.672-1.817,7.255t-2.52,7.043q-1.432,3.459-3.2,6.762t-3.846,6.416q-2.08,3.112-4.456,6.008t-5.023,5.542q-2.648,2.649-5.542,5.023t-6.008,4.456q-3.114,2.08-6.416,3.846t-6.762,3.2q-3.459,1.433-7.043,2.52t-7.256,1.817q-3.672.732-7.4,1.1t-7.471.367q-3.744,0-7.471-.367t-7.4-1.1q-3.672-.73-7.256-1.817t-7.042-2.52q-3.461-1.434-6.762-3.2t-6.416-3.846q-3.114-2.079-6.008-4.456t-5.542-5.023q-2.649-2.648-5.024-5.542t-4.456-6.008q-2.079-3.114-3.845-6.416t-3.2-6.762q-1.432-3.459-2.52-7.043t-1.818-7.255q-.73-3.674-1.1-7.4t-.367-7.471q0-3.744.367-7.471t1.1-7.4q.731-3.672,1.818-7.256t2.52-7.042q1.433-3.461,3.2-6.762t3.845-6.416q2.08-3.114,4.456-6.008t5.024-5.542q2.648-2.649,5.542-5.024t6.008-4.456q3.114-2.079,6.416-3.845t6.762-3.2q3.459-1.434,7.042-2.52t7.256-1.817q3.673-.732,7.4-1.1T1947.738,6466.172Z" transform="translate(-1353.954 -1755)" fill="#a0a603"/>
    <path id="Trazado_89812" data-name="Trazado 89812" d="M71.6,0A71.6,71.6,0,1,1,0,71.6,71.51,71.51,0,0,1,71.6,0Z" transform="translate(522.188 4715.797)" fill="#fff"/>
    <circle id="Elipse_1213" data-name="Elipse 1213" cx="65.13" cy="65.13" r="65.13" transform="translate(528.654 4722.263)" fill="#d8df25"/>
    <g id="Grupo_55610" data-name="Grupo 55610" transform="translate(299 36)">
      <path id="Sustracción_5" data-name="Sustracción 5" d="M562.5,1332a35.388,35.388,0,1,1,13.818-2.79A35.279,35.279,0,0,1,562.5,1332Zm0-65a29.5,29.5,0,1,0,29.5,29.5A29.534,29.534,0,0,0,562.5,1267Z" transform="translate(-268 3455)" fill="#fff"/>
      <path id="Trazado_109635" data-name="Trazado 109635" d="M28.4,33.442a10.146,10.146,0,0,1-.92,4.409A8.3,8.3,0,0,1,24.932,41a12.5,12.5,0,0,1-3.678,1.875,17.943,17.943,0,0,1-4.457.8V47H14.179V43.675a15.2,15.2,0,0,1-8.441-2.888,10.472,10.472,0,0,1-4.126-6.944l7.31-1.7a6.364,6.364,0,0,0,1.686,3.82A6.5,6.5,0,0,0,14.179,37.8V28.632q-.189-.071-.542-.177t-.519-.153q-1.3-.4-2.158-.7t-2.051-.79a13.03,13.03,0,0,1-1.969-.99A15.008,15.008,0,0,1,5.3,24.6a6.246,6.246,0,0,1-1.356-1.568,8.623,8.623,0,0,1-.825-1.957,8.514,8.514,0,0,1-.33-2.417,8.778,8.778,0,0,1,3.171-7.133,13.263,13.263,0,0,1,8.217-2.818V5.665H16.8V8.8a16.967,16.967,0,0,1,5.046,1.214,11.138,11.138,0,0,1,4.009,2.912,10.131,10.131,0,0,1,2.334,4.739l-6.814,1.7A5.337,5.337,0,0,0,16.8,14.625V23a1.111,1.111,0,0,0,.177.059q.13.035.2.059,1.368.4,2.252.7t2.181.837A17.173,17.173,0,0,1,23.753,25.7,14.687,14.687,0,0,1,25.568,27a7.048,7.048,0,0,1,1.521,1.7,9.18,9.18,0,0,1,.931,2.11A8.82,8.82,0,0,1,28.4,33.442ZM9.935,18.492A2.606,2.606,0,0,0,11.02,20.65a11.129,11.129,0,0,0,3.16,1.544V14.531A5.777,5.777,0,0,0,11.1,15.745,3.387,3.387,0,0,0,9.935,18.492ZM16.8,37.9a5.58,5.58,0,0,0,3.148-1.226,3.513,3.513,0,0,0,1.144-2.853,3.349,3.349,0,0,0-1.12-2.547A9.938,9.938,0,0,0,16.8,29.5Z" transform="translate(279 4725)" fill="#fff"/>
    </g>
  </g>
</svg>
