<svg xmlns="http://www.w3.org/2000/svg" xmlns:xlink="http://www.w3.org/1999/xlink" width="152.443" height="152.443" viewBox="0 0 152.443 152.443">
  <defs>
    <clipPath id="clip-path">
      <rect id="Rectángulo_15043" data-name="Rectángulo 15043" width="55.378" height="88.232" fill="none"/>
    </clipPath>
  </defs>
  <g id="Grupo_62255" data-name="Grupo 62255" transform="translate(-517.563 -4350.172)">
    <path id="Trazado_89800" data-name="Trazado 89800" d="M1947.738,6466.172q3.745,0,7.471.367t7.4,1.1q3.673.729,7.256,1.817t7.043,2.52q3.459,1.433,6.762,3.2t6.416,3.845q3.113,2.08,6.008,4.456t5.542,5.024q2.648,2.648,5.023,5.542t4.456,6.008q2.08,3.113,3.846,6.416t3.2,6.762q1.433,3.458,2.52,7.042t1.817,7.256q.731,3.674,1.1,7.4t.367,7.471q0,3.746-.367,7.471t-1.1,7.4q-.73,3.672-1.817,7.255t-2.52,7.043q-1.432,3.459-3.2,6.762t-3.846,6.416q-2.08,3.112-4.456,6.008t-5.023,5.542q-2.648,2.649-5.542,5.023t-6.008,4.456q-3.114,2.08-6.416,3.846t-6.762,3.2q-3.459,1.433-7.043,2.52t-7.256,1.817q-3.672.732-7.4,1.1t-7.471.367q-3.744,0-7.471-.367t-7.4-1.1q-3.672-.73-7.256-1.817t-7.042-2.52q-3.461-1.434-6.762-3.2t-6.416-3.846q-3.114-2.079-6.008-4.456t-5.542-5.023q-2.649-2.648-5.024-5.542t-4.456-6.008q-2.079-3.114-3.845-6.416t-3.2-6.762q-1.432-3.459-2.52-7.043t-1.818-7.255q-.73-3.674-1.1-7.4t-.367-7.471q0-3.744.367-7.471t1.1-7.4q.731-3.672,1.818-7.256t2.52-7.042q1.433-3.461,3.2-6.762t3.845-6.416q2.08-3.114,4.456-6.008t5.024-5.542q2.648-2.649,5.542-5.024t6.008-4.456q3.114-2.079,6.416-3.845t6.762-3.2q3.459-1.434,7.042-2.52t7.256-1.817q3.673-.732,7.4-1.1T1947.738,6466.172Z" transform="translate(-1353.954 -2116)" fill="#a0a603"/>
    <path id="Trazado_89801" data-name="Trazado 89801" d="M71.6,0A71.6,71.6,0,1,1,0,71.6,71.51,71.51,0,0,1,71.6,0Z" transform="translate(522.188 4354.797)" fill="#fff"/>
    <circle id="Elipse_1206" data-name="Elipse 1206" cx="65.13" cy="65.13" r="65.13" transform="translate(528.654 4361.263)" fill="#d8df25"/>
    <g id="Grupo_55605" data-name="Grupo 55605" transform="translate(572 4386.13)">
      <g id="Grupo_55604" data-name="Grupo 55604" transform="translate(0 0)" clip-path="url(#clip-path)">
        <path id="Trazado_109615" data-name="Trazado 109615" d="M17.327,53.353A12.476,12.476,0,1,1,29.8,40.879,12.491,12.491,0,0,1,17.327,53.353m0-20.194a7.718,7.718,0,1,0,7.719,7.719,7.729,7.729,0,0,0-7.719-7.719" transform="translate(4.379 25.649)" fill="#fff"/>
        <path id="Trazado_109616" data-name="Trazado 109616" d="M21.707,88.232A21.689,21.689,0,0,1,9.231,48.789V12.477a12.476,12.476,0,1,1,24.951,0V48.791A21.688,21.688,0,0,1,21.707,88.232m-7.719-38.5a2.357,2.357,0,0,1-1.1,2.343,16.948,16.948,0,1,0,17.632,0,2.381,2.381,0,0,1-1.1-2.466V12.477a7.718,7.718,0,1,0-15.436,0Z" transform="translate(-0.001 -0.001)" fill="#fff"/>
        <path id="Trazado_109617" data-name="Trazado 109617" d="M12.535,53.535a2.38,2.38,0,0,1-2.379-2.379V8.219a2.379,2.379,0,1,1,4.758,0V51.156a2.38,2.38,0,0,1-2.379,2.379" transform="translate(9.172 5.273)" fill="#fff"/>
        <path id="Trazado_109618" data-name="Trazado 109618" d="M34.658,28.153a2.376,2.376,0,0,1-1.245-.352L21.449,20.47a2.374,2.374,0,0,1,0-4.054L33.414,9.086a2.38,2.38,0,0,1,3.623,2.027V25.774a2.384,2.384,0,0,1-2.379,2.379m-7.412-9.71,5.034,3.083V15.36Z" transform="translate(18.342 7.887)" fill="#fff"/>
      </g>
    </g>
  </g>
</svg>
