<svg xmlns="http://www.w3.org/2000/svg" xmlns:xlink="http://www.w3.org/1999/xlink" width="152.442" height="152.443" viewBox="0 0 152.442 152.443">
  <defs>
    <clipPath id="clip-path">
      <rect id="Rectángulo_15044" data-name="Rectángulo 15044" width="106.141" height="79.346" fill="none"/>
    </clipPath>
  </defs>
  <g id="Grupo_62256" data-name="Grupo 62256" transform="translate(-884.408 -4350.172)">
    <path id="Trazado_89802" data-name="Trazado 89802" d="M2314.583,6466.172q3.746,0,7.471.367t7.4,1.1q3.674.729,7.256,1.817t7.043,2.52q3.459,1.433,6.762,3.2t6.416,3.845q3.112,2.08,6.008,4.456t5.542,5.024q2.648,2.648,5.023,5.542t4.456,6.008q2.08,3.113,3.846,6.416t3.2,6.762q1.433,3.458,2.52,7.042t1.817,7.256q.73,3.674,1.1,7.4t.367,7.471q0,3.746-.367,7.471t-1.1,7.4q-.731,3.672-1.817,7.255t-2.52,7.043q-1.434,3.459-3.2,6.762t-3.846,6.416q-2.08,3.112-4.456,6.008t-5.023,5.542q-2.647,2.649-5.542,5.023t-6.008,4.456q-3.114,2.08-6.416,3.846t-6.762,3.2q-3.459,1.433-7.043,2.52t-7.256,1.817q-3.672.732-7.4,1.1t-7.471.367q-3.744,0-7.471-.367t-7.4-1.1q-3.672-.73-7.256-1.817t-7.043-2.52q-3.459-1.434-6.761-3.2t-6.416-3.846q-3.114-2.079-6.008-4.456t-5.543-5.023q-2.648-2.648-5.023-5.542t-4.456-6.008q-2.08-3.114-3.845-6.416t-3.2-6.762q-1.434-3.459-2.52-7.043t-1.818-7.255q-.73-3.674-1.1-7.4t-.367-7.471q0-3.744.367-7.471t1.1-7.4q.731-3.672,1.818-7.256t2.52-7.042q1.432-3.461,3.2-6.762t3.845-6.416q2.08-3.114,4.456-6.008t5.023-5.542q2.649-2.649,5.543-5.024t6.008-4.456q3.112-2.079,6.416-3.845t6.761-3.2q3.46-1.434,7.043-2.52t7.256-1.817q3.674-.732,7.4-1.1T2314.583,6466.172Z" transform="translate(-1353.954 -2116)" fill="#a0a603"/>
    <circle id="Elipse_1207" data-name="Elipse 1207" cx="71.597" cy="71.597" r="71.597" transform="translate(889.033 4354.797)" fill="#fff"/>
    <circle id="Elipse_1208" data-name="Elipse 1208" cx="65.13" cy="65.13" r="65.13" transform="translate(895.499 4361.263)" fill="#d8df25"/>
    <g id="Grupo_55607" data-name="Grupo 55607" transform="translate(907 4392.891)">
      <g id="Grupo_55606" data-name="Grupo 55606" transform="translate(0 0)" clip-path="url(#clip-path)">
        <path id="Trazado_109619" data-name="Trazado 109619" d="M31.2,56.884H16.455a2.348,2.348,0,0,1-1.76-.795c-.892-1.011-5.4-6.171-6.4-8.429-.819-1.841,0-6.338,2.437-13.378C9.28,31.367,5.239,22.878,4.924,18.13A16.958,16.958,0,0,1,7.373,8.052a2.323,2.323,0,0,1,.3-.353C12.51,2.994,19.851.118,27.311,0c4.142-.053,9.472,1.146,14.625,2.316,4.255.967,8.271,1.88,10.825,1.88a74.806,74.806,0,0,0,10.081-.654,2.315,2.315,0,0,1,1.4.22C68.5,5.886,89.872,16.554,92.106,18.32c1.661,1.308,3.064,3.832,4.3,6.057a21.716,21.716,0,0,0,1.642,2.7c1.373,1.492,3.2,3.551,3.2,3.551a2.346,2.346,0,0,1-.28,3.387c-.859.693-3.864,2.9-6.385,2.788a31.247,31.247,0,0,1-5.448-1.144c-1.777-.058-7.6-.293-9.756-.86-1.176-.31-3.759-.847-5.764-1.255A78.615,78.615,0,0,1,72.9,42.5c-.132.7-.289,1.368-.44,2.008a12.65,12.65,0,0,0-.466,2.756,19.148,19.148,0,0,0,2.9,1.067c2.269.716,3.909,1.234,4.651,2.57a13.765,13.765,0,0,1,1.122,2.793,2.347,2.347,0,0,1-4.529,1.236,10.445,10.445,0,0,0-.509-1.377c-.488-.22-1.465-.528-2.147-.742a13.833,13.833,0,0,1-4.644-2.05c-2.224-1.907-1.548-4.789-.951-7.328.137-.58.28-1.187.4-1.817a102.707,102.707,0,0,0,.733-10.969,2.348,2.348,0,0,1,2.8-2.251c.267.051,6.566,1.281,8.771,1.86a68.944,68.944,0,0,0,9,.72,2.338,2.338,0,0,1,.6.1,29.123,29.123,0,0,0,4.691,1.041,3.149,3.149,0,0,0,1.046-.393c-.44-.488-.907-1-1.33-1.46a20.5,20.5,0,0,1-2.294-3.6C91.381,25,90.118,22.733,89.2,22.006,87.843,20.965,74.714,14.23,62.8,8.292a82.411,82.411,0,0,1-10.037.6c-3.079,0-7.349-.971-11.867-2-4.881-1.11-9.962-2.3-13.509-2.2a24.987,24.987,0,0,0-16.241,6.179A12.623,12.623,0,0,0,9.609,17.82c.254,3.808,4.244,12.277,5.758,15.22a2.342,2.342,0,0,1,.126,1.86c-1.5,4.227-2.972,9.562-2.844,10.977a52.4,52.4,0,0,0,4.875,6.31H31.2a2.348,2.348,0,1,1,0,4.7" transform="translate(4.293 0)" fill="#fff"/>
        <path id="Trazado_109620" data-name="Trazado 109620" d="M24.819,46.856a2.35,2.35,0,0,1-2.277-1.779l-.791-3.165-7.817-1.929a2.349,2.349,0,0,1-1.366-3.618c4.606-6.654,9.857-14.749,10.308-16.222.184-.949-.408-3.676-1.071-5.617A2.348,2.348,0,0,1,26.249,13c.3.872,1.766,5.363,1.215,8.127-.406,2.042-5.258,9.453-9.109,15.108l5.9,1.454A2.351,2.351,0,0,1,25.965,39.4L27.1,43.938a2.35,2.35,0,0,1-1.71,2.848,2.386,2.386,0,0,1-.571.07" transform="translate(10.675 10.028)" fill="#fff"/>
        <path id="Trazado_109621" data-name="Trazado 109621" d="M42.541,43.762a2.348,2.348,0,0,1-2.053-1.2c-.224-.4-5.512-9.883-7.013-13.229-1.567-3.494-3.156-11.512-3.224-11.852a2.348,2.348,0,0,1,4.608-.907c.428,2.17,1.781,8.343,2.9,10.838,1.416,3.16,6.776,12.765,6.831,12.863a2.348,2.348,0,0,1-2.05,3.492" transform="translate(26.539 12.894)" fill="#fff"/>
        <path id="Trazado_109622" data-name="Trazado 109622" d="M18.936,26.477a2.348,2.348,0,0,1-.009-4.7,53.368,53.368,0,0,0,13.528-1.794,53.094,53.094,0,0,0,10.268-3.911,2.349,2.349,0,1,1,2.117,4.193,57.992,57.992,0,0,1-11.176,4.257,58.091,58.091,0,0,1-14.719,1.952Z" transform="translate(14.574 13.901)" fill="#fff"/>
        <path id="Trazado_109623" data-name="Trazado 109623" d="M51.482,32.356H37.869a2.348,2.348,0,0,1,0-4.7H51.482a2.348,2.348,0,0,1,0,4.7" transform="translate(31.209 24.301)" fill="#fff"/>
        <path id="Trazado_109624" data-name="Trazado 109624" d="M64.087,55.045H26.769a2.346,2.346,0,0,1-2.04-1.185l-3.346-5.865-19.9-7.839a2.349,2.349,0,0,1-.652-3.981l9.177-7.736a2.351,2.351,0,0,1,1.514-.552h9.22l71.768-.227h.006a2.351,2.351,0,0,1,1.52.558l9.393,7.963a2.348,2.348,0,0,1-1.11,4.1l-30.787,5.44L66.043,54a2.348,2.348,0,0,1-1.956,1.05m-35.955-4.7h34.7l5.352-8.061a2.342,2.342,0,0,1,1.548-1.013L96.581,36.53l-4.92-4.172-70.906.225H12.384L6.872,37.23l17,6.7a2.343,2.343,0,0,1,1.18,1.022Z" transform="translate(0 24.301)" fill="#fff"/>
        <path id="Trazado_109625" data-name="Trazado 109625" d="M13.349,44.37a2.349,2.349,0,0,1-.845-4.541l12.367-4.76a2.358,2.358,0,0,1,.845-.156h7.946l3.661-2.251a2.348,2.348,0,1,1,2.457,4l-4.227,2.6a2.352,2.352,0,0,1-1.227.348H26.15l-11.959,4.6a2.331,2.331,0,0,1-.842.156" transform="translate(9.663 28.392)" fill="#fff"/>
      </g>
    </g>
  </g>
</svg>
