<svg xmlns="http://www.w3.org/2000/svg" xmlns:xlink="http://www.w3.org/1999/xlink" width="152.443" height="152.443" viewBox="0 0 152.443 152.443">
  <defs>
    <clipPath id="clip-path">
      <rect id="Rectángulo_15045" data-name="Rectángulo 15045" width="105.141" height="98.765" fill="none"/>
    </clipPath>
  </defs>
  <g id="Grupo_62254" data-name="Grupo 62254" transform="translate(-1251.253 -4350.172)">
    <path id="Trazado_89803" data-name="Trazado 89803" d="M2681.428,6466.172q3.746,0,7.471.367t7.4,1.1q3.673.729,7.256,1.817t7.043,2.52q3.459,1.433,6.762,3.2t6.416,3.845q3.113,2.08,6.008,4.456t5.542,5.024q2.648,2.648,5.023,5.542t4.456,6.008q2.08,3.113,3.846,6.416t3.2,6.762q1.433,3.458,2.52,7.042t1.817,7.256q.731,3.674,1.1,7.4t.367,7.471q0,3.746-.367,7.471t-1.1,7.4q-.731,3.672-1.817,7.255t-2.52,7.043q-1.434,3.459-3.2,6.762t-3.846,6.416q-2.08,3.112-4.456,6.008t-5.023,5.542q-2.647,2.649-5.542,5.023t-6.008,4.456q-3.114,2.08-6.416,3.846t-6.762,3.2q-3.459,1.433-7.043,2.52t-7.256,1.817q-3.672.732-7.4,1.1t-7.471.367q-3.744,0-7.471-.367t-7.4-1.1q-3.672-.73-7.256-1.817t-7.043-2.52q-3.459-1.434-6.761-3.2t-6.416-3.846q-3.114-2.079-6.008-4.456t-5.543-5.023q-2.647-2.648-5.023-5.542t-4.456-6.008q-2.08-3.114-3.845-6.416t-3.2-6.762q-1.434-3.459-2.52-7.043t-1.818-7.255q-.73-3.674-1.1-7.4t-.367-7.471q0-3.744.367-7.471t1.1-7.4q.731-3.672,1.818-7.256t2.52-7.042q1.433-3.461,3.2-6.762t3.845-6.416q2.08-3.114,4.456-6.008t5.023-5.542q2.649-2.649,5.543-5.024t6.008-4.456q3.112-2.079,6.416-3.845t6.761-3.2q3.46-1.434,7.043-2.52t7.256-1.817q3.672-.732,7.4-1.1T2681.428,6466.172Z" transform="translate(-1353.954 -2116)" fill="#a0a603"/>
    <circle id="Elipse_1209" data-name="Elipse 1209" cx="71.597" cy="71.597" r="71.597" transform="translate(1255.878 4354.797)" fill="#fff"/>
    <path id="Trazado_89804" data-name="Trazado 89804" d="M65.13,0A65.13,65.13,0,1,1,0,65.13,65.13,65.13,0,0,1,65.13,0Z" transform="translate(1262.344 4361.263)" fill="#d8df25"/>
    <g id="Grupo_55609" data-name="Grupo 55609" transform="translate(1277 4376.979)">
      <g id="Grupo_55608" data-name="Grupo 55608" transform="translate(0 0)" clip-path="url(#clip-path)">
        <path id="Trazado_109626" data-name="Trazado 109626" d="M67.914,71.566H17.776a2.433,2.433,0,0,1,0-4.866H63.058L46.1,44a2.431,2.431,0,0,1,1.948-3.889h3.83L39.26,23.216a2.432,2.432,0,0,1,1.948-3.889h3.25L34.836,6.442,25.209,19.327h3.25a2.432,2.432,0,0,1,1.95,3.889l-5.8,7.762a2.433,2.433,0,0,1-3.9-2.912l2.892-3.873H20.353A2.432,2.432,0,0,1,18.4,20.3L32.886.923a2.519,2.519,0,0,1,3.9,0L51.265,20.3a2.432,2.432,0,0,1-1.95,3.889H46.061L58.685,41.088a2.435,2.435,0,0,1-1.952,3.889H52.9l16.961,22.7a2.434,2.434,0,0,1-1.948,3.889" transform="translate(14.52 0)" fill="#fff"/>
        <path id="Trazado_109627" data-name="Trazado 109627" d="M18.056,60.148a18.058,18.058,0,0,1-11.943-31.6,13.228,13.228,0,1,1,25.172-5.68A13.125,13.125,0,0,1,30,28.547a18.058,18.058,0,0,1-11.945,31.6m0-45.646a8.35,8.35,0,0,0-6.787,13.233,2.431,2.431,0,0,1-.611,3.433,13.193,13.193,0,1,0,14.8,0,2.432,2.432,0,0,1-.609-3.433A8.352,8.352,0,0,0,18.056,14.5" transform="translate(0 9.119)" fill="#fff"/>
        <path id="Trazado_109628" data-name="Trazado 109628" d="M10.46,62.8a2.434,2.434,0,0,1-2.433-2.433V22.479a2.433,2.433,0,1,1,4.866,0V60.367A2.434,2.434,0,0,1,10.46,62.8" transform="translate(7.597 18.971)" fill="#fff"/>
        <path id="Trazado_109629" data-name="Trazado 109629" d="M47.644,58.911a2.433,2.433,0,1,1,0-4.866,17.9,17.9,0,0,0,0-35.807,17.732,17.732,0,0,0-7.5,1.639,2.432,2.432,0,1,1-2.04-4.416,22.771,22.771,0,1,1,9.535,43.451" transform="translate(34.726 12.654)" fill="#fff"/>
        <path id="Trazado_109630" data-name="Trazado 109630" d="M43.5,60.273A2.434,2.434,0,0,1,41.07,57.84V25.149a2.433,2.433,0,0,1,4.866,0V57.84A2.434,2.434,0,0,1,43.5,60.273" transform="translate(38.867 21.497)" fill="#fff"/>
        <path id="Trazado_109631" data-name="Trazado 109631" d="M26.54,49.34a2.434,2.434,0,0,1-2.433-2.433V36.7a2.433,2.433,0,0,1,4.866,0v10.2A2.434,2.434,0,0,1,26.54,49.34" transform="translate(22.814 32.431)" fill="#fff"/>
        <path id="Trazado_109632" data-name="Trazado 109632" d="M43.537,36.848a2.433,2.433,0,0,1-1.723-4.154l6.878-6.878a2.434,2.434,0,0,1,3.443,3.441l-6.88,6.878a2.428,2.428,0,0,1-1.719.712" transform="translate(38.898 23.757)" fill="#fff"/>
        <path id="Trazado_109633" data-name="Trazado 109633" d="M13,35.854a2.429,2.429,0,0,1-1.721-.712l-5.946-5.95a2.432,2.432,0,0,1,3.439-3.439L14.725,31.7A2.433,2.433,0,0,1,13,35.854" transform="translate(4.376 23.695)" fill="#fff"/>
        <path id="Trazado_109634" data-name="Trazado 109634" d="M79.835,60.272a2.429,2.429,0,0,1-1.721-.712,47.948,47.948,0,0,0-67.812,0,2.433,2.433,0,0,1-3.439-3.441,52.875,52.875,0,0,1,74.692,0,2.433,2.433,0,0,1-1.721,4.154" transform="translate(5.821 38.492)" fill="#fff"/>
      </g>
    </g>
  </g>
</svg>
