<svg xmlns="http://www.w3.org/2000/svg" xmlns:xlink="http://www.w3.org/1999/xlink" width="171" height="170.998" viewBox="0 0 171 170.998">
  <defs>
    <clipPath id="clip-path">
      <rect id="Rectángulo_16880" data-name="Rectángulo 16880" width="97.906" height="89.703" fill="none"/>
    </clipPath>
  </defs>
  <g id="Grupo_62314" data-name="Grupo 62314" transform="translate(-3087.952 -8210.533)">
    <g id="Grupo_15901" data-name="Grupo 15901" transform="translate(3087.952 8210.533)">
      <g id="Grupo_15894" data-name="Grupo 15894">
        <circle id="Elipse_1187" data-name="Elipse 1187" cx="82.451" cy="82.451" r="82.451" transform="translate(1.314 4.651)" fill="#fff"/>
        <path id="Trazado_41393" data-name="Trazado 41393" d="M3173.452,8381.531a85.5,85.5,0,1,1,85.5-85.5A85.6,85.6,0,0,1,3173.452,8381.531Zm0-164.9a79.4,79.4,0,1,0,79.4,79.4A79.493,79.493,0,0,0,3173.452,8216.629Z" transform="translate(-3087.952 -8210.533)" fill="#a0a603"/>
        <circle id="Elipse_1188" data-name="Elipse 1188" cx="67.388" cy="67.388" r="67.388" transform="translate(18.112 18.11)" fill="#a0a603"/>
      </g>
    </g>
    <g id="Grupo_57093" data-name="Grupo 57093" transform="translate(3130.595 8251.973)">
      <g id="Grupo_57092" data-name="Grupo 57092" transform="translate(0 0)" clip-path="url(#clip-path)">
        <path id="Trazado_119695" data-name="Trazado 119695" d="M60.366,64.3A10.553,10.553,0,0,1,49.823,53.754V11.941a8.466,8.466,0,0,0-16.933,0V32.848a1.737,1.737,0,1,1-3.473,0V11.941a11.941,11.941,0,0,1,23.881,0V27.809H69.167A1.737,1.737,0,0,1,70.9,29.547V53.754A10.551,10.551,0,0,1,60.366,64.3M53.3,31.284v22.47a7.065,7.065,0,0,0,14.131,0V31.284Z" transform="translate(27.001 0)" fill="#fff"/>
        <path id="Trazado_119696" data-name="Trazado 119696" d="M58.156,52.255H1.738A1.736,1.736,0,0,1,0,50.517V42.539a1.737,1.737,0,1,1,3.473,0v6.241H56.418V46.246a1.737,1.737,0,1,1,3.473,0v4.271a1.736,1.736,0,0,1-1.736,1.738" transform="translate(0 37.449)" fill="#fff"/>
        <path id="Trazado_119697" data-name="Trazado 119697" d="M1.738,32.126A1.736,1.736,0,0,1,0,30.389V27.61a1.737,1.737,0,1,1,3.473,0v2.779a1.736,1.736,0,0,1-1.736,1.738" transform="translate(0 23.748)" fill="#fff"/>
        <path id="Trazado_119698" data-name="Trazado 119698" d="M1.738,40.221A1.736,1.736,0,0,1,0,38.483V33.869a1.737,1.737,0,0,1,3.473,0v4.614a1.736,1.736,0,0,1-1.736,1.738" transform="translate(0 29.494)" fill="#fff"/>
        <path id="Trazado_119699" data-name="Trazado 119699" d="M1.738,45.6A1.737,1.737,0,0,1,0,43.867V41.088a1.737,1.737,0,1,1,3.473,0v2.779A1.737,1.737,0,0,1,1.738,45.6" transform="translate(0 36.119)" fill="#fff"/>
        <path id="Trazado_119700" data-name="Trazado 119700" d="M1.738,53.095A1.737,1.737,0,0,1,0,51.357V14.942A14.959,14.959,0,0,1,14.942,0H68.357a1.738,1.738,0,1,1,0,3.475H14.942A11.481,11.481,0,0,0,3.473,14.942V51.357a1.737,1.737,0,0,1-1.736,1.738" transform="translate(0 0)" fill="#fff"/>
        <path id="Trazado_119701" data-name="Trazado 119701" d="M59.8,35.187H31.768a1.738,1.738,0,1,1,0-3.475H59.8a1.738,1.738,0,0,1,0,3.475" transform="translate(27.564 29.108)" fill="#fff"/>
        <path id="Trazado_119702" data-name="Trazado 119702" d="M38.323,12.34H15.717a1.737,1.737,0,1,1,0-3.473H38.323a1.737,1.737,0,1,1,0,3.473" transform="translate(12.831 8.139)" fill="#fff"/>
        <path id="Trazado_119703" data-name="Trazado 119703" d="M38.323,16.1H15.717a1.738,1.738,0,0,1,0-3.475H38.323a1.738,1.738,0,1,1,0,3.475" transform="translate(12.831 11.586)" fill="#fff"/>
        <path id="Trazado_119704" data-name="Trazado 119704" d="M19.008,23.937H5.806A1.737,1.737,0,0,1,4.068,22.2V8.995A1.739,1.739,0,0,1,5.806,7.257h13.2a1.739,1.739,0,0,1,1.74,1.738V22.2a1.738,1.738,0,0,1-1.74,1.738M7.543,20.462h9.729V10.732H7.543Z" transform="translate(3.734 6.661)" fill="#fff"/>
        <path id="Trazado_119705" data-name="Trazado 119705" d="M26.586,47.313a4.027,4.027,0,0,1-2.53-.888L17.9,41.5a4.059,4.059,0,0,1-.629-5.7l9-11.243a4.056,4.056,0,0,1,5.7-.629l6.158,4.929a4.06,4.06,0,0,1,.629,5.7l-9,11.243a4.051,4.051,0,0,1-3.166,1.517m2.4-20.587-9,11.245a.577.577,0,0,0,.09.813l6.156,4.929a.576.576,0,0,0,.811-.088l9-11.245a.579.579,0,0,0-.09-.813L29.8,26.638a.575.575,0,0,0-.811.088" transform="translate(15.037 21.146)" fill="#fff"/>
        <path id="Trazado_119706" data-name="Trazado 119706" d="M30.932,33.949a1.732,1.732,0,0,1-1.086-.382l-6.158-4.931A1.735,1.735,0,0,1,23.42,26.2l3.751-4.685a1.737,1.737,0,0,1,2.441-.27l6.158,4.931a1.737,1.737,0,0,1,.27,2.441L32.29,33.3a1.74,1.74,0,0,1-1.358.652M27.217,27.01l3.446,2.758L32.242,27.8,28.8,25.037Z" transform="translate(21.146 19.146)" fill="#fff"/>
        <path id="Trazado_119707" data-name="Trazado 119707" d="M39.421,36.011a1.726,1.726,0,0,1-1.086-.382l-14.994-12a1.737,1.737,0,0,1-.269-2.441L24.2,19.778a6.463,6.463,0,0,1,9.072-1l7.629,6.11a6.45,6.45,0,0,1,1,9.072l-1.126,1.406A1.738,1.738,0,0,1,39.613,36a1.627,1.627,0,0,1-.192.01M26.87,22l12.278,9.833a2.978,2.978,0,0,0-.422-4.237L31.1,21.485a2.983,2.983,0,0,0-4.187.466Z" transform="translate(20.828 15.935)" fill="#fff"/>
        <path id="Trazado_119708" data-name="Trazado 119708" d="M22.773,44.139a1.747,1.747,0,0,1-1.087-.382L15.53,38.827a1.735,1.735,0,0,1-.269-2.441L19.013,31.7a1.737,1.737,0,0,1,2.441-.27L27.61,36.36a1.735,1.735,0,0,1,.27,2.441l-3.751,4.685a1.747,1.747,0,0,1-1.166.641,1.577,1.577,0,0,1-.19.012M19.059,37.2,22.5,39.958l1.578-1.972-3.445-2.76Z" transform="translate(13.657 28.499)" fill="#fff"/>
        <path id="Trazado_119709" data-name="Trazado 119709" d="M25.519,50.3A6.4,6.4,0,0,1,21.5,48.883l-7.631-6.108a6.463,6.463,0,0,1-1-9.072L13.989,32.3a1.74,1.74,0,0,1,2.441-.269L31.423,44.033a1.735,1.735,0,0,1,.269,2.441L30.565,47.88a6.4,6.4,0,0,1-4.325,2.38,6.542,6.542,0,0,1-.721.04M15.575,35.874a2.984,2.984,0,0,0,.464,4.189l7.629,6.108a2.979,2.979,0,0,0,4.187-.464c.04-.048-12.24-9.883-12.24-9.883Z" transform="translate(10.51 29.048)" fill="#fff"/>
        <path id="Trazado_119710" data-name="Trazado 119710" d="M29.036,40.915a1.73,1.73,0,0,1-1.086-.382l-4.216-3.375a1.739,1.739,0,0,1-.27-2.443L27.323,29.9a1.74,1.74,0,0,1,2.443-.27L33.982,33a1.737,1.737,0,0,1,.27,2.441l-3.861,4.818a1.727,1.727,0,0,1-1.164.641,1.609,1.609,0,0,1-.192.012m-1.774-5.383,1.5,1.2,1.688-2.108-1.5-1.2Z" transform="translate(21.188 26.842)" fill="#fff"/>
        <path id="Trazado_119711" data-name="Trazado 119711" d="M46.265,56.04a6.754,6.754,0,0,1-4.235-1.492L26.067,41.765a3.069,3.069,0,0,1-.476-4.309l4.662-5.823a3.069,3.069,0,0,1,4.309-.478L50.526,43.938a6.8,6.8,0,0,1-4.262,12.1M28.559,39.308,44.2,51.836a3.322,3.322,0,1,0,4.152-5.186L32.711,34.122Z" transform="translate(22.873 27.981)" fill="#fff"/>
        <path id="Trazado_119712" data-name="Trazado 119712" d="M30.26,22.535H5.8a1.738,1.738,0,0,1,0-3.475H30.26a1.738,1.738,0,0,1,0,3.475" transform="translate(3.735 17.495)" fill="#fff"/>
        <path id="Trazado_119713" data-name="Trazado 119713" d="M30.26,26.511H5.8a1.738,1.738,0,0,1,0-3.475H30.26a1.738,1.738,0,0,1,0,3.475" transform="translate(3.735 21.145)" fill="#fff"/>
        <path id="Trazado_119714" data-name="Trazado 119714" d="M25.457,30.487H5.8a1.738,1.738,0,0,1,0-3.475H25.457a1.738,1.738,0,1,1,0,3.475" transform="translate(3.735 24.794)" fill="#fff"/>
      </g>
    </g>
  </g>
</svg>
