<svg xmlns="http://www.w3.org/2000/svg" xmlns:xlink="http://www.w3.org/1999/xlink" width="152.443" height="152.443" viewBox="0 0 152.443 152.443">
  <defs>
    <clipPath id="clip-path">
      <rect id="Rectángulo_15042" data-name="Rectángulo 15042" width="82.69" height="85.095" fill="none"/>
    </clipPath>
  </defs>
  <g id="Grupo_62252" data-name="Grupo 62252" transform="translate(-700.149 -3845)">
    <path id="Trazado_5392" data-name="Trazado 5392" d="M2314.583,6466.172q3.746,0,7.471.367t7.4,1.1q3.674.729,7.256,1.817t7.043,2.52q3.459,1.433,6.762,3.2t6.416,3.845q3.112,2.08,6.008,4.456t5.542,5.024q2.648,2.648,5.023,5.542t4.456,6.008q2.08,3.113,3.846,6.416t3.2,6.762q1.433,3.458,2.52,7.042t1.817,7.256q.73,3.674,1.1,7.4t.367,7.471q0,3.746-.367,7.471t-1.1,7.4q-.731,3.672-1.817,7.255t-2.52,7.043q-1.434,3.459-3.2,6.762t-3.846,6.416q-2.08,3.112-4.456,6.008t-5.023,5.542q-2.647,2.649-5.542,5.023t-6.008,4.456q-3.114,2.08-6.416,3.846t-6.762,3.2q-3.459,1.433-7.043,2.52t-7.256,1.817q-3.672.732-7.4,1.1t-7.471.367q-3.744,0-7.471-.367t-7.4-1.1q-3.672-.73-7.256-1.817t-7.043-2.52q-3.459-1.434-6.761-3.2t-6.416-3.846q-3.114-2.079-6.008-4.456t-5.543-5.023q-2.648-2.648-5.023-5.542t-4.456-6.008q-2.08-3.114-3.845-6.416t-3.2-6.762q-1.434-3.459-2.52-7.043t-1.818-7.255q-.73-3.674-1.1-7.4t-.367-7.471q0-3.744.367-7.471t1.1-7.4q.731-3.672,1.818-7.256t2.52-7.042q1.432-3.461,3.2-6.762t3.845-6.416q2.08-3.114,4.456-6.008t5.023-5.542q2.649-2.649,5.543-5.024t6.008-4.456q3.112-2.079,6.416-3.845t6.761-3.2q3.46-1.434,7.043-2.52t7.256-1.817q3.674-.732,7.4-1.1T2314.583,6466.172Z" transform="translate(-1538.213 -2621.172)" fill="#a0a603"/>
    <circle id="Elipse_121" data-name="Elipse 121" cx="71.597" cy="71.597" r="71.597" transform="translate(704.774 3849.625)" fill="#fff"/>
    <circle id="Elipse_122" data-name="Elipse 122" cx="65.13" cy="65.13" r="65.13" transform="translate(711.24 3856.091)" fill="#d8df25"/>
    <g id="Grupo_55603" data-name="Grupo 55603" transform="translate(734.741 3882.089)">
      <g id="Grupo_55602" data-name="Grupo 55602" transform="translate(0 0)" clip-path="url(#clip-path)">
        <path id="Trazado_109604" data-name="Trazado 109604" d="M36.033,62.2a27.84,27.84,0,1,1,27.84-27.84A27.873,27.873,0,0,1,36.033,62.2m0-51.091A23.251,23.251,0,1,0,59.284,34.357,23.277,23.277,0,0,0,36.033,11.106" transform="translate(6.847 5.446)" fill="#fff"/>
        <path id="Trazado_109605" data-name="Trazado 109605" d="M28.929,62.2c-7.947,0-12.235-14.342-12.235-27.84s4.288-27.84,12.235-27.84,12.235,14.342,12.235,27.84S36.875,62.2,28.929,62.2m0-51.091c-3.117,0-7.646,9.059-7.646,23.251s4.529,23.251,7.646,23.251,7.646-9.059,7.646-23.251-4.529-23.251-7.646-23.251" transform="translate(13.951 5.446)" fill="#fff"/>
        <path id="Trazado_109606" data-name="Trazado 109606" d="M34.617,23.548c-9.951,0-18.836-2.1-23.767-5.608A2.3,2.3,0,0,1,13.514,14.2c4.057,2.889,12.341,4.758,21.1,4.758S51.665,17.09,55.72,14.2a2.294,2.294,0,0,1,2.664,3.736c-4.927,3.513-13.812,5.612-23.767,5.612" transform="translate(8.262 11.511)" fill="#fff"/>
        <path id="Trazado_109607" data-name="Trazado 109607" d="M57.05,34.04a2.288,2.288,0,0,1-1.331-.426c-4.055-2.889-12.338-4.756-21.1-4.756s-17.046,1.867-21.1,4.758a2.3,2.3,0,0,1-2.664-3.741c4.932-3.512,13.815-5.606,23.767-5.606s18.838,2.1,23.768,5.608A2.295,2.295,0,0,1,57.05,34.04" transform="translate(8.262 20.281)" fill="#fff"/>
        <path id="Trazado_109608" data-name="Trazado 109608" d="M36.033,62.2a27.84,27.84,0,1,1,27.84-27.84A27.873,27.873,0,0,1,36.033,62.2m0-51.091A23.251,23.251,0,1,0,59.284,34.357,23.277,23.277,0,0,0,36.033,11.106" transform="translate(6.847 5.446)" fill="#fff"/>
        <path id="Trazado_109609" data-name="Trazado 109609" d="M24.4,62.538a2.295,2.295,0,0,1,0-4.589A35.261,35.261,0,0,0,59.625,22.728a2.295,2.295,0,1,1,4.589,0A39.855,39.855,0,0,1,24.4,62.538" transform="translate(18.476 17.076)" fill="#fff"/>
        <path id="Trazado_109610" data-name="Trazado 109610" d="M65.435,23.339a2.29,2.29,0,0,1-1.988-1.147A35.261,35.261,0,0,0,15.332,9.3a2.3,2.3,0,1,1-2.295-3.976A39.856,39.856,0,0,1,67.42,19.9a2.3,2.3,0,0,1-1.984,3.442" transform="translate(9.936 0)" fill="#fff"/>
        <path id="Trazado_109611" data-name="Trazado 109611" d="M22.73,66.052a2.3,2.3,0,0,1-1.145-.307A39.809,39.809,0,0,1,7.013,11.363a2.295,2.295,0,0,1,3.974,2.295A35.262,35.262,0,0,0,23.879,61.771a2.294,2.294,0,0,1-1.149,4.281" transform="translate(1.389 8.536)" fill="#fff"/>
        <path id="Trazado_109612" data-name="Trazado 109612" d="M31.1,53.988a2.3,2.3,0,0,1-1.452-.518l-6.7-5.481a2.289,2.289,0,0,1-.321-3.229l5.481-6.7a2.294,2.294,0,1,1,3.55,2.908l-4.027,4.92,4.921,4.026A2.295,2.295,0,0,1,31.1,53.988" transform="translate(18.475 31.107)" fill="#fff"/>
        <path id="Trazado_109613" data-name="Trazado 109613" d="M45.994,18.692a2.163,2.163,0,0,1-.374-.031l-8.54-1.4a2.294,2.294,0,1,1,.742-4.529L44.1,13.761l1.026-6.274a2.295,2.295,0,0,1,4.529.743l-1.4,8.538a2.3,2.3,0,0,1-2.26,1.924" transform="translate(29.379 4.648)" fill="#fff"/>
        <path id="Trazado_109614" data-name="Trazado 109614" d="M13.446,22.9A2.293,2.293,0,0,1,11.3,21.414L9.052,15.468,3.1,17.715a2.294,2.294,0,0,1-1.621-4.292l8.1-3.058A2.286,2.286,0,0,1,12.534,11.7l3.058,8.1a2.291,2.291,0,0,1-1.336,2.955,2.238,2.238,0,0,1-.81.149" transform="translate(0 8.535)" fill="#fff"/>
      </g>
    </g>
  </g>
</svg>
