<svg xmlns="http://www.w3.org/2000/svg" xmlns:xlink="http://www.w3.org/1999/xlink" width="152.443" height="152.443" viewBox="0 0 152.443 152.443">
  <defs>
    <clipPath id="clip-path">
      <rect id="Rectángulo_15041" data-name="Rectángulo 15041" width="100.366" height="91.381" fill="none"/>
    </clipPath>
  </defs>
  <g id="Grupo_62253" data-name="Grupo 62253" transform="translate(-1066.994 -3845)">
    <path id="Trazado_5394" data-name="Trazado 5394" d="M2681.428,6466.172q3.746,0,7.471.367t7.4,1.1q3.673.729,7.256,1.817t7.043,2.52q3.459,1.433,6.762,3.2t6.416,3.845q3.113,2.08,6.008,4.456t5.542,5.024q2.648,2.648,5.023,5.542t4.456,6.008q2.08,3.113,3.846,6.416t3.2,6.762q1.433,3.458,2.52,7.042t1.817,7.256q.731,3.674,1.1,7.4t.367,7.471q0,3.746-.367,7.471t-1.1,7.4q-.731,3.672-1.817,7.255t-2.52,7.043q-1.434,3.459-3.2,6.762t-3.846,6.416q-2.08,3.112-4.456,6.008t-5.023,5.542q-2.647,2.649-5.542,5.023t-6.008,4.456q-3.114,2.08-6.416,3.846t-6.762,3.2q-3.459,1.433-7.043,2.52t-7.256,1.817q-3.672.732-7.4,1.1t-7.471.367q-3.744,0-7.471-.367t-7.4-1.1q-3.672-.73-7.256-1.817t-7.043-2.52q-3.459-1.434-6.761-3.2t-6.416-3.846q-3.114-2.079-6.008-4.456t-5.543-5.023q-2.647-2.648-5.023-5.542t-4.456-6.008q-2.08-3.114-3.845-6.416t-3.2-6.762q-1.434-3.459-2.52-7.043t-1.818-7.255q-.73-3.674-1.1-7.4t-.367-7.471q0-3.744.367-7.471t1.1-7.4q.731-3.672,1.818-7.256t2.52-7.042q1.433-3.461,3.2-6.762t3.845-6.416q2.08-3.114,4.456-6.008t5.023-5.542q2.649-2.649,5.543-5.024t6.008-4.456q3.112-2.079,6.416-3.845t6.761-3.2q3.46-1.434,7.043-2.52t7.256-1.817q3.672-.732,7.4-1.1T2681.428,6466.172Z" transform="translate(-1538.213 -2621.172)" fill="#a0a603"/>
    <circle id="Elipse_123" data-name="Elipse 123" cx="71.597" cy="71.597" r="71.597" transform="translate(1071.619 3849.625)" fill="#fff"/>
    <path id="Trazado_89796" data-name="Trazado 89796" d="M65.13,0A65.13,65.13,0,1,1,0,65.13,65.13,65.13,0,0,1,65.13,0Z" transform="translate(1078.086 3856.091)" fill="#d8df25"/>
    <g id="Grupo_55601" data-name="Grupo 55601" transform="translate(1092.741 3873.289)">
      <g id="Grupo_55600" data-name="Grupo 55600" transform="translate(0 0)" clip-path="url(#clip-path)">
        <path id="Trazado_109599" data-name="Trazado 109599" d="M43.118,45.226a2.709,2.709,0,0,1-1.173-.266L17.97,33.531A2.73,2.73,0,0,1,20.322,28.6L44.3,40.033a2.73,2.73,0,0,1-1.177,5.193" transform="translate(19.435 33.551)" fill="#fff"/>
        <path id="Trazado_109600" data-name="Trazado 109600" d="M43.455,55.8a22.127,22.127,0,0,1-22.1-22.1C21.353,22.239,39.421,3,41.483.843a2.726,2.726,0,0,1,3.944,0C47.489,3,65.554,22.239,65.554,33.7a22.125,22.125,0,0,1-22.1,22.1m0-49.05C37.464,13.407,26.813,26.695,26.813,33.7a16.641,16.641,0,0,0,33.281,0c0-7.013-10.649-20.3-16.64-26.95" transform="translate(25.281 0)" fill="#fff"/>
        <path id="Trazado_109601" data-name="Trazado 109601" d="M32.953,45.914a2.731,2.731,0,0,1-2.73-2.73V11.08a2.73,2.73,0,0,1,5.46,0v32.1a2.731,2.731,0,0,1-2.73,2.73" transform="translate(35.783 9.886)" fill="#fff"/>
        <path id="Trazado_109602" data-name="Trazado 109602" d="M37.3,27.352a2.722,2.722,0,0,1-1.931-.8l-8.107-8.107a2.73,2.73,0,0,1,3.861-3.859l8.107,8.1A2.73,2.73,0,0,1,37.3,27.352" transform="translate(31.331 16.323)" fill="#fff"/>
        <path id="Trazado_109603" data-name="Trazado 109603" d="M59.279,66.846a13.76,13.76,0,0,1-5.9-1.332l-34.9-16.546L3.414,52.853A2.729,2.729,0,0,1,0,50.211V23.455a2.73,2.73,0,0,1,2.73-2.73H23.751a2.728,2.728,0,0,1,1.175.266L59.2,37.352A11.849,11.849,0,0,1,65.908,46.9l15.847-7.511a13.793,13.793,0,0,1,18.35,6.55,2.732,2.732,0,0,1-1.3,3.636L65.176,65.514a13.743,13.743,0,0,1-5.9,1.332m-40.528-23.5a2.749,2.749,0,0,1,1.168.262l35.8,16.969a8.261,8.261,0,0,0,7.118,0L93.585,46.007a8.343,8.343,0,0,0-9.494-1.684L63.724,53.978a2.73,2.73,0,0,1-3.7-3.5,6.4,6.4,0,0,0-3.173-8.2l-33.72-16.1H5.46v20.5l12.61-3.25a2.688,2.688,0,0,1,.681-.087" transform="translate(0 24.537)" fill="#fff"/>
      </g>
    </g>
  </g>
</svg>
