<svg xmlns="http://www.w3.org/2000/svg" xmlns:xlink="http://www.w3.org/1999/xlink" width="152.442" height="152.443" viewBox="0 0 152.442 152.443">
  <defs>
    <clipPath id="clip-path">
      <rect id="Rectángulo_15046" data-name="Rectángulo 15046" width="93.311" height="70.121" fill="none"/>
    </clipPath>
  </defs>
  <g id="Grupo_62258" data-name="Grupo 62258" transform="translate(-884.408 -4711.172)">
    <path id="Trazado_89807" data-name="Trazado 89807" d="M2314.583,6466.172q3.746,0,7.471.367t7.4,1.1q3.674.729,7.256,1.817t7.043,2.52q3.459,1.433,6.762,3.2t6.416,3.845q3.112,2.08,6.008,4.456t5.542,5.024q2.648,2.648,5.023,5.542t4.456,6.008q2.08,3.113,3.846,6.416t3.2,6.762q1.433,3.458,2.52,7.042t1.817,7.256q.73,3.674,1.1,7.4t.367,7.471q0,3.746-.367,7.471t-1.1,7.4q-.731,3.672-1.817,7.255t-2.52,7.043q-1.434,3.459-3.2,6.762t-3.846,6.416q-2.08,3.112-4.456,6.008t-5.023,5.542q-2.647,2.649-5.542,5.023t-6.008,4.456q-3.114,2.08-6.416,3.846t-6.762,3.2q-3.459,1.433-7.043,2.52t-7.256,1.817q-3.672.732-7.4,1.1t-7.471.367q-3.744,0-7.471-.367t-7.4-1.1q-3.672-.73-7.256-1.817t-7.043-2.52q-3.459-1.434-6.761-3.2t-6.416-3.846q-3.114-2.079-6.008-4.456t-5.543-5.023q-2.648-2.648-5.023-5.542t-4.456-6.008q-2.08-3.114-3.845-6.416t-3.2-6.762q-1.434-3.459-2.52-7.043t-1.818-7.255q-.73-3.674-1.1-7.4t-.367-7.471q0-3.744.367-7.471t1.1-7.4q.731-3.672,1.818-7.256t2.52-7.042q1.432-3.461,3.2-6.762t3.845-6.416q2.08-3.114,4.456-6.008t5.023-5.542q2.649-2.649,5.543-5.024t6.008-4.456q3.112-2.079,6.416-3.845t6.761-3.2q3.46-1.434,7.043-2.52t7.256-1.817q3.674-.732,7.4-1.1T2314.583,6466.172Z" transform="translate(-1353.954 -1755)" fill="#a0a603"/>
    <circle id="Elipse_1210" data-name="Elipse 1210" cx="71.597" cy="71.597" r="71.597" transform="translate(889.033 4715.797)" fill="#fff"/>
    <circle id="Elipse_1212" data-name="Elipse 1212" cx="65.13" cy="65.13" r="65.13" transform="translate(895.499 4722.263)" fill="#d8df25"/>
    <g id="Grupo_55615" data-name="Grupo 55615" transform="translate(913.629 4751.899)">
      <g id="Grupo_55614" data-name="Grupo 55614" transform="translate(0 0)" clip-path="url(#clip-path)">
        <path id="Trazado_109640" data-name="Trazado 109640" d="M2.654,30.518h88a2.654,2.654,0,1,1,0,5.309h-88a2.654,2.654,0,0,1,0-5.309" transform="translate(0 34.29)" fill="#fff"/>
        <path id="Trazado_109641" data-name="Trazado 109641" d="M26.386,0a2.424,2.424,0,0,1,.246.013L45.659,1.8A2.647,2.647,0,0,1,47.775,3.23l5.8,11.336h9.975a2.656,2.656,0,0,1,2.593,2.092l5.3,24.358L78.5,42.9a2.66,2.66,0,0,1,1.642,1.289,2.631,2.631,0,0,1,.2,2.075L73.971,66.479a2.654,2.654,0,0,1-5.063-1.6l5.54-17.571-5.94-1.584a2.648,2.648,0,0,1-1.907-2L61.41,19.875H51.952a2.652,2.652,0,0,1-2.364-1.444L43.712,6.946l-16.044-1.5L12.924,26.3,9.847,67.66a2.654,2.654,0,1,1-5.294-.393l3.13-42.094a2.671,2.671,0,0,1,.48-1.334L24.218,1.121A2.659,2.659,0,0,1,26.386,0" transform="translate(5.107 0)" fill="#fff"/>
        <path id="Trazado_109642" data-name="Trazado 109642" d="M34.261,6.859a2.622,2.622,0,0,1,1.557.508,2.654,2.654,0,0,1,.588,3.708L25.843,25.606l3.228,11.833a2.655,2.655,0,1,1-5.122,1.4L20.386,25.774a2.652,2.652,0,0,1,.414-2.26L32.11,7.953a2.656,2.656,0,0,1,2.151-1.094" transform="translate(22.8 7.707)" fill="#fff"/>
        <path id="Trazado_109643" data-name="Trazado 109643" d="M27.358,14.187a2.655,2.655,0,0,1,.7,5.216l-8.335,2.276a2.655,2.655,0,0,1-1.4-5.122l8.335-2.276a2.662,2.662,0,0,1,.7-.093" transform="translate(18.391 15.941)" fill="#fff"/>
      </g>
    </g>
  </g>
</svg>
