<svg xmlns="http://www.w3.org/2000/svg" xmlns:xlink="http://www.w3.org/1999/xlink" width="152.443" height="152.443" viewBox="0 0 152.443 152.443">
  <defs>
    <clipPath id="clip-path">
      <rect id="Rectángulo_15039" data-name="Rectángulo 15039" width="108" height="89.063" fill="none"/>
    </clipPath>
  </defs>
  <g id="Grupo_62251" data-name="Grupo 62251" transform="translate(-333.304 -3845)">
    <path id="Trazado_5390" data-name="Trazado 5390" d="M1947.738,6466.172q3.745,0,7.471.367t7.4,1.1q3.673.729,7.256,1.817t7.043,2.52q3.459,1.433,6.762,3.2t6.416,3.845q3.113,2.08,6.008,4.456t5.542,5.024q2.648,2.648,5.023,5.542t4.456,6.008q2.08,3.113,3.846,6.416t3.2,6.762q1.433,3.458,2.52,7.042t1.817,7.256q.731,3.674,1.1,7.4t.367,7.471q0,3.746-.367,7.471t-1.1,7.4q-.73,3.672-1.817,7.255t-2.52,7.043q-1.432,3.459-3.2,6.762t-3.846,6.416q-2.08,3.112-4.456,6.008t-5.023,5.542q-2.648,2.649-5.542,5.023t-6.008,4.456q-3.114,2.08-6.416,3.846t-6.762,3.2q-3.459,1.433-7.043,2.52t-7.256,1.817q-3.672.732-7.4,1.1t-7.471.367q-3.744,0-7.471-.367t-7.4-1.1q-3.672-.73-7.256-1.817t-7.042-2.52q-3.461-1.434-6.762-3.2t-6.416-3.846q-3.114-2.079-6.008-4.456t-5.542-5.023q-2.649-2.648-5.024-5.542t-4.456-6.008q-2.079-3.114-3.845-6.416t-3.2-6.762q-1.432-3.459-2.52-7.043t-1.818-7.255q-.73-3.674-1.1-7.4t-.367-7.471q0-3.744.367-7.471t1.1-7.4q.731-3.672,1.818-7.256t2.52-7.042q1.433-3.461,3.2-6.762t3.845-6.416q2.08-3.114,4.456-6.008t5.024-5.542q2.648-2.649,5.542-5.024t6.008-4.456q3.114-2.079,6.416-3.845t6.762-3.2q3.459-1.434,7.042-2.52t7.256-1.817q3.673-.732,7.4-1.1T1947.738,6466.172Z" transform="translate(-1538.213 -2621.172)" fill="#a0a603"/>
    <path id="Trazado_89795" data-name="Trazado 89795" d="M71.6,0A71.6,71.6,0,1,1,0,71.6,71.51,71.51,0,0,1,71.6,0Z" transform="translate(337.929 3849.625)" fill="#fff"/>
    <circle id="Elipse_120" data-name="Elipse 120" cx="65.13" cy="65.13" r="65.13" transform="translate(344.396 3856.091)" fill="#d8df25"/>
    <g id="Grupo_55597" data-name="Grupo 55597" transform="translate(355.741 3879.289)">
      <g id="Grupo_55596" data-name="Grupo 55596" clip-path="url(#clip-path)">
        <path id="Trazado_109570" data-name="Trazado 109570" d="M137.483,16.913a8.456,8.456,0,1,1,8.457-8.456,8.466,8.466,0,0,1-8.457,8.456m0-13.708a5.251,5.251,0,1,0,5.251,5.252,5.257,5.257,0,0,0-5.251-5.252" transform="translate(-101.458)" fill="#fff"/>
        <path id="Trazado_109571" data-name="Trazado 109571" d="M197.007,197.541h-.04A1.6,1.6,0,0,1,195.4,195.9l1.352-56.141a1.6,1.6,0,1,1,3.2.077l-1.352,56.141a1.6,1.6,0,0,1-1.6,1.564" transform="translate(-153.652 -108.667)" fill="#fff"/>
        <path id="Trazado_109572" data-name="Trazado 109572" d="M164.489,272.609a1.6,1.6,0,0,1-1.6-1.6V235.263a1.6,1.6,0,1,1,3.2,0v35.743a1.6,1.6,0,0,1-1.6,1.6" transform="translate(-128.083 -183.735)" fill="#fff"/>
        <path id="Trazado_109573" data-name="Trazado 109573" d="M208.713,174.765a1.6,1.6,0,0,1-1.518-1.09l-5.775-17.07a1.6,1.6,0,1,1,3.036-1.027l5.775,17.07a1.6,1.6,0,0,1-1.518,2.116" transform="translate(-158.317 -121.48)" fill="#fff"/>
        <path id="Trazado_109574" data-name="Trazado 109574" d="M196.561,113.13A1.6,1.6,0,0,1,195,111.9l-4.813-19.95c-.426-1.265-.819-2.55-1.2-3.793q-.227-.742-.456-1.483a6.522,6.522,0,0,0-4.618-4.4l-2.394-.622a1.6,1.6,0,0,1,.806-3.1l2.393.622a9.708,9.708,0,0,1,6.873,6.552q.232.747.46,1.5c.381,1.244.775,2.531,1.2,3.774q.023.068.04.137l4.83,20.019a1.6,1.6,0,0,1-1.559,1.979" transform="translate(-141.795 -61.728)" fill="#fff"/>
        <path id="Trazado_109575" data-name="Trazado 109575" d="M125.67,197.54a1.6,1.6,0,0,1-1.6-1.564l-.406-16.84a1.6,1.6,0,0,1,3.2-.077l.406,16.841a1.6,1.6,0,0,1-1.564,1.641h-.039m-.662-27.461a1.6,1.6,0,0,1-1.6-1.564l-.691-28.68a1.6,1.6,0,0,1,1.564-1.641h.039a1.6,1.6,0,0,1,1.6,1.564l.69,28.68a1.6,1.6,0,0,1-1.563,1.641h-.04" transform="translate(-96.496 -108.667)" fill="#fff"/>
        <path id="Trazado_109576" data-name="Trazado 109576" d="M91.986,98.643a1.6,1.6,0,0,1-1.534-2.067l1.676-5.532c0-.016.01-.032.015-.048.42-1.243.814-2.53,1.2-3.774q.229-.748.46-1.5a9.709,9.709,0,0,1,6.873-6.552l2.394-.622a1.6,1.6,0,0,1,.805,3.1l-2.394.622a6.523,6.523,0,0,0-4.618,4.4q-.23.74-.456,1.482c-.385,1.258-.784,2.558-1.215,3.837L93.52,97.5a1.6,1.6,0,0,1-1.533,1.138" transform="translate(-71.071 -61.728)" fill="#fff"/>
        <path id="Trazado_109577" data-name="Trazado 109577" d="M377.918,37a8.1,8.1,0,1,1,8.1-8.1,8.11,8.11,0,0,1-8.1,8.1m0-13a4.9,4.9,0,1,0,4.9,4.9,4.9,4.9,0,0,0-4.9-4.9" transform="translate(-290.799 -16.358)" fill="#fff"/>
        <path id="Trazado_109578" data-name="Trazado 109578" d="M428.789,206.446h-.056a1.6,1.6,0,0,1-1.546-1.656l.5-14.659a1.6,1.6,0,0,1,1.6-1.548h7.857l-9.027-30.288a1.591,1.591,0,0,1-.057-.634l.744-6.714a1.6,1.6,0,1,1,3.185.353l-.708,6.391,9.548,32.037a1.6,1.6,0,0,1-1.536,2.06h-8.458l-.449,13.111a1.6,1.6,0,0,1-1.6,1.548" transform="translate(-335.91 -117.572)" fill="#fff"/>
        <path id="Trazado_109579" data-name="Trazado 109579" d="M337.578,206.445a1.6,1.6,0,0,1-1.6-1.548l-.449-13.111H327.07a1.6,1.6,0,0,1-1.536-2.06l9.548-32.037-.708-6.391a1.6,1.6,0,0,1,3.185-.353l.744,6.714a1.6,1.6,0,0,1-.057.634l-9.027,30.288h7.857a1.6,1.6,0,0,1,1.6,1.548l.5,14.659a1.6,1.6,0,0,1-1.547,1.656h-.056" transform="translate(-255.926 -117.572)" fill="#fff"/>
        <path id="Trazado_109580" data-name="Trazado 109580" d="M403.522,350.2a1.6,1.6,0,0,1-1.6-1.6V333.941a1.6,1.6,0,1,1,3.205,0V348.6a1.6,1.6,0,0,1-1.6,1.6" transform="translate(-316.042 -261.328)" fill="#fff"/>
        <path id="Trazado_109581" data-name="Trazado 109581" d="M432.586,130.573a4.465,4.465,0,0,1-4.171-2.877l-.018-.05-6.382-18.695a1.6,1.6,0,0,1,3.033-1.035l6.371,18.664a1.253,1.253,0,0,0,2.386-.739l-7.294-21.6a1.6,1.6,0,0,1-.065-.268,6.137,6.137,0,0,0-4.525-5l-2.269-.589a1.6,1.6,0,1,1,.805-3.1l2.269.589a9.338,9.338,0,0,1,6.863,7.471l7.273,21.534q.018.052.032.106a4.459,4.459,0,0,1-4.309,5.59" transform="translate(-329.043 -74.883)" fill="#fff"/>
        <path id="Trazado_109582" data-name="Trazado 109582" d="M320.927,126.123a1.6,1.6,0,0,1-1.543-2.038l5.846-20.7a9.338,9.338,0,0,1,6.87-7.513l2.269-.589a1.6,1.6,0,0,1,.806,3.1l-2.269.589a6.136,6.136,0,0,0-4.525,5,1.545,1.545,0,0,1-.041.19l-5.871,20.79a1.6,1.6,0,0,1-1.541,1.167" transform="translate(-251.094 -74.882)" fill="#fff"/>
        <path id="Trazado_109583" data-name="Trazado 109583" d="M434.093,21.6a8.066,8.066,0,0,1-3.14-.652,3.34,3.34,0,0,0-.77-.223,4.253,4.253,0,0,0-1.762-.031,1.6,1.6,0,0,1-2.348-1.439,6.158,6.158,0,0,1,9.855-4.913c1.059.682,1.758,1.133,4.325.048a1.6,1.6,0,0,1,1.971,2.344c-1.247,1.934-4.267,4.866-8.13,4.867m-4.232-4.143q.388.035.813.1a6.54,6.54,0,0,1,1.516.434,4.8,4.8,0,0,0,3.841-.013,8.251,8.251,0,0,1-1.84-.943,3.009,3.009,0,0,0-2.506-.672,2.6,2.6,0,0,0-1.824,1.094" transform="translate(-335.035 -10.308)" fill="#fff"/>
        <path id="Trazado_109584" data-name="Trazado 109584" d="M268.228,248.569a6.806,6.806,0,1,1,6.806-6.806,6.814,6.814,0,0,1-6.806,6.806m0-10.408a3.6,3.6,0,1,0,3.6,3.6,3.606,3.606,0,0,0-3.6-3.6" transform="translate(-205.565 -184.754)" fill="#fff"/>
        <path id="Trazado_109585" data-name="Trazado 109585" d="M310.928,259.6h-.023a1.6,1.6,0,0,1-1.58-1.625l.286-20.1a1.6,1.6,0,0,1,.128-.6l6.633-15.58a.981.981,0,1,0-1.816-.741l-2.136,5.465a1.6,1.6,0,1,1-2.985-1.167l2.136-5.465a4.186,4.186,0,1,1,7.749,3.163l-6.509,15.29-.282,19.786a1.6,1.6,0,0,1-1.6,1.58" transform="translate(-243.233 -170.727)" fill="#fff"/>
        <path id="Trazado_109586" data-name="Trazado 109586" d="M285.2,360.5a1.6,1.6,0,0,1-1.6-1.6V347.036a1.6,1.6,0,1,1,3.2,0V358.9a1.6,1.6,0,0,1-1.6,1.6" transform="translate(-222.999 -271.626)" fill="#fff"/>
        <path id="Trazado_109587" data-name="Trazado 109587" d="M235.635,261.168a1.6,1.6,0,0,1-1.6-1.593l-.115-19.8-6.06-15.207a3.983,3.983,0,0,1,7.314-3.149l2.692,5.808a1.6,1.6,0,0,1-2.908,1.348l-2.692-5.808a.778.778,0,0,0-1.429.615l6.172,15.488a1.605,1.605,0,0,1,.114.584l.117,20.1a1.6,1.6,0,0,1-1.593,1.612Z" transform="translate(-178.95 -172.295)" fill="#fff"/>
        <path id="Trazado_109588" data-name="Trazado 109588" d="M49.078,153.027a6.745,6.745,0,1,1,6.745-6.745,6.753,6.753,0,0,1-6.745,6.745m0-10.285a3.54,3.54,0,1,0,3.54,3.54,3.544,3.544,0,0,0-3.54-3.54" transform="translate(-33.288 -109.723)" fill="#fff"/>
        <path id="Trazado_109589" data-name="Trazado 109589" d="M92.418,273.532H92.4a1.6,1.6,0,0,1-1.584-1.621l.41-35.733a1.6,1.6,0,0,1,1.6-1.584h.019a1.6,1.6,0,0,1,1.584,1.621l-.41,35.733a1.6,1.6,0,0,1-1.6,1.584" transform="translate(-71.411 -184.469)" fill="#fff"/>
        <path id="Trazado_109590" data-name="Trazado 109590" d="M66.736,319.94a1.6,1.6,0,0,1-1.6-1.6V295.214a1.6,1.6,0,0,1,3.205,0v23.123a1.6,1.6,0,0,1-1.6,1.6" transform="translate(-51.216 -230.877)" fill="#fff"/>
        <path id="Trazado_109591" data-name="Trazado 109591" d="M91.793,224.369a1.6,1.6,0,0,1-.479-3.132.346.346,0,0,0,.239-.38c-.428-1.216-4.475-12.731-4.825-13.854a4.17,4.17,0,0,0-2.92-2.468l-1.548-.4a1.6,1.6,0,0,1,.805-3.1l1.548.4a7.3,7.3,0,0,1,5.175,4.618c.275.884,3.272,9.433,4.818,13.829.014.041.027.083.038.125a3.546,3.546,0,0,1-2.373,4.29,1.6,1.6,0,0,1-.48.074" transform="translate(-63.74 -158.037)" fill="#fff"/>
        <path id="Trazado_109592" data-name="Trazado 109592" d="M40.352,273.532a1.6,1.6,0,0,1-1.6-1.6L38.582,236.2a1.6,1.6,0,0,1,1.6-1.61h.008a1.6,1.6,0,0,1,1.6,1.6l.168,35.733a1.6,1.6,0,0,1-1.6,1.61Z" transform="translate(-30.338 -184.469)" fill="#fff"/>
        <path id="Trazado_109593" data-name="Trazado 109593" d="M3.481,224.448a3.345,3.345,0,0,1-2.27-.87A3.569,3.569,0,0,1,.115,220c.011-.042.024-.084.038-.125,1.547-4.4,4.544-12.945,4.818-13.829a7.306,7.306,0,0,1,5.175-4.618l1.548-.4a1.6,1.6,0,0,1,.806,3.1l-1.549.4A4.17,4.17,0,0,0,8.032,207c-.349,1.122-4.4,12.639-4.825,13.854a.351.351,0,0,0,.12.315l.051.045a.626.626,0,0,0,.5-.1,1.6,1.6,0,1,1,1.487,2.839,4.03,4.03,0,0,1-1.882.494m-.035-3.167,0,0Zm0,0h0m0,0h0" transform="translate(0 -158.036)" fill="#fff"/>
      </g>
    </g>
  </g>
</svg>
