<svg xmlns="http://www.w3.org/2000/svg" width="152.443" height="152.443" viewBox="0 0 152.443 152.443">
  <g id="Grupo_62257" data-name="Grupo 62257" transform="translate(-1251.253 -4711.172)">
    <path id="Trazado_89808" data-name="Trazado 89808" d="M2681.428,6466.172q3.746,0,7.471.367t7.4,1.1q3.673.729,7.256,1.817t7.043,2.52q3.459,1.433,6.762,3.2t6.416,3.845q3.113,2.08,6.008,4.456t5.542,5.024q2.648,2.648,5.023,5.542t4.456,6.008q2.08,3.113,3.846,6.416t3.2,6.762q1.433,3.458,2.52,7.042t1.817,7.256q.731,3.674,1.1,7.4t.367,7.471q0,3.746-.367,7.471t-1.1,7.4q-.731,3.672-1.817,7.255t-2.52,7.043q-1.434,3.459-3.2,6.762t-3.846,6.416q-2.08,3.112-4.456,6.008t-5.023,5.542q-2.647,2.649-5.542,5.023t-6.008,4.456q-3.114,2.08-6.416,3.846t-6.762,3.2q-3.459,1.433-7.043,2.52t-7.256,1.817q-3.672.732-7.4,1.1t-7.471.367q-3.744,0-7.471-.367t-7.4-1.1q-3.672-.73-7.256-1.817t-7.043-2.52q-3.459-1.434-6.761-3.2t-6.416-3.846q-3.114-2.079-6.008-4.456t-5.543-5.023q-2.647-2.648-5.023-5.542t-4.456-6.008q-2.08-3.114-3.845-6.416t-3.2-6.762q-1.434-3.459-2.52-7.043t-1.818-7.255q-.73-3.674-1.1-7.4t-.367-7.471q0-3.744.367-7.471t1.1-7.4q.731-3.672,1.818-7.256t2.52-7.042q1.433-3.461,3.2-6.762t3.845-6.416q2.08-3.114,4.456-6.008t5.023-5.542q2.649-2.649,5.543-5.024t6.008-4.456q3.112-2.079,6.416-3.845t6.761-3.2q3.46-1.434,7.043-2.52t7.256-1.817q3.672-.732,7.4-1.1T2681.428,6466.172Z" transform="translate(-1353.954 -1755)" fill="#a0a603"/>
    <circle id="Elipse_1211" data-name="Elipse 1211" cx="71.597" cy="71.597" r="71.597" transform="translate(1255.878 4715.797)" fill="#fff"/>
    <path id="Trazado_89809" data-name="Trazado 89809" d="M65.13,0A65.13,65.13,0,1,1,0,65.13,65.13,65.13,0,0,1,65.13,0Z" transform="translate(1262.344 4722.263)" fill="#d8df25"/>
    <g id="Grupo_55612" data-name="Grupo 55612" transform="translate(1253 4759.401)">
      <g id="Grupo_55613" data-name="Grupo 55613" transform="translate(0.002 0)">
        <path id="Trazado_109636" data-name="Trazado 109636" d="M119.41,19.966h-110a3.318,3.318,0,1,1,0-6.636h110a3.318,3.318,0,1,1,0,6.636" transform="translate(10.084 22.052)" fill="#fff"/>
        <path id="Trazado_109639" data-name="Trazado 109639" d="M96.355,42.018a3.313,3.313,0,0,1-2.346-.971L60.936,7.971,47.361,21.545a3.319,3.319,0,0,1-4.693,0l-2.381-2.384L18.405,41.047a3.318,3.318,0,1,1-4.693-4.693L37.941,12.122a3.319,3.319,0,0,1,4.693,0l2.381,2.386L58.589.932a3.421,3.421,0,0,1,4.693,0L98.7,36.354a3.318,3.318,0,0,1-2.346,5.664" transform="translate(21.075)" fill="#fff"/>
      </g>
    </g>
  </g>
</svg>
